URWPalladioL-Bold.ufo
<glyph name="quotedbl" format="1">
  <advance width="402"/>
  <unicode hex="0022"/>
  <outline>
    <contour>
      <point x="113" y="376" type="line"/>
      <point x="67" y="376" type="line"/>
      <point x="23" y="615" type="line" smooth="yes"/>
      <point x="22" y="619"/>
      <point x="22" y="621"/>
      <point x="22" y="624" type="curve" smooth="yes"/>
      <point x="22" y="660"/>
      <point x="56" y="695"/>
      <point x="90" y="695" type="curve" smooth="yes"/>
      <point x="125" y="695"/>
      <point x="158" y="660"/>
      <point x="158" y="624" type="curve" smooth="yes"/>
      <point x="158" y="621"/>
      <point x="158" y="618"/>
      <point x="157" y="615" type="curve" smooth="yes"/>
    </contour>
    <contour>
      <point x="335" y="376" type="line"/>
      <point x="289" y="376" type="line"/>
      <point x="245" y="615" type="line" smooth="yes"/>
      <point x="244" y="619"/>
      <point x="244" y="621"/>
      <point x="244" y="624" type="curve" smooth="yes"/>
      <point x="244" y="660"/>
      <point x="278" y="695"/>
      <point x="312" y="695" type="curve" smooth="yes"/>
      <point x="347" y="695"/>
      <point x="380" y="660"/>
      <point x="380" y="624" type="curve" smooth="yes"/>
      <point x="380" y="621"/>
      <point x="380" y="618"/>
      <point x="379" y="615" type="curve" smooth="yes"/>
    </contour>
  </outline>
</glyph>
<glyph name="dollar" format="1">
  <advance width="500"/>
  <unicode hex="0024"/>
  <outline>
    <contour>
      <point x="221" y="37" type="curve"/>
      <point x="221" y="277" type="line"/>
      <point x="140" y="288"/>
      <point x="102" y="302"/>
      <point x="72" y="332" type="curve" smooth="yes"/>
      <point x="42" y="361"/>
      <point x="28" y="403"/>
      <point x="28" y="462" type="curve" smooth="yes"/>
      <point x="28" y="524"/>
      <point x="48" y="574"/>
      <point x="88" y="609" type="curve" smooth="yes"/>
      <point x="122" y="639"/>
      <point x="152" y="653"/>
      <point x="221" y="668" type="curve"/>
      <point x="219" y="721" type="line"/>
      <point x="269" y="721" type="line"/>
      <point x="267" y="668" type="line"/>
      <point x="332" y="667"/>
      <point x="381" y="657"/>
      <point x="432" y="635" type="curve"/>
      <point x="434" y="628" type="line"/>
      <point x="424" y="593"/>
      <point x="420" y="551"/>
      <point x="420" y="488" type="curve"/>
      <point x="381" y="488" type="line"/>
      <point x="381" y="546"/>
      <point x="377" y="571"/>
      <point x="366" y="579" type="curve" smooth="yes"/>
      <point x="341" y="599"/>
      <point x="303" y="613"/>
      <point x="267" y="614" type="curve"/>
      <point x="267" y="402" type="line"/>
      <point x="357" y="385"/>
      <point x="398" y="369"/>
      <point x="429" y="337" type="curve" smooth="yes"/>
      <point x="458" y="307"/>
      <point x="472" y="267"/>
      <point x="472" y="214" type="curve" smooth="yes"/>
      <point x="472" y="131"/>
      <point x="433" y="60"/>
      <point x="368" y="19" type="curve" smooth="yes"/>
      <point x="338" y="1"/>
      <point x="315" y="-6"/>
      <point x="267" y="-13" type="curve"/>
      <point x="269" y="-114" type="line"/>
      <point x="218" y="-114" type="line"/>
      <point x="221" y="-17" type="line"/>
      <point x="142" y="-14"/>
      <point x="86" y="-2"/>
      <point x="33" y="23" type="curve"/>
      <point x="30" y="32" type="line"/>
      <point x="35" y="77"/>
      <point x="37" y="109"/>
      <point x="39" y="181" type="curve"/>
      <point x="80" y="181" type="line"/>
      <point x="80" y="141" type="line" smooth="yes"/>
      <point x="80" y="110"/>
      <point x="89" y="90"/>
      <point x="109" y="75" type="curve" smooth="yes"/>
      <point x="143" y="51"/>
      <point x="176" y="40"/>
    </contour>
    <contour>
      <point x="267" y="267" type="curve"/>
      <point x="267" y="40" type="line"/>
      <point x="331" y="59"/>
      <point x="365" y="101"/>
      <point x="365" y="161" type="curve" smooth="yes"/>
      <point x="365" y="221"/>
      <point x="332" y="256"/>
    </contour>
    <contour>
      <point x="221" y="408" type="curve"/>
      <point x="221" y="614" type="line"/>
      <point x="169" y="610"/>
      <point x="130" y="563"/>
      <point x="130" y="505" type="curve" smooth="yes"/>
      <point x="130" y="451"/>
      <point x="161" y="418"/>
    </contour>
  </outline>
</glyph>
<glyph name="percent" format="1">
  <advance width="889"/>
  <unicode hex="0025"/>
  <outline>
    <contour>
      <point x="226" y="700" type="curve" smooth="yes"/>
      <point x="318" y="700"/>
      <point x="387" y="630"/>
      <point x="387" y="536" type="curve" smooth="yes"/>
      <point x="387" y="443"/>
      <point x="317" y="372"/>
      <point x="224" y="372" type="curve" smooth="yes"/>
      <point x="132" y="372"/>
      <point x="61" y="443"/>
      <point x="61" y="535" type="curve" smooth="yes"/>
      <point x="61" y="632"/>
      <point x="129" y="700"/>
    </contour>
    <contour>
      <point x="225" y="668" type="curve" smooth="yes"/>
      <point x="182" y="668"/>
      <point x="161" y="625"/>
      <point x="161" y="539" type="curve" smooth="yes"/>
      <point x="161" y="446"/>
      <point x="181" y="404"/>
      <point x="224" y="404" type="curve" smooth="yes"/>
      <point x="267" y="404"/>
      <point x="287" y="446"/>
      <point x="287" y="536" type="curve" smooth="yes"/>
      <point x="287" y="624"/>
      <point x="266" y="668"/>
    </contour>
    <contour>
      <point x="667" y="328" type="curve" smooth="yes"/>
      <point x="759" y="328"/>
      <point x="828" y="258"/>
      <point x="828" y="164" type="curve" smooth="yes"/>
      <point x="828" y="71"/>
      <point x="758" y="0"/>
      <point x="665" y="0" type="curve" smooth="yes"/>
      <point x="573" y="0"/>
      <point x="502" y="71"/>
      <point x="502" y="163" type="curve" smooth="yes"/>
      <point x="502" y="260"/>
      <point x="570" y="328"/>
    </contour>
    <contour>
      <point x="666" y="296" type="curve" smooth="yes"/>
      <point x="623" y="296"/>
      <point x="602" y="253"/>
      <point x="602" y="167" type="curve" smooth="yes"/>
      <point x="602" y="74"/>
      <point x="622" y="32"/>
      <point x="665" y="32" type="curve" smooth="yes"/>
      <point x="708" y="32"/>
      <point x="728" y="74"/>
      <point x="728" y="164" type="curve" smooth="yes"/>
      <point x="728" y="252"/>
      <point x="707" y="296"/>
    </contour>
    <contour>
      <point x="283" y="-9" type="line"/>
      <point x="234" y="-9" type="line"/>
      <point x="600" y="714" type="line"/>
      <point x="649" y="714" type="line"/>
    </contour>
  </outline>
</glyph>
<glyph name="ampersand" format="1">
  <advance width="833"/>
  <unicode hex="0026"/>
  <outline>
    <contour>
      <point x="537" y="328" type="curve"/>
      <point x="447" y="328" type="line"/>
      <point x="467" y="365"/>
      <point x="472" y="377"/>
      <point x="476" y="394" type="curve"/>
      <point x="594" y="390" type="line" smooth="yes"/>
      <point x="613" y="389"/>
      <point x="631" y="389"/>
      <point x="643" y="389" type="curve" smooth="yes"/>
      <point x="681" y="389"/>
      <point x="711" y="390"/>
      <point x="788" y="395" type="curve"/>
      <point x="791" y="386" type="line"/>
      <point x="780" y="360"/>
      <point x="775" y="342"/>
      <point x="771" y="316" type="curve"/>
      <point x="721" y="321"/>
      <point x="685" y="323"/>
      <point x="630" y="323" type="curve"/>
      <point x="632" y="307"/>
      <point x="633" y="295"/>
      <point x="633" y="286" type="curve" smooth="yes"/>
      <point x="633" y="239"/>
      <point x="615" y="195"/>
      <point x="568" y="133" type="curve"/>
      <point x="621" y="100"/>
      <point x="668" y="84"/>
      <point x="719" y="84" type="curve" smooth="yes"/>
      <point x="737" y="84"/>
      <point x="748" y="88"/>
      <point x="771" y="104" type="curve" smooth="yes"/>
      <point x="775" y="107"/>
      <point x="779" y="109"/>
      <point x="782" y="111" type="curve" smooth="yes"/>
      <point x="799" y="122" type="line"/>
      <point x="813" y="90" type="line"/>
      <point x="772" y="55"/>
      <point x="741" y="23"/>
      <point x="720" y="-9" type="curve"/>
      <point x="654" y="-12" type="line"/>
      <point x="590" y="-12"/>
      <point x="540" y="7"/>
      <point x="483" y="53" type="curve"/>
      <point x="415" y="3"/>
      <point x="358" y="-17"/>
      <point x="282" y="-17" type="curve" smooth="yes"/>
      <point x="147" y="-17"/>
      <point x="52" y="63"/>
      <point x="52" y="176" type="curve" smooth="yes"/>
      <point x="52" y="262"/>
      <point x="93" y="314"/>
      <point x="207" y="373" type="curve"/>
      <point x="183" y="433"/>
      <point x="174" y="467"/>
      <point x="174" y="503" type="curve" smooth="yes"/>
      <point x="174" y="541"/>
      <point x="186" y="566"/>
      <point x="225" y="608" type="curve" smooth="yes"/>
      <point x="260" y="646" type="line" smooth="yes"/>
      <point x="282" y="669"/>
      <point x="321" y="684"/>
      <point x="362" y="684" type="curve" smooth="yes"/>
      <point x="432" y="684"/>
      <point x="477" y="643"/>
      <point x="477" y="580" type="curve" smooth="yes"/>
      <point x="477" y="510"/>
      <point x="438" y="462"/>
      <point x="319" y="385" type="curve"/>
      <point x="380" y="294"/>
      <point x="441" y="227"/>
      <point x="525" y="158" type="curve"/>
      <point x="549" y="195"/>
      <point x="557" y="219"/>
      <point x="557" y="250" type="curve" smooth="yes"/>
      <point x="557" y="275"/>
      <point x="550" y="300"/>
    </contour>
    <contour>
      <point x="222" y="336" type="curve"/>
      <point x="183" y="299"/>
      <point x="171" y="275"/>
      <point x="171" y="233" type="curve" smooth="yes"/>
      <point x="171" y="137"/>
      <point x="254" y="53"/>
      <point x="350" y="53" type="curve" smooth="yes"/>
      <point x="384" y="53"/>
      <point x="411" y="62"/>
      <point x="441" y="83" type="curve"/>
      <point x="344" y="167"/>
      <point x="285" y="235"/>
    </contour>
    <contour>
      <point x="299" y="426" type="curve"/>
      <point x="305" y="430"/>
      <point x="309" y="433"/>
      <point x="314" y="436" type="curve" smooth="yes"/>
      <point x="364" y="472"/>
      <point x="390" y="513"/>
      <point x="390" y="557" type="curve" smooth="yes"/>
      <point x="390" y="596"/>
      <point x="366" y="622"/>
      <point x="331" y="622" type="curve" smooth="yes"/>
      <point x="289" y="622"/>
      <point x="265" y="594"/>
      <point x="265" y="544" type="curve" smooth="yes"/>
      <point x="265" y="511"/>
      <point x="273" y="484"/>
    </contour>
  </outline>
</glyph>
<glyph name="quotesingle" format="1">
  <advance width="227"/>
  <unicode hex="0027"/>
  <outline>
    <contour>
      <point x="136" y="376" type="line"/>
      <point x="90" y="376" type="line"/>
      <point x="46" y="615" type="line" smooth="yes"/>
      <point x="45" y="619"/>
      <point x="45" y="621"/>
      <point x="45" y="624" type="curve" smooth="yes"/>
      <point x="45" y="660"/>
      <point x="79" y="695"/>
      <point x="113" y="695" type="curve" smooth="yes"/>
      <point x="148" y="695"/>
      <point x="181" y="660"/>
      <point x="181" y="624" type="curve" smooth="yes"/>
      <point x="181" y="621"/>
      <point x="181" y="618"/>
      <point x="180" y="615" type="curve" smooth="yes"/>
    </contour>
  </outline>
</glyph>
<glyph name="parenright" format="1">
  <advance width="333"/>
  <unicode hex="0029"/>
  <outline>
    <contour>
      <point x="28" y="701" type="curve"/>
      <point x="54" y="723" type="line"/>
      <point x="154" y="643"/>
      <point x="194" y="594"/>
      <point x="229" y="511" type="curve" smooth="yes"/>
      <point x="255" y="450"/>
      <point x="268" y="382"/>
      <point x="268" y="307" type="curve" smooth="yes"/>
      <point x="268" y="231"/>
      <point x="255" y="164"/>
      <point x="228" y="103" type="curve" smooth="yes"/>
      <point x="192" y="19"/>
      <point x="152" y="-28"/>
      <point x="52" y="-104" type="curve"/>
      <point x="28" y="-80" type="line"/>
      <point x="115" y="31"/>
      <point x="135" y="103"/>
      <point x="135" y="308" type="curve" smooth="yes"/>
      <point x="135" y="424"/>
      <point x="125" y="509"/>
      <point x="104" y="570" type="curve" smooth="yes"/>
      <point x="86" y="621"/>
      <point x="70" y="648"/>
    </contour>
  </outline>
</glyph>
<glyph name="asterisk" format="1">
  <advance width="444"/>
  <unicode hex="002A"/>
  <outline>
    <contour>
      <point x="319" y="673" type="curve"/>
      <point x="324" y="659" type="line"/>
      <point x="300" y="635"/>
      <point x="269" y="587"/>
      <point x="242" y="532" type="curve"/>
      <point x="265" y="537"/>
      <point x="273" y="538"/>
      <point x="287" y="541" type="curve" smooth="yes"/>
      <point x="344" y="551"/>
      <point x="364" y="556"/>
      <point x="383" y="563" type="curve"/>
      <point x="389" y="560" type="line"/>
      <point x="388" y="551"/>
      <point x="388" y="545"/>
      <point x="388" y="540" type="curve" smooth="yes"/>
      <point x="388" y="521"/>
      <point x="392" y="499"/>
      <point x="399" y="473" type="curve"/>
      <point x="390" y="462" type="line"/>
      <point x="345" y="480"/>
      <point x="299" y="490"/>
      <point x="236" y="496" type="curve"/>
      <point x="243" y="484" type="line"/>
      <point x="282" y="420"/>
      <point x="291" y="407"/>
      <point x="316" y="378" type="curve"/>
      <point x="314" y="366" type="line"/>
      <point x="293" y="362"/>
      <point x="260" y="349"/>
      <point x="229" y="332" type="curve"/>
      <point x="214" y="339" type="line"/>
      <point x="214" y="398"/>
      <point x="211" y="434"/>
      <point x="203" y="484" type="curve"/>
      <point x="171" y="461"/>
      <point x="131" y="420"/>
      <point x="102" y="379" type="curve"/>
      <point x="83" y="387" type="line"/>
      <point x="74" y="413"/>
      <point x="59" y="440"/>
      <point x="44" y="457" type="curve"/>
      <point x="48" y="464" type="line"/>
      <point x="91" y="475"/>
      <point x="136" y="492"/>
      <point x="185" y="517" type="curve"/>
      <point x="151" y="540"/>
      <point x="103" y="560"/>
      <point x="47" y="576" type="curve"/>
      <point x="44" y="583" type="line"/>
      <point x="67" y="619"/>
      <point x="77" y="637"/>
      <point x="88" y="660" type="curve"/>
      <point x="104" y="660" type="line"/>
      <point x="206" y="546" type="line"/>
      <point x="216" y="597"/>
      <point x="219" y="633"/>
      <point x="219" y="688" type="curve"/>
      <point x="227" y="695" type="line"/>
      <point x="260" y="683"/>
      <point x="283" y="678"/>
    </contour>
  </outline>
</glyph>
<glyph name="plus" format="1">
  <advance width="606"/>
  <unicode hex="002B"/>
  <outline>
    <contour>
      <point x="260" y="298" type="line"/>
      <point x="260" y="505" type="line"/>
      <point x="346" y="505" type="line"/>
      <point x="346" y="298" type="line"/>
      <point x="555" y="298" type="line"/>
      <point x="555" y="212" type="line"/>
      <point x="346" y="212" type="line"/>
      <point x="346" y="0" type="line"/>
      <point x="260" y="0" type="line"/>
      <point x="260" y="212" type="line"/>
      <point x="51" y="212" type="line"/>
      <point x="51" y="298" type="line"/>
    </contour>
  </outline>
</glyph>
<glyph name="comma" format="1">
  <advance width="250"/>
  <unicode hex="002C"/>
  <outline>
    <contour>
      <point x="80" y="-136" type="curve"/>
      <point x="9" y="-166" type="line"/>
      <point x="-6" y="-153" type="line"/>
      <point x="38" y="-64"/>
      <point x="68" y="32"/>
      <point x="76" y="103" type="curve"/>
      <point x="130" y="117"/>
      <point x="163" y="126"/>
      <point x="210" y="141" type="curve"/>
      <point x="227" y="125" type="line"/>
      <point x="191" y="47"/>
      <point x="158" y="-11"/>
    </contour>
  </outline>
</glyph>
<glyph name="hyphen" format="1">
  <advance width="333"/>
  <unicode hex="002D"/>
  <outline>
    <contour>
      <point x="50" y="305" type="curve"/>
      <point x="308" y="305" type="line"/>
      <point x="317" y="295" type="line"/>
      <point x="301" y="259"/>
      <point x="290" y="223"/>
      <point x="285" y="195" type="curve"/>
      <point x="24" y="195" type="line"/>
      <point x="16" y="203" type="line"/>
      <point x="21" y="218"/>
      <point x="24" y="227"/>
      <point x="31" y="246" type="curve" smooth="yes"/>
      <point x="43" y="281"/>
      <point x="45" y="287"/>
    </contour>
  </outline>
</glyph>
<glyph name="slash" format="1">
  <advance width="296"/>
  <unicode hex="002F"/>
  <outline>
    <contour>
      <point x="215" y="720" type="line"/>
      <point x="305" y="720" type="line"/>
      <point x="81" y="-17" type="line"/>
      <point x="-9" y="-17" type="line"/>
    </contour>
  </outline>
</glyph>
<glyph name="zero" format="1">
  <advance width="500"/>
  <unicode hex="0030"/>
  <outline>
    <contour>
      <point x="266" y="660" type="curve" smooth="yes"/>
      <point x="339" y="660"/>
      <point x="395" y="630"/>
      <point x="427" y="573" type="curve" smooth="yes"/>
      <point x="456" y="522"/>
      <point x="468" y="455"/>
      <point x="468" y="348" type="curve" smooth="yes"/>
      <point x="468" y="96"/>
      <point x="398" y="-17"/>
      <point x="242" y="-17" type="curve" smooth="yes"/>
      <point x="96" y="-17"/>
      <point x="33" y="79"/>
      <point x="33" y="302" type="curve" smooth="yes"/>
      <point x="33" y="424"/>
      <point x="47" y="502"/>
      <point x="81" y="561" type="curve" smooth="yes"/>
      <point x="119" y="628"/>
      <point x="178" y="660"/>
    </contour>
    <contour>
      <point x="245" y="610" type="curve" smooth="yes"/>
      <point x="217" y="610"/>
      <point x="195" y="597"/>
      <point x="180" y="570" type="curve" smooth="yes"/>
      <point x="160" y="533"/>
      <point x="153" y="482"/>
      <point x="153" y="372" type="curve" smooth="yes"/>
      <point x="153" y="238"/>
      <point x="165" y="128"/>
      <point x="185" y="85" type="curve" smooth="yes"/>
      <point x="201" y="51"/>
      <point x="225" y="33"/>
      <point x="255" y="33" type="curve" smooth="yes"/>
      <point x="315" y="33"/>
      <point x="348" y="110"/>
      <point x="348" y="252" type="curve" smooth="yes"/>
      <point x="348" y="386"/>
      <point x="334" y="515"/>
      <point x="314" y="558" type="curve" smooth="yes"/>
      <point x="298" y="592"/>
      <point x="274" y="610"/>
    </contour>
  </outline>
</glyph>
<glyph name="one" format="1">
  <advance width="500"/>
  <unicode hex="0031"/>
  <outline>
    <contour>
      <point x="189" y="564" type="curve" smooth="yes"/>
      <point x="49" y="499" type="line"/>
      <point x="39" y="525"/>
      <point x="35" y="544"/>
      <point x="35" y="569" type="curve"/>
      <point x="97" y="583"/>
      <point x="212" y="622"/>
      <point x="334" y="670" type="curve"/>
      <point x="346" y="660" type="line"/>
      <point x="338" y="548"/>
      <point x="336" y="485"/>
      <point x="336" y="406" type="curve" smooth="yes"/>
      <point x="336" y="84" type="line" smooth="yes"/>
      <point x="336" y="54"/>
      <point x="355" y="39"/>
      <point x="393" y="37" type="curve" smooth="yes"/>
      <point x="455" y="34" type="line"/>
      <point x="455" y="-3" type="line"/>
      <point x="406" y="-2"/>
      <point x="360" y="-1"/>
      <point x="347" y="-1" type="curve" smooth="yes"/>
      <point x="314" y="0"/>
      <point x="290" y="0"/>
      <point x="278" y="0" type="curve" smooth="yes"/>
      <point x="266" y="0"/>
      <point x="245" y="0"/>
      <point x="215" y="-1" type="curve" smooth="yes"/>
      <point x="197" y="-1"/>
      <point x="136" y="-2"/>
      <point x="75" y="-3" type="curve"/>
      <point x="75" y="34" type="line"/>
      <point x="147" y="37" type="line" smooth="yes"/>
      <point x="185" y="39"/>
      <point x="204" y="55"/>
      <point x="204" y="84" type="curve" smooth="yes"/>
      <point x="204" y="527" type="line" smooth="yes"/>
      <point x="204" y="557"/>
      <point x="202" y="564"/>
      <point x="194" y="565" type="curve" smooth="yes"/>
      <point x="193" y="565"/>
      <point x="191" y="565"/>
    </contour>
  </outline>
</glyph>
<glyph name="three" format="1">
  <advance width="500"/>
  <unicode hex="0033"/>
  <outline>
    <contour>
      <point x="22" y="156" type="curve"/>
      <point x="56" y="165" type="line"/>
      <point x="78" y="116"/>
      <point x="92" y="95"/>
      <point x="115" y="74" type="curve"/>
      <point x="141" y="52"/>
      <point x="175" y="39"/>
      <point x="210" y="39" type="curve" smooth="yes"/>
      <point x="283" y="39"/>
      <point x="334" y="94"/>
      <point x="334" y="172" type="curve" smooth="yes"/>
      <point x="334" y="247"/>
      <point x="284" y="296"/>
      <point x="208" y="296" type="curve" smooth="yes"/>
      <point x="186" y="296"/>
      <point x="167" y="294"/>
      <point x="147" y="288" type="curve"/>
      <point x="140" y="293" type="line"/>
      <point x="159" y="367" type="line"/>
      <point x="194" y="367" type="line" smooth="yes"/>
      <point x="262" y="367"/>
      <point x="307" y="408"/>
      <point x="307" y="472" type="curve" smooth="yes"/>
      <point x="307" y="527"/>
      <point x="268" y="562"/>
      <point x="205" y="562" type="curve" smooth="yes"/>
      <point x="144" y="562"/>
      <point x="107" y="530"/>
      <point x="88" y="461" type="curve"/>
      <point x="53" y="461" type="line"/>
      <point x="84" y="615" type="line"/>
      <point x="142" y="648"/>
      <point x="182" y="660"/>
      <point x="237" y="660" type="curve" smooth="yes"/>
      <point x="342" y="660"/>
      <point x="418" y="601"/>
      <point x="418" y="519" type="curve" smooth="yes"/>
      <point x="418" y="458"/>
      <point x="383" y="413"/>
      <point x="306" y="373" type="curve"/>
      <point x="351" y="368"/>
      <point x="372" y="362"/>
      <point x="397" y="346" type="curve" smooth="yes"/>
      <point x="437" y="319"/>
      <point x="458" y="278"/>
      <point x="458" y="225" type="curve" smooth="yes"/>
      <point x="458" y="91"/>
      <point x="330" y="-17"/>
      <point x="171" y="-17" type="curve" smooth="yes"/>
      <point x="122" y="-17"/>
      <point x="89" y="-11"/>
      <point x="47" y="7" type="curve"/>
      <point x="34" y="87"/>
      <point x="31" y="111"/>
    </contour>
  </outline>
</glyph>
<glyph name="four" format="1">
  <advance width="500"/>
  <unicode hex="0034"/>
  <outline>
    <contour>
      <point x="19" y="165" type="line"/>
      <point x="12" y="204" type="line"/>
      <point x="69" y="346"/>
      <point x="140" y="474"/>
      <point x="257" y="645" type="curve"/>
      <point x="379" y="672" type="line"/>
      <point x="386" y="660" type="line"/>
      <point x="381" y="513"/>
      <point x="380" y="448"/>
      <point x="380" y="372" type="curve" smooth="yes"/>
      <point x="380" y="247" type="line"/>
      <point x="468" y="247" type="line"/>
      <point x="469" y="244" type="line"/>
      <point x="469" y="165" type="line"/>
      <point x="380" y="165" type="line"/>
      <point x="380" y="111" type="line" smooth="yes"/>
      <point x="380" y="65"/>
      <point x="399" y="40"/>
      <point x="437" y="37" type="curve" smooth="yes"/>
      <point x="473" y="34" type="line"/>
      <point x="473" y="-3" type="line"/>
      <point x="334" y="0"/>
      <point x="334" y="0"/>
      <point x="319" y="0" type="curve" smooth="yes"/>
      <point x="307" y="0"/>
      <point x="286" y="0"/>
      <point x="254" y="-1" type="curve" smooth="yes"/>
      <point x="238" y="-1"/>
      <point x="192" y="-2"/>
      <point x="142" y="-3" type="curve"/>
      <point x="142" y="34" type="line"/>
      <point x="206" y="37" type="line" smooth="yes"/>
      <point x="243" y="39"/>
      <point x="263" y="65"/>
      <point x="263" y="111" type="curve" smooth="yes"/>
      <point x="263" y="165" type="line"/>
    </contour>
    <contour>
      <point x="82" y="247" type="curve"/>
      <point x="263" y="247" type="line"/>
      <point x="263" y="579" type="line"/>
      <point x="253" y="564"/>
      <point x="242" y="546"/>
      <point x="230" y="526" type="curve" smooth="yes"/>
      <point x="210" y="493"/>
      <point x="188" y="458"/>
      <point x="188" y="456" type="curve" smooth="yes"/>
      <point x="126" y="340" type="line" smooth="yes"/>
      <point x="121" y="331"/>
      <point x="110" y="309"/>
      <point x="99" y="283" type="curve" smooth="yes"/>
      <point x="90" y="263"/>
      <point x="88" y="259"/>
    </contour>
  </outline>
</glyph>
<glyph name="five" format="1">
  <advance width="500"/>
  <unicode hex="0035"/>
  <outline>
    <contour>
      <point x="149" y="539" type="line"/>
      <point x="145" y="384" type="line"/>
      <point x="202" y="410"/>
      <point x="232" y="418"/>
      <point x="275" y="418" type="curve" smooth="yes"/>
      <point x="396" y="418"/>
      <point x="472" y="348"/>
      <point x="472" y="237" type="curve" smooth="yes"/>
      <point x="472" y="96"/>
      <point x="345" y="-17"/>
      <point x="186" y="-17" type="curve" smooth="yes"/>
      <point x="141" y="-17"/>
      <point x="110" y="-11"/>
      <point x="73" y="5" type="curve"/>
      <point x="67" y="37"/>
      <point x="61" y="62"/>
      <point x="42" y="139" type="curve"/>
      <point x="72" y="157" type="line"/>
      <point x="107" y="80"/>
      <point x="158" y="41"/>
      <point x="227" y="41" type="curve" smooth="yes"/>
      <point x="304" y="41"/>
      <point x="354" y="94"/>
      <point x="354" y="177" type="curve" smooth="yes"/>
      <point x="354" y="261"/>
      <point x="302" y="315"/>
      <point x="221" y="315" type="curve" smooth="yes"/>
      <point x="177" y="315"/>
      <point x="142" y="303"/>
      <point x="109" y="275" type="curve"/>
      <point x="90" y="286" type="line"/>
      <point x="95" y="365"/>
      <point x="96" y="389"/>
      <point x="96" y="410" type="curve" smooth="yes"/>
      <point x="96" y="512" type="line" smooth="yes"/>
      <point x="96" y="546"/>
      <point x="95" y="576"/>
      <point x="90" y="648" type="curve"/>
      <point x="97" y="656" type="line"/>
      <point x="155" y="653"/>
      <point x="176" y="652"/>
      <point x="267" y="650" type="curve"/>
      <point x="444" y="656" type="line"/>
      <point x="448" y="648" type="line"/>
      <point x="443" y="626"/>
      <point x="441" y="612"/>
      <point x="441" y="592" type="curve" smooth="yes"/>
      <point x="441" y="580"/>
      <point x="441" y="566"/>
      <point x="442" y="550" type="curve"/>
      <point x="436" y="539" type="line"/>
      <point x="351" y="541"/>
      <point x="303" y="542"/>
      <point x="293" y="542" type="curve" smooth="yes"/>
    </contour>
  </outline>
</glyph>
<glyph name="seven" format="1">
  <advance width="500"/>
  <unicode hex="0037"/>
  <outline>
    <contour>
      <point x="493" y="653" type="line"/>
      <point x="493" y="608" type="line"/>
      <point x="459" y="554"/>
      <point x="440" y="517"/>
      <point x="400" y="436" type="curve" smooth="yes"/>
      <point x="290" y="212" type="line" smooth="yes"/>
      <point x="264" y="157"/>
      <point x="219" y="46"/>
      <point x="204" y="-3" type="curve"/>
      <point x="196" y="-2"/>
      <point x="188" y="-2"/>
      <point x="185" y="-2" type="curve" smooth="yes"/>
      <point x="168" y="-1"/>
      <point x="156" y="0"/>
      <point x="149" y="0" type="curve" smooth="yes"/>
      <point x="140" y="0"/>
      <point x="140" y="0"/>
      <point x="94" y="-3" type="curve"/>
      <point x="88" y="8" type="line"/>
      <point x="388" y="526" type="line"/>
      <point x="384" y="532" type="line"/>
      <point x="159" y="532" type="line" smooth="yes"/>
      <point x="112" y="532"/>
      <point x="101" y="524"/>
      <point x="96" y="480" type="curve" smooth="yes"/>
      <point x="88" y="416" type="line"/>
      <point x="49" y="416" type="line"/>
      <point x="50" y="494"/>
      <point x="50" y="494"/>
      <point x="50" y="506" type="curve" smooth="yes"/>
      <point x="50" y="554"/>
      <point x="49" y="583"/>
      <point x="46" y="648" type="curve"/>
      <point x="56" y="656" type="line"/>
      <point x="100" y="655"/>
      <point x="141" y="654"/>
      <point x="155" y="654" type="curve" smooth="yes"/>
      <point x="242" y="651"/>
      <point x="298" y="650"/>
      <point x="323" y="650" type="curve" smooth="yes"/>
      <point x="352" y="650" type="line"/>
    </contour>
  </outline>
</glyph>
<glyph name="eight" format="1">
  <advance width="500"/>
  <unicode hex="0038"/>
  <outline>
    <contour>
      <point x="151" y="320" type="curve"/>
      <point x="79" y="362"/>
      <point x="51" y="405"/>
      <point x="51" y="476" type="curve" smooth="yes"/>
      <point x="51" y="587"/>
      <point x="134" y="660"/>
      <point x="260" y="660" type="curve" smooth="yes"/>
      <point x="368" y="660"/>
      <point x="437" y="604"/>
      <point x="437" y="517" type="curve" smooth="yes"/>
      <point x="437" y="461"/>
      <point x="412" y="423"/>
      <point x="343" y="376" type="curve"/>
      <point x="384" y="359"/>
      <point x="402" y="347"/>
      <point x="424" y="322" type="curve" smooth="yes"/>
      <point x="453" y="289"/>
      <point x="467" y="250"/>
      <point x="467" y="203" type="curve" smooth="yes"/>
      <point x="467" y="77"/>
      <point x="367" y="-17"/>
      <point x="234" y="-17" type="curve" smooth="yes"/>
      <point x="116" y="-17"/>
      <point x="34" y="54"/>
      <point x="34" y="155" type="curve" smooth="yes"/>
      <point x="34" y="226"/>
      <point x="72" y="280"/>
    </contour>
    <contour>
      <point x="253" y="275" type="curve" smooth="yes"/>
      <point x="192" y="302" type="line"/>
      <point x="140" y="256"/>
      <point x="123" y="224"/>
      <point x="123" y="171" type="curve" smooth="yes"/>
      <point x="123" y="93"/>
      <point x="176" y="35"/>
      <point x="248" y="35" type="curve" smooth="yes"/>
      <point x="310" y="35"/>
      <point x="357" y="84"/>
      <point x="357" y="150" type="curve" smooth="yes"/>
      <point x="357" y="207"/>
      <point x="327" y="242"/>
    </contour>
    <contour>
      <point x="250" y="412" type="curve" smooth="yes"/>
      <point x="294" y="393" type="line"/>
      <point x="337" y="430"/>
      <point x="353" y="459"/>
      <point x="353" y="501" type="curve" smooth="yes"/>
      <point x="353" y="565"/>
      <point x="311" y="608"/>
      <point x="249" y="608" type="curve" smooth="yes"/>
      <point x="192" y="608"/>
      <point x="154" y="573"/>
      <point x="154" y="519" type="curve" smooth="yes"/>
      <point x="154" y="471"/>
      <point x="180" y="442"/>
    </contour>
  </outline>
</glyph>
<glyph name="nine" format="1">
  <advance width="500"/>
  <unicode hex="0039"/>
  <outline>
    <contour>
      <point x="105" y="-17" type="curve"/>
      <point x="67" y="12" type="line"/>
      <point x="76" y="30" type="line"/>
      <point x="90" y="28"/>
      <point x="101" y="27"/>
      <point x="107" y="27" type="curve" smooth="yes"/>
      <point x="134" y="27"/>
      <point x="180" y="39"/>
      <point x="209" y="55" type="curve" smooth="yes"/>
      <point x="255" y="80"/>
      <point x="291" y="129"/>
      <point x="310" y="193" type="curve" smooth="yes"/>
      <point x="321" y="228"/>
      <point x="325" y="255"/>
      <point x="331" y="315" type="curve"/>
      <point x="268" y="260" type="line" smooth="yes"/>
      <point x="248" y="243"/>
      <point x="228" y="236"/>
      <point x="195" y="236" type="curve" smooth="yes"/>
      <point x="90" y="236"/>
      <point x="31" y="305"/>
      <point x="31" y="427" type="curve" smooth="yes"/>
      <point x="31" y="571"/>
      <point x="114" y="660"/>
      <point x="248" y="660" type="curve" smooth="yes"/>
      <point x="388" y="660"/>
      <point x="463" y="565"/>
      <point x="463" y="390" type="curve" smooth="yes"/>
      <point x="463" y="214"/>
      <point x="380" y="71"/>
      <point x="243" y="11" type="curve" smooth="yes"/>
      <point x="199" y="-9"/>
      <point x="171" y="-14"/>
    </contour>
    <contour>
      <point x="241" y="608" type="curve" smooth="yes"/>
      <point x="183" y="608"/>
      <point x="149" y="559"/>
      <point x="149" y="476" type="curve" smooth="yes"/>
      <point x="149" y="381"/>
      <point x="187" y="323"/>
      <point x="250" y="323" type="curve" smooth="yes"/>
      <point x="309" y="323"/>
      <point x="336" y="361"/>
      <point x="336" y="444" type="curve" smooth="yes"/>
      <point x="336" y="549"/>
      <point x="302" y="608"/>
    </contour>
  </outline>
</glyph>
<glyph name="semicolon" format="1">
  <advance width="250"/>
  <unicode hex="003B"/>
  <outline>
    <contour>
      <point x="80" y="-136" type="curve"/>
      <point x="9" y="-166" type="line"/>
      <point x="-6" y="-153" type="line"/>
      <point x="38" y="-64"/>
      <point x="68" y="32"/>
      <point x="76" y="103" type="curve"/>
      <point x="130" y="117"/>
      <point x="163" y="126"/>
      <point x="210" y="141" type="curve"/>
      <point x="227" y="125" type="line"/>
      <point x="191" y="47"/>
      <point x="158" y="-11"/>
    </contour>
    <contour>
      <point x="149" y="454" type="curve" smooth="yes"/>
      <point x="189" y="454"/>
      <point x="226" y="416"/>
      <point x="226" y="375" type="curve" smooth="yes"/>
      <point x="226" y="334"/>
      <point x="189" y="298"/>
      <point x="147" y="298" type="curve" smooth="yes"/>
      <point x="106" y="298"/>
      <point x="70" y="333"/>
      <point x="70" y="375" type="curve" smooth="yes"/>
      <point x="70" y="417"/>
      <point x="107" y="454"/>
    </contour>
  </outline>
</glyph>
<glyph name="equal" format="1">
  <advance width="606"/>
  <unicode hex="003D"/>
  <outline>
    <contour>
      <point x="555" y="396" type="line"/>
      <point x="555" y="310" type="line"/>
      <point x="51" y="310" type="line"/>
      <point x="51" y="396" type="line"/>
    </contour>
    <contour>
      <point x="555" y="200" type="line"/>
      <point x="555" y="114" type="line"/>
      <point x="51" y="114" type="line"/>
      <point x="51" y="200" type="line"/>
    </contour>
  </outline>
</glyph>
<glyph name="greater" format="1">
  <advance width="606"/>
  <unicode hex="003E"/>
  <outline>
    <contour>
      <point x="437" y="252" type="line"/>
      <point x="49" y="431" type="line"/>
      <point x="49" y="523" type="line"/>
      <point x="558" y="293" type="line"/>
      <point x="558" y="211" type="line"/>
      <point x="49" y="-19" type="line"/>
      <point x="49" y="73" type="line"/>
    </contour>
  </outline>
</glyph>
<glyph name="C" format="1">
  <advance width="722"/>
  <unicode hex="0043"/>
  <outline>
    <contour>
      <point x="692" y="87" type="line"/>
      <point x="670" y="38" type="line"/>
      <point x="596" y="-3"/>
      <point x="537" y="-17"/>
      <point x="445" y="-17" type="curve" smooth="yes"/>
      <point x="198" y="-17"/>
      <point x="44" y="123"/>
      <point x="44" y="347" type="curve" smooth="yes"/>
      <point x="44" y="561"/>
      <point x="202" y="695"/>
      <point x="455" y="695" type="curve" smooth="yes"/>
      <point x="542" y="695"/>
      <point x="598" y="684"/>
      <point x="689" y="648" type="curve"/>
      <point x="695" y="637" type="line"/>
      <point x="686" y="599"/>
      <point x="683" y="580"/>
      <point x="672" y="484" type="curve"/>
      <point x="633" y="484" type="line"/>
      <point x="628" y="570" type="line"/>
      <point x="574" y="620"/>
      <point x="525" y="639"/>
      <point x="450" y="639" type="curve" smooth="yes"/>
      <point x="292" y="639"/>
      <point x="194" y="533"/>
      <point x="194" y="361" type="curve" smooth="yes"/>
      <point x="194" y="172"/>
      <point x="310" y="48"/>
      <point x="485" y="48" type="curve" smooth="yes"/>
      <point x="550" y="48"/>
      <point x="615" y="65"/>
      <point x="680" y="99" type="curve"/>
    </contour>
  </outline>
</glyph>
<glyph name="F" format="1">
  <advance width="556"/>
  <unicode hex="0046"/>
  <outline>
    <contour>
      <point x="254" y="620" type="curve"/>
      <point x="254" y="377" type="line"/>
      <point x="274" y="375"/>
      <point x="288" y="375"/>
      <point x="321" y="375" type="curve" smooth="yes"/>
      <point x="372" y="375" type="line" smooth="yes"/>
      <point x="414" y="375"/>
      <point x="427" y="380"/>
      <point x="429" y="396" type="curve" smooth="yes"/>
      <point x="435" y="449" type="line"/>
      <point x="475" y="449" type="line"/>
      <point x="472" y="371"/>
      <point x="472" y="357"/>
      <point x="472" y="346" type="curve" smooth="yes"/>
      <point x="475" y="238" type="line"/>
      <point x="435" y="238" type="line"/>
      <point x="429" y="288" type="line" smooth="yes"/>
      <point x="426" y="314"/>
      <point x="410" y="325"/>
      <point x="372" y="325" type="curve" smooth="yes"/>
      <point x="321" y="325" type="line" smooth="yes"/>
      <point x="299" y="325"/>
      <point x="282" y="324"/>
      <point x="254" y="322" type="curve"/>
      <point x="254" y="135" type="line" smooth="yes"/>
      <point x="254" y="47"/>
      <point x="256" y="43"/>
      <point x="302" y="40" type="curve" smooth="yes"/>
      <point x="349" y="37" type="line"/>
      <point x="349" y="-3" type="line"/>
      <point x="215" y="0"/>
      <point x="215" y="0"/>
      <point x="183" y="0" type="curve" smooth="yes"/>
      <point x="149" y="0"/>
      <point x="149" y="0"/>
      <point x="28" y="-3" type="curve"/>
      <point x="28" y="37" type="line"/>
      <point x="65" y="40" type="line" smooth="yes"/>
      <point x="112" y="44"/>
      <point x="113" y="46"/>
      <point x="113" y="135" type="curve" smooth="yes"/>
      <point x="113" y="543" type="line" smooth="yes"/>
      <point x="113" y="631"/>
      <point x="110" y="637"/>
      <point x="65" y="641" type="curve" smooth="yes"/>
      <point x="28" y="644" type="line"/>
      <point x="28" y="681" type="line"/>
      <point x="177" y="678"/>
      <point x="177" y="678"/>
      <point x="206" y="678" type="curve" smooth="yes"/>
      <point x="226" y="678"/>
      <point x="251" y="678"/>
      <point x="297" y="679" type="curve" smooth="yes"/>
      <point x="377" y="681"/>
      <point x="415" y="682"/>
      <point x="438" y="682" type="curve" smooth="yes"/>
      <point x="477" y="682"/>
      <point x="495" y="681"/>
      <point x="533" y="678" type="curve"/>
      <point x="539" y="671" type="line"/>
      <point x="525" y="529" type="line"/>
      <point x="489" y="529" type="line"/>
      <point x="481" y="604" type="line" smooth="yes"/>
      <point x="480" y="616"/>
      <point x="437" y="623"/>
      <point x="370" y="623" type="curve" smooth="yes"/>
      <point x="336" y="623"/>
      <point x="303" y="622"/>
    </contour>
  </outline>
</glyph>
<glyph name="K" format="1">
  <advance width="778"/>
  <unicode hex="004B"/>
  <outline>
    <contour>
      <point x="265" y="343" type="line"/>
      <point x="462" y="536" type="line" smooth="yes"/>
      <point x="471" y="545"/>
      <point x="495" y="570"/>
      <point x="520" y="598" type="curve" smooth="yes"/>
      <point x="525" y="603"/>
      <point x="529" y="608"/>
      <point x="530" y="610" type="curve" smooth="yes"/>
      <point x="551" y="632"/>
      <point x="556" y="641"/>
      <point x="556" y="656" type="curve" smooth="yes"/>
      <point x="556" y="681" type="line"/>
      <point x="614" y="679"/>
      <point x="632" y="678"/>
      <point x="647" y="678" type="curve" smooth="yes"/>
      <point x="662" y="678"/>
      <point x="680" y="679"/>
      <point x="738" y="681" type="curve"/>
      <point x="738" y="642" type="line"/>
      <point x="675" y="637"/>
      <point x="652" y="630"/>
      <point x="628" y="608" type="curve" smooth="yes"/>
      <point x="406" y="401" type="line"/>
      <point x="672" y="88" type="line" smooth="yes"/>
      <point x="703" y="52"/>
      <point x="726" y="39"/>
      <point x="763" y="38" type="curve"/>
      <point x="763" y="-3" type="line"/>
      <point x="746" y="-2"/>
      <point x="734" y="-2"/>
      <point x="729" y="-2" type="curve" smooth="yes"/>
      <point x="678" y="0"/>
      <point x="669" y="0"/>
      <point x="662" y="0" type="curve" smooth="yes"/>
      <point x="560" y="-3" type="line"/>
      <point x="352" y="246" type="line" smooth="yes"/>
      <point x="295" y="313"/>
      <point x="291" y="317"/>
      <point x="265" y="332" type="curve"/>
      <point x="265" y="135" type="line" smooth="yes"/>
      <point x="265" y="46"/>
      <point x="266" y="44"/>
      <point x="313" y="40" type="curve" smooth="yes"/>
      <point x="350" y="37" type="line"/>
      <point x="350" y="-3" type="line"/>
      <point x="229" y="0"/>
      <point x="228" y="0"/>
      <point x="194" y="0" type="curve" smooth="yes"/>
      <point x="160" y="0"/>
      <point x="160" y="0"/>
      <point x="39" y="-3" type="curve"/>
      <point x="39" y="37" type="line"/>
      <point x="76" y="40" type="line" smooth="yes"/>
      <point x="123" y="44"/>
      <point x="124" y="46"/>
      <point x="124" y="135" type="curve" smooth="yes"/>
      <point x="124" y="543" type="line" smooth="yes"/>
      <point x="124" y="632"/>
      <point x="123" y="634"/>
      <point x="76" y="638" type="curve" smooth="yes"/>
      <point x="39" y="641" type="line"/>
      <point x="39" y="681" type="line"/>
      <point x="159" y="678"/>
      <point x="160" y="678"/>
      <point x="194" y="678" type="curve" smooth="yes"/>
      <point x="228" y="678"/>
      <point x="228" y="678"/>
      <point x="350" y="681" type="curve"/>
      <point x="350" y="641" type="line"/>
      <point x="313" y="638" type="line" smooth="yes"/>
      <point x="266" y="634"/>
      <point x="265" y="632"/>
      <point x="265" y="543" type="curve" smooth="yes"/>
    </contour>
  </outline>
</glyph>
<glyph name="M" format="1">
  <advance width="1000"/>
  <unicode hex="004D"/>
  <outline>
    <contour>
      <point x="742" y="551" type="line"/>
      <point x="536" y="122" type="line" smooth="yes"/>
      <point x="499" y="46"/>
      <point x="495" y="36"/>
      <point x="476" y="-10" type="curve"/>
      <point x="442" y="-10" type="line"/>
      <point x="424" y="34"/>
      <point x="413" y="58"/>
      <point x="406" y="73" type="curve" smooth="yes"/>
      <point x="176" y="552" type="line"/>
      <point x="176" y="135" type="line" smooth="yes"/>
      <point x="176" y="46"/>
      <point x="179" y="41"/>
      <point x="224" y="37" type="curve" smooth="yes"/>
      <point x="261" y="34" type="line"/>
      <point x="261" y="-3" type="line"/>
      <point x="213" y="-1"/>
      <point x="167" y="0"/>
      <point x="147" y="0" type="curve" smooth="yes"/>
      <point x="128" y="0"/>
      <point x="128" y="0"/>
      <point x="32" y="-3" type="curve"/>
      <point x="32" y="34" type="line"/>
      <point x="69" y="37" type="line" smooth="yes"/>
      <point x="114" y="41"/>
      <point x="117" y="47"/>
      <point x="117" y="135" type="curve" smooth="yes"/>
      <point x="117" y="543" type="line" smooth="yes"/>
      <point x="117" y="631"/>
      <point x="114" y="637"/>
      <point x="69" y="641" type="curve" smooth="yes"/>
      <point x="32" y="644" type="line"/>
      <point x="32" y="681" type="line"/>
      <point x="67" y="680"/>
      <point x="68" y="680"/>
      <point x="83" y="680" type="curve" smooth="yes"/>
      <point x="113" y="679"/>
      <point x="136" y="678"/>
      <point x="152" y="678" type="curve" smooth="yes"/>
      <point x="272" y="681" type="line"/>
      <point x="347" y="520" type="line"/>
      <point x="505" y="190" type="line"/>
      <point x="688" y="568" type="line" smooth="yes"/>
      <point x="699" y="591"/>
      <point x="708" y="612"/>
      <point x="737" y="681" type="curve"/>
      <point x="841" y="678"/>
      <point x="841" y="678"/>
      <point x="852" y="678" type="curve" smooth="yes"/>
      <point x="863" y="678"/>
      <point x="863" y="678"/>
      <point x="968" y="681" type="curve"/>
      <point x="968" y="644" type="line"/>
      <point x="931" y="641" type="line" smooth="yes"/>
      <point x="886" y="637"/>
      <point x="883" y="631"/>
      <point x="883" y="543" type="curve" smooth="yes"/>
      <point x="883" y="135" type="line" smooth="yes"/>
      <point x="883" y="46"/>
      <point x="884" y="44"/>
      <point x="931" y="40" type="curve" smooth="yes"/>
      <point x="968" y="37" type="line"/>
      <point x="968" y="-3" type="line"/>
      <point x="847" y="0"/>
      <point x="846" y="0"/>
      <point x="812" y="0" type="curve" smooth="yes"/>
      <point x="778" y="0"/>
      <point x="778" y="0"/>
      <point x="657" y="-3" type="curve"/>
      <point x="657" y="37" type="line"/>
      <point x="694" y="40" type="line" smooth="yes"/>
      <point x="741" y="44"/>
      <point x="742" y="46"/>
      <point x="742" y="135" type="curve" smooth="yes"/>
    </contour>
  </outline>
</glyph>
<glyph name="N" format="1">
  <advance width="833"/>
  <unicode hex="004E"/>
  <outline>
    <contour>
      <point x="155" y="678" type="line"/>
      <point x="239" y="681" type="line"/>
      <point x="303" y="596"/>
      <point x="321" y="572"/>
      <point x="342" y="548" type="curve" smooth="yes"/>
      <point x="654" y="184" type="line"/>
      <point x="654" y="543" type="line" smooth="yes"/>
      <point x="654" y="631"/>
      <point x="651" y="637"/>
      <point x="606" y="641" type="curve" smooth="yes"/>
      <point x="569" y="644" type="line"/>
      <point x="569" y="681" type="line"/>
      <point x="657" y="678"/>
      <point x="673" y="678"/>
      <point x="684" y="678" type="curve" smooth="yes"/>
      <point x="798" y="681" type="line"/>
      <point x="798" y="644" type="line"/>
      <point x="761" y="641" type="line" smooth="yes"/>
      <point x="716" y="637"/>
      <point x="713" y="631"/>
      <point x="713" y="543" type="curve" smooth="yes"/>
      <point x="713" y="89" type="line" smooth="yes"/>
      <point x="713" y="66"/>
      <point x="714" y="44"/>
      <point x="716" y="-12" type="curve"/>
      <point x="709" y="-16" type="line"/>
      <point x="627" y="-3" type="line"/>
      <point x="505" y="136" type="line"/>
      <point x="179" y="528" type="line"/>
      <point x="179" y="135" type="line" smooth="yes"/>
      <point x="179" y="46"/>
      <point x="182" y="41"/>
      <point x="227" y="37" type="curve" smooth="yes"/>
      <point x="264" y="34" type="line"/>
      <point x="264" y="-3" type="line"/>
      <point x="216" y="-1"/>
      <point x="170" y="0"/>
      <point x="150" y="0" type="curve" smooth="yes"/>
      <point x="131" y="0"/>
      <point x="131" y="0"/>
      <point x="35" y="-3" type="curve"/>
      <point x="35" y="34" type="line"/>
      <point x="72" y="37" type="line" smooth="yes"/>
      <point x="117" y="41"/>
      <point x="120" y="47"/>
      <point x="120" y="135" type="curve" smooth="yes"/>
      <point x="120" y="543" type="line" smooth="yes"/>
      <point x="120" y="631"/>
      <point x="117" y="637"/>
      <point x="72" y="641" type="curve" smooth="yes"/>
      <point x="35" y="644" type="line"/>
      <point x="35" y="681" type="line"/>
      <point x="92" y="679"/>
      <point x="125" y="678"/>
      <point x="134" y="678" type="curve" smooth="yes"/>
    </contour>
  </outline>
</glyph>
<glyph name="P" format="1">
  <advance width="611"/>
  <unicode hex="0050"/>
  <outline>
    <contour>
      <point x="311" y="326" type="curve"/>
      <point x="294" y="361" type="line"/>
      <point x="304" y="371" type="line"/>
      <point x="308" y="370"/>
      <point x="311" y="370"/>
      <point x="312" y="370" type="curve" smooth="yes"/>
      <point x="338" y="365"/>
      <point x="339" y="365"/>
      <point x="347" y="365" type="curve" smooth="yes"/>
      <point x="410" y="365"/>
      <point x="450" y="417"/>
      <point x="450" y="497" type="curve" smooth="yes"/>
      <point x="450" y="586"/>
      <point x="408" y="631"/>
      <point x="325" y="631" type="curve" smooth="yes"/>
      <point x="298" y="631"/>
      <point x="280" y="628"/>
      <point x="265" y="622" type="curve"/>
      <point x="265" y="135" type="line" smooth="yes"/>
      <point x="265" y="47"/>
      <point x="267" y="43"/>
      <point x="313" y="40" type="curve" smooth="yes"/>
      <point x="360" y="37" type="line"/>
      <point x="360" y="-3" type="line"/>
      <point x="226" y="0"/>
      <point x="226" y="0"/>
      <point x="195" y="0" type="curve" smooth="yes"/>
      <point x="160" y="0"/>
      <point x="160" y="0"/>
      <point x="39" y="-3" type="curve"/>
      <point x="39" y="37" type="line"/>
      <point x="76" y="40" type="line" smooth="yes"/>
      <point x="123" y="44"/>
      <point x="124" y="46"/>
      <point x="124" y="135" type="curve" smooth="yes"/>
      <point x="124" y="543" type="line" smooth="yes"/>
      <point x="124" y="631"/>
      <point x="121" y="637"/>
      <point x="76" y="641" type="curve" smooth="yes"/>
      <point x="39" y="644" type="line"/>
      <point x="39" y="681" type="line"/>
      <point x="191" y="678"/>
      <point x="191" y="678"/>
      <point x="212" y="678" type="curve" smooth="yes"/>
      <point x="223" y="678"/>
      <point x="284" y="679"/>
      <point x="393" y="681" type="curve"/>
      <point x="405" y="681" type="line" smooth="yes"/>
      <point x="531" y="681"/>
      <point x="594" y="631"/>
      <point x="594" y="531" type="curve" smooth="yes"/>
      <point x="594" y="410"/>
      <point x="498" y="319"/>
      <point x="369" y="319" type="curve" smooth="yes"/>
      <point x="355" y="319"/>
      <point x="350" y="320"/>
      <point x="326" y="323" type="curve" smooth="yes"/>
      <point x="323" y="324"/>
      <point x="322" y="324"/>
    </contour>
  </outline>
</glyph>
<glyph name="R" format="1">
  <advance width="722"/>
  <unicode hex="0052"/>
  <outline>
    <contour>
      <point x="457" y="356" type="curve"/>
      <point x="638" y="82" type="line"/>
      <point x="662" y="50"/>
      <point x="672" y="44"/>
      <point x="708" y="37" type="curve"/>
      <point x="708" y="-3" type="line"/>
      <point x="671" y="-1"/>
      <point x="662" y="-1"/>
      <point x="611" y="0" type="curve"/>
      <point x="521" y="-3" type="line"/>
      <point x="297" y="344" type="line"/>
      <point x="304" y="362" type="line"/>
      <point x="348" y="361"/>
      <point x="373" y="366"/>
      <point x="398" y="381" type="curve" smooth="yes"/>
      <point x="439" y="405"/>
      <point x="464" y="450"/>
      <point x="464" y="503" type="curve" smooth="yes"/>
      <point x="464" y="584"/>
      <point x="413" y="631"/>
      <point x="324" y="631" type="curve" smooth="yes"/>
      <point x="298" y="631"/>
      <point x="279" y="628"/>
      <point x="265" y="622" type="curve"/>
      <point x="265" y="135" type="line" smooth="yes"/>
      <point x="265" y="46"/>
      <point x="266" y="44"/>
      <point x="313" y="40" type="curve" smooth="yes"/>
      <point x="350" y="37" type="line"/>
      <point x="350" y="-3" type="line"/>
      <point x="229" y="0"/>
      <point x="228" y="0"/>
      <point x="194" y="0" type="curve" smooth="yes"/>
      <point x="160" y="0"/>
      <point x="160" y="0"/>
      <point x="39" y="-3" type="curve"/>
      <point x="39" y="37" type="line"/>
      <point x="76" y="40" type="line" smooth="yes"/>
      <point x="123" y="44"/>
      <point x="124" y="46"/>
      <point x="124" y="135" type="curve" smooth="yes"/>
      <point x="124" y="543" type="line" smooth="yes"/>
      <point x="124" y="631"/>
      <point x="121" y="637"/>
      <point x="76" y="641" type="curve" smooth="yes"/>
      <point x="39" y="644" type="line"/>
      <point x="39" y="681" type="line"/>
      <point x="189" y="678"/>
      <point x="189" y="678"/>
      <point x="217" y="678" type="curve" smooth="yes"/>
      <point x="239" y="678"/>
      <point x="321" y="679"/>
      <point x="347" y="680" type="curve" smooth="yes"/>
      <point x="381" y="681"/>
      <point x="405" y="681"/>
      <point x="416" y="681" type="curve" smooth="yes"/>
      <point x="542" y="681"/>
      <point x="606" y="631"/>
      <point x="606" y="534" type="curve" smooth="yes"/>
      <point x="606" y="492"/>
      <point x="592" y="455"/>
      <point x="563" y="424" type="curve"/>
      <point x="537" y="394"/>
      <point x="513" y="379"/>
    </contour>
  </outline>
</glyph>
<glyph name="V" format="1">
  <advance width="778"/>
  <unicode hex="0056"/>
  <outline>
    <contour>
      <point x="340" y="644" type="line"/>
      <point x="290" y="641" type="line" smooth="yes"/>
      <point x="276" y="640"/>
      <point x="264" y="631"/>
      <point x="264" y="622" type="curve" smooth="yes"/>
      <point x="264" y="604"/>
      <point x="265" y="601"/>
      <point x="285" y="550" type="curve" smooth="yes"/>
      <point x="442" y="163" type="line"/>
      <point x="584" y="516" type="line" smooth="yes"/>
      <point x="605" y="569"/>
      <point x="615" y="600"/>
      <point x="615" y="615" type="curve" smooth="yes"/>
      <point x="615" y="630"/>
      <point x="601" y="639"/>
      <point x="578" y="641" type="curve" smooth="yes"/>
      <point x="532" y="644" type="line"/>
      <point x="532" y="681" type="line"/>
      <point x="558" y="680"/>
      <point x="583" y="680"/>
      <point x="591" y="679" type="curve" smooth="yes"/>
      <point x="619" y="678"/>
      <point x="637" y="678"/>
      <point x="647" y="678" type="curve" smooth="yes"/>
      <point x="657" y="678"/>
      <point x="657" y="678"/>
      <point x="763" y="681" type="curve"/>
      <point x="763" y="644" type="line"/>
      <point x="731" y="641" type="line" smooth="yes"/>
      <point x="710" y="639"/>
      <point x="697" y="626"/>
      <point x="684" y="594" type="curve" smooth="yes"/>
      <point x="476" y="96" type="line" smooth="yes"/>
      <point x="472" y="87"/>
      <point x="469" y="79"/>
      <point x="468" y="75" type="curve"/>
      <point x="466" y="72"/>
      <point x="462" y="61"/>
      <point x="457" y="46" type="curve" smooth="yes"/>
      <point x="452" y="34"/>
      <point x="448" y="23"/>
      <point x="438" y="-3" type="curve"/>
      <point x="362" y="-3" type="line"/>
      <point x="123" y="569" type="line" smooth="yes"/>
      <point x="101" y="620"/>
      <point x="86" y="638"/>
      <point x="61" y="641" type="curve"/>
      <point x="20" y="644" type="line"/>
      <point x="20" y="681" type="line"/>
      <point x="164" y="678"/>
      <point x="164" y="678"/>
      <point x="178" y="678" type="curve" smooth="yes"/>
      <point x="191" y="678"/>
      <point x="214" y="678"/>
      <point x="248" y="679" type="curve" smooth="yes"/>
      <point x="259" y="680"/>
      <point x="298" y="680"/>
      <point x="340" y="681" type="curve"/>
    </contour>
  </outline>
</glyph>
<glyph name="bracketright" format="1">
  <advance width="333"/>
  <unicode hex="005D"/>
  <outline>
    <contour>
      <point x="42" y="720" type="line"/>
      <point x="96" y="718" type="line" smooth="yes"/>
      <point x="114" y="717"/>
      <point x="129" y="717"/>
      <point x="140" y="717" type="curve" smooth="yes"/>
      <point x="149" y="717"/>
      <point x="167" y="717"/>
      <point x="191" y="718" type="curve" smooth="yes"/>
      <point x="200" y="719"/>
      <point x="228" y="719"/>
      <point x="260" y="720" type="curve"/>
      <point x="258" y="644"/>
      <point x="257" y="594"/>
      <point x="257" y="566" type="curve" smooth="yes"/>
      <point x="255" y="488"/>
      <point x="254" y="433"/>
      <point x="254" y="407" type="curve" smooth="yes"/>
      <point x="254" y="188" type="line" smooth="yes"/>
      <point x="254" y="170"/>
      <point x="255" y="116"/>
      <point x="257" y="39" type="curve" smooth="yes"/>
      <point x="258" y="18"/>
      <point x="259" y="-38"/>
      <point x="260" y="-104" type="curve"/>
      <point x="229" y="-103"/>
      <point x="200" y="-103"/>
      <point x="191" y="-102" type="curve" smooth="yes"/>
      <point x="167" y="-101"/>
      <point x="150" y="-101"/>
      <point x="141" y="-101" type="curve" smooth="yes"/>
      <point x="128" y="-101"/>
      <point x="105" y="-102"/>
      <point x="42" y="-104" type="curve"/>
      <point x="42" y="-66" type="line"/>
      <point x="91" y="-66" type="line" smooth="yes"/>
      <point x="116" y="-66"/>
      <point x="141" y="-55"/>
      <point x="149" y="-41" type="curve" smooth="yes"/>
      <point x="154" y="-33"/>
      <point x="154" y="-28"/>
      <point x="154" y="48" type="curve" smooth="yes"/>
      <point x="154" y="561" type="line" smooth="yes"/>
      <point x="154" y="641"/>
      <point x="153" y="653"/>
      <point x="146" y="661" type="curve" smooth="yes"/>
      <point x="134" y="674"/>
      <point x="113" y="682"/>
      <point x="91" y="682" type="curve" smooth="yes"/>
      <point x="42" y="682" type="line"/>
    </contour>
  </outline>
</glyph>
<glyph name="grave" format="1">
  <advance width="333"/>
  <unicode hex="0060"/>
  <outline>
    <contour>
      <point x="200" y="506" type="line"/>
      <point x="69" y="587" type="line" smooth="yes"/>
      <point x="65" y="589"/>
      <point x="62" y="591"/>
      <point x="58" y="594" type="curve" smooth="yes"/>
      <point x="28" y="611"/>
      <point x="18" y="625"/>
      <point x="18" y="647" type="curve" smooth="yes"/>
      <point x="18" y="674"/>
      <point x="35" y="691"/>
      <point x="62" y="691" type="curve" smooth="yes"/>
      <point x="85" y="691"/>
      <point x="104" y="680"/>
      <point x="127" y="654" type="curve" smooth="yes"/>
      <point x="256" y="506" type="line"/>
    </contour>
  </outline>
</glyph>
<glyph name="b" format="1">
  <advance width="611"/>
  <unicode hex="0062"/>
  <outline>
    <contour>
      <point x="211" y="714" type="line"/>
      <point x="211" y="383" type="line"/>
      <point x="272" y="432" type="line" smooth="yes"/>
      <point x="307" y="460"/>
      <point x="336" y="471"/>
      <point x="375" y="471" type="curve" smooth="yes"/>
      <point x="481" y="471"/>
      <point x="556" y="392"/>
      <point x="556" y="281" type="curve" smooth="yes"/>
      <point x="556" y="204"/>
      <point x="523" y="127"/>
      <point x="473" y="86" type="curve" smooth="yes"/>
      <point x="445" y="63"/>
      <point x="399" y="32"/>
      <point x="359" y="8" type="curve" smooth="yes"/>
      <point x="330" y="-9"/>
      <point x="303" y="-17"/>
      <point x="272" y="-17" type="curve" smooth="yes"/>
      <point x="229" y="-17"/>
      <point x="187" y="-5"/>
      <point x="141" y="20" type="curve"/>
      <point x="102" y="-12" type="line"/>
      <point x="80" y="-4" type="line"/>
      <point x="86" y="49"/>
      <point x="89" y="109"/>
      <point x="89" y="162" type="curve" smooth="yes"/>
      <point x="89" y="568" type="line" smooth="yes"/>
      <point x="89" y="627"/>
      <point x="85" y="637"/>
      <point x="63" y="638" type="curve" smooth="yes"/>
      <point x="10" y="641" type="line"/>
      <point x="10" y="677" type="line"/>
      <point x="68" y="683"/>
      <point x="102" y="689"/>
      <point x="131" y="698" type="curve" smooth="yes"/>
      <point x="203" y="720" type="line"/>
    </contour>
    <contour>
      <point x="211" y="331" type="curve"/>
      <point x="211" y="106" type="line"/>
      <point x="238" y="68"/>
      <point x="270" y="51"/>
      <point x="312" y="51" type="curve" smooth="yes"/>
      <point x="385" y="51"/>
      <point x="430" y="117"/>
      <point x="430" y="221" type="curve" smooth="yes"/>
      <point x="430" y="321"/>
      <point x="384" y="381"/>
      <point x="307" y="381" type="curve" smooth="yes"/>
      <point x="266" y="381"/>
      <point x="233" y="364"/>
    </contour>
  </outline>
</glyph>
<glyph name="d" format="1">
  <advance width="611"/>
  <unicode hex="0064"/>
  <outline>
    <contour>
      <point x="508" y="714" type="line"/>
      <point x="508" y="100" type="line" smooth="yes"/>
      <point x="508" y="46"/>
      <point x="513" y="38"/>
      <point x="544" y="36" type="curve" smooth="yes"/>
      <point x="577" y="34" type="line"/>
      <point x="577" y="-3" type="line"/>
      <point x="556" y="-2"/>
      <point x="537" y="-2"/>
      <point x="530" y="-2" type="curve" smooth="yes"/>
      <point x="502" y="-1"/>
      <point x="484" y="0"/>
      <point x="476" y="0" type="curve" smooth="yes"/>
      <point x="465" y="0"/>
      <point x="446" y="-1"/>
      <point x="386" y="-3" type="curve"/>
      <point x="381" y="5" type="line"/>
      <point x="386" y="80" type="line"/>
      <point x="282" y="-5" type="line" smooth="yes"/>
      <point x="272" y="-13"/>
      <point x="256" y="-17"/>
      <point x="233" y="-17" type="curve" smooth="yes"/>
      <point x="116" y="-17"/>
      <point x="42" y="74"/>
      <point x="42" y="217" type="curve" smooth="yes"/>
      <point x="42" y="303"/>
      <point x="69" y="360"/>
      <point x="126" y="398" type="curve" smooth="yes"/>
      <point x="198" y="445" type="line" smooth="yes"/>
      <point x="225" y="462"/>
      <point x="254" y="471"/>
      <point x="286" y="471" type="curve" smooth="yes"/>
      <point x="311" y="471"/>
      <point x="338" y="465"/>
      <point x="366" y="454" type="curve" smooth="yes"/>
      <point x="386" y="446" type="line"/>
      <point x="386" y="568" type="line" smooth="yes"/>
      <point x="386" y="627"/>
      <point x="382" y="637"/>
      <point x="360" y="638" type="curve" smooth="yes"/>
      <point x="307" y="641" type="line"/>
      <point x="307" y="677" type="line"/>
      <point x="365" y="683"/>
      <point x="399" y="689"/>
      <point x="428" y="698" type="curve" smooth="yes"/>
      <point x="500" y="720" type="line"/>
    </contour>
    <contour>
      <point x="386" y="160" type="curve" smooth="yes"/>
      <point x="386" y="344" type="line"/>
      <point x="353" y="387"/>
      <point x="317" y="407"/>
      <point x="274" y="407" type="curve" smooth="yes"/>
      <point x="203" y="407"/>
      <point x="168" y="356"/>
      <point x="168" y="255" type="curve" smooth="yes"/>
      <point x="168" y="147"/>
      <point x="213" y="78"/>
      <point x="284" y="78" type="curve" smooth="yes"/>
      <point x="339" y="78"/>
      <point x="386" y="115"/>
    </contour>
  </outline>
</glyph>
<glyph name="e" format="1">
  <advance width="500"/>
  <unicode hex="0065"/>
  <outline>
    <contour>
      <point x="461" y="295" type="curve" smooth="yes"/>
      <point x="461" y="243" type="line"/>
      <point x="405" y="229"/>
      <point x="360" y="223"/>
      <point x="303" y="223" type="curve" smooth="yes"/>
      <point x="172" y="223" type="line"/>
      <point x="174" y="176"/>
      <point x="180" y="153"/>
      <point x="196" y="125" type="curve" smooth="yes"/>
      <point x="221" y="82"/>
      <point x="270" y="54"/>
      <point x="322" y="54" type="curve" smooth="yes"/>
      <point x="362" y="54"/>
      <point x="392" y="63"/>
      <point x="439" y="89" type="curve"/>
      <point x="451" y="74" type="line"/>
      <point x="429" y="26" type="line"/>
      <point x="365" y="-7"/>
      <point x="328" y="-17"/>
      <point x="271" y="-17" type="curve" smooth="yes"/>
      <point x="122" y="-17"/>
      <point x="42" y="67"/>
      <point x="42" y="226" type="curve" smooth="yes"/>
      <point x="42" y="321"/>
      <point x="71" y="381"/>
      <point x="137" y="420" type="curve" smooth="yes"/>
      <point x="184" y="448" type="line" smooth="yes"/>
      <point x="211" y="464"/>
      <point x="237" y="471"/>
      <point x="272" y="471" type="curve" smooth="yes"/>
      <point x="386" y="471"/>
      <point x="461" y="402"/>
    </contour>
    <contour>
      <point x="250" y="273" type="line"/>
      <point x="334" y="276" type="line"/>
      <point x="332" y="375"/>
      <point x="308" y="415"/>
      <point x="251" y="415" type="curve" smooth="yes"/>
      <point x="193" y="415"/>
      <point x="169" y="375"/>
      <point x="166" y="276" type="curve"/>
      <point x="198" y="275" type="line" smooth="yes"/>
      <point x="213" y="274"/>
      <point x="240" y="273"/>
      <point x="246" y="273" type="curve" smooth="yes"/>
    </contour>
  </outline>
</glyph>
<glyph name="i" format="1">
  <advance width="333"/>
  <unicode hex="0069"/>
  <outline>
    <contour>
      <point x="217" y="471" type="line"/>
      <point x="227" y="465" type="line"/>
      <point x="227" y="100" type="line" smooth="yes"/>
      <point x="227" y="46"/>
      <point x="232" y="38"/>
      <point x="263" y="36" type="curve" smooth="yes"/>
      <point x="298" y="34" type="line"/>
      <point x="298" y="-3" type="line"/>
      <point x="231" y="-1"/>
      <point x="183" y="0"/>
      <point x="163" y="0" type="curve" smooth="yes"/>
      <point x="34" y="-3" type="line"/>
      <point x="34" y="34" type="line"/>
      <point x="69" y="36" type="line" smooth="yes"/>
      <point x="100" y="38"/>
      <point x="105" y="46"/>
      <point x="105" y="100" type="curve" smooth="yes"/>
      <point x="105" y="319" type="line" smooth="yes"/>
      <point x="105" y="378"/>
      <point x="102" y="387"/>
      <point x="79" y="389" type="curve" smooth="yes"/>
      <point x="34" y="392" type="line"/>
      <point x="34" y="428" type="line"/>
      <point x="41" y="429"/>
      <point x="46" y="430"/>
      <point x="49" y="430" type="curve" smooth="yes"/>
      <point x="91" y="435"/>
      <point x="115" y="439"/>
      <point x="147" y="449" type="curve" smooth="yes"/>
    </contour>
    <contour>
      <point x="163" y="706" type="curve" smooth="yes"/>
      <point x="204" y="706"/>
      <point x="237" y="672"/>
      <point x="237" y="631" type="curve" smooth="yes"/>
      <point x="237" y="590"/>
      <point x="203" y="556"/>
      <point x="162" y="556" type="curve" smooth="yes"/>
      <point x="120" y="556"/>
      <point x="87" y="590"/>
      <point x="87" y="632" type="curve" smooth="yes"/>
      <point x="87" y="674"/>
      <point x="120" y="706"/>
    </contour>
  </outline>
</glyph>
<glyph name="j" format="1">
  <advance width="333"/>
  <unicode hex="006A"/>
  <outline>
    <contour>
      <point x="7" y="-223" type="line"/>
      <point x="30" y="-223" type="line" smooth="yes"/>
      <point x="84" y="-223"/>
      <point x="105" y="-170"/>
      <point x="105" y="-38" type="curve" smooth="yes"/>
      <point x="105" y="319" type="line" smooth="yes"/>
      <point x="105" y="378"/>
      <point x="102" y="387"/>
      <point x="79" y="389" type="curve" smooth="yes"/>
      <point x="34" y="392" type="line"/>
      <point x="34" y="428" type="line"/>
      <point x="52" y="430" type="line" smooth="yes"/>
      <point x="90" y="435"/>
      <point x="121" y="441"/>
      <point x="147" y="449" type="curve" smooth="yes"/>
      <point x="217" y="471" type="line"/>
      <point x="227" y="465" type="line"/>
      <point x="227" y="98" type="line" smooth="yes"/>
      <point x="227" y="-55"/>
      <point x="214" y="-123"/>
      <point x="175" y="-181" type="curve" smooth="yes"/>
      <point x="139" y="-235"/>
      <point x="91" y="-266"/>
      <point x="45" y="-266" type="curve" smooth="yes"/>
      <point x="42" y="-266"/>
      <point x="29" y="-265"/>
      <point x="13" y="-264" type="curve"/>
      <point x="3" y="-229" type="line"/>
    </contour>
    <contour>
      <point x="167" y="706" type="curve" smooth="yes"/>
      <point x="208" y="706"/>
      <point x="241" y="672"/>
      <point x="241" y="631" type="curve" smooth="yes"/>
      <point x="241" y="590"/>
      <point x="207" y="556"/>
      <point x="166" y="556" type="curve" smooth="yes"/>
      <point x="124" y="556"/>
      <point x="91" y="590"/>
      <point x="91" y="632" type="curve" smooth="yes"/>
      <point x="91" y="674"/>
      <point x="124" y="706"/>
    </contour>
  </outline>
</glyph>
<glyph name="l" format="1">
  <advance width="333"/>
  <unicode hex="006C"/>
  <outline>
    <contour>
      <point x="217" y="720" type="line"/>
      <point x="225" y="714" type="line"/>
      <point x="225" y="100" type="line" smooth="yes"/>
      <point x="225" y="46"/>
      <point x="230" y="38"/>
      <point x="261" y="36" type="curve" smooth="yes"/>
      <point x="296" y="34" type="line"/>
      <point x="296" y="-3" type="line"/>
      <point x="229" y="-1"/>
      <point x="181" y="0"/>
      <point x="161" y="0" type="curve" smooth="yes"/>
      <point x="32" y="-3" type="line"/>
      <point x="32" y="34" type="line"/>
      <point x="67" y="36" type="line" smooth="yes"/>
      <point x="98" y="38"/>
      <point x="103" y="46"/>
      <point x="103" y="100" type="curve" smooth="yes"/>
      <point x="103" y="568" type="line" smooth="yes"/>
      <point x="103" y="627"/>
      <point x="99" y="637"/>
      <point x="77" y="638" type="curve" smooth="yes"/>
      <point x="24" y="641" type="line"/>
      <point x="24" y="677" type="line"/>
      <point x="82" y="683"/>
      <point x="116" y="689"/>
      <point x="145" y="698" type="curve" smooth="yes"/>
    </contour>
  </outline>
</glyph>
<glyph name="m" format="1">
  <advance width="889"/>
  <unicode hex="006D"/>
  <outline>
    <contour>
      <point x="24" y="392" type="line"/>
      <point x="24" y="428" type="line"/>
      <point x="79" y="431"/>
      <point x="107" y="437"/>
      <point x="211" y="471" type="curve"/>
      <point x="217" y="465" type="line"/>
      <point x="217" y="390" type="line"/>
      <point x="297" y="452" type="line" smooth="yes"/>
      <point x="314" y="465"/>
      <point x="336" y="471"/>
      <point x="368" y="471" type="curve" smooth="yes"/>
      <point x="437" y="471"/>
      <point x="477" y="447"/>
      <point x="500" y="390" type="curve"/>
      <point x="580" y="452" type="line" smooth="yes"/>
      <point x="597" y="465"/>
      <point x="619" y="471"/>
      <point x="652" y="471" type="curve" smooth="yes"/>
      <point x="759" y="471"/>
      <point x="795" y="424"/>
      <point x="795" y="286" type="curve" smooth="yes"/>
      <point x="795" y="100" type="line" smooth="yes"/>
      <point x="795" y="46"/>
      <point x="800" y="38"/>
      <point x="831" y="36" type="curve" smooth="yes"/>
      <point x="864" y="34" type="line"/>
      <point x="864" y="-3" type="line"/>
      <point x="823" y="-1"/>
      <point x="816" y="-1"/>
      <point x="766" y="0" type="curve"/>
      <point x="673" y="-3" type="line"/>
      <point x="673" y="269" type="line" smooth="yes"/>
      <point x="673" y="347"/>
      <point x="645" y="385"/>
      <point x="587" y="385" type="curve" smooth="yes"/>
      <point x="547" y="385"/>
      <point x="506" y="350"/>
      <point x="506" y="317" type="curve" smooth="yes"/>
      <point x="506" y="100" type="line" smooth="yes"/>
      <point x="506" y="46"/>
      <point x="511" y="38"/>
      <point x="542" y="36" type="curve" smooth="yes"/>
      <point x="577" y="34" type="line"/>
      <point x="577" y="-3" type="line"/>
      <point x="470" y="0"/>
      <point x="470" y="0"/>
      <point x="446" y="0" type="curve" smooth="yes"/>
      <point x="421" y="0"/>
      <point x="421" y="0"/>
      <point x="317" y="-3" type="curve"/>
      <point x="317" y="34" type="line"/>
      <point x="348" y="36" type="line" smooth="yes"/>
      <point x="380" y="38"/>
      <point x="384" y="46"/>
      <point x="384" y="100" type="curve" smooth="yes"/>
      <point x="384" y="269" type="line" smooth="yes"/>
      <point x="384" y="347"/>
      <point x="356" y="385"/>
      <point x="298" y="385" type="curve" smooth="yes"/>
      <point x="258" y="385"/>
      <point x="217" y="350"/>
      <point x="217" y="317" type="curve" smooth="yes"/>
      <point x="217" y="100" type="line" smooth="yes"/>
      <point x="217" y="46"/>
      <point x="221" y="38"/>
      <point x="253" y="36" type="curve" smooth="yes"/>
      <point x="280" y="34" type="line"/>
      <point x="280" y="-3" type="line"/>
      <point x="219" y="-1"/>
      <point x="176" y="0"/>
      <point x="153" y="0" type="curve" smooth="yes"/>
      <point x="24" y="-3" type="line"/>
      <point x="24" y="34" type="line"/>
      <point x="59" y="36" type="line" smooth="yes"/>
      <point x="90" y="38"/>
      <point x="95" y="46"/>
      <point x="95" y="100" type="curve" smooth="yes"/>
      <point x="95" y="319" type="line" smooth="yes"/>
      <point x="95" y="378"/>
      <point x="92" y="387"/>
      <point x="69" y="389" type="curve" smooth="yes"/>
    </contour>
  </outline>
</glyph>
<glyph name="p" format="1">
  <advance width="611"/>
  <unicode hex="0070"/>
  <outline>
    <contour>
      <point x="212" y="471" type="line"/>
      <point x="222" y="465" type="line"/>
      <point x="222" y="383" type="line"/>
      <point x="283" y="432" type="line" smooth="yes"/>
      <point x="318" y="460"/>
      <point x="347" y="471"/>
      <point x="386" y="471" type="curve" smooth="yes"/>
      <point x="490" y="471"/>
      <point x="567" y="392"/>
      <point x="567" y="286" type="curve" smooth="yes"/>
      <point x="567" y="196"/>
      <point x="531" y="118"/>
      <point x="465" y="68" type="curve" smooth="yes"/>
      <point x="460" y="64"/>
      <point x="454" y="59"/>
      <point x="448" y="55" type="curve" smooth="yes"/>
      <point x="380" y="1"/>
      <point x="345" y="-17"/>
      <point x="311" y="-17" type="curve" smooth="yes"/>
      <point x="287" y="-17"/>
      <point x="271" y="-14"/>
      <point x="222" y="0" type="curve"/>
      <point x="222" y="-155" type="line" smooth="yes"/>
      <point x="222" y="-209"/>
      <point x="227" y="-218"/>
      <point x="258" y="-219" type="curve" smooth="yes"/>
      <point x="303" y="-221" type="line"/>
      <point x="303" y="-258" type="line"/>
      <point x="173" y="-255"/>
      <point x="171" y="-255"/>
      <point x="158" y="-255" type="curve" smooth="yes"/>
      <point x="29" y="-258" type="line"/>
      <point x="29" y="-221" type="line"/>
      <point x="64" y="-219" type="line" smooth="yes"/>
      <point x="95" y="-217"/>
      <point x="100" y="-209"/>
      <point x="100" y="-155" type="curve" smooth="yes"/>
      <point x="100" y="319" type="line" smooth="yes"/>
      <point x="100" y="378"/>
      <point x="97" y="387"/>
      <point x="74" y="389" type="curve" smooth="yes"/>
      <point x="29" y="392" type="line"/>
      <point x="29" y="428" type="line"/>
      <point x="40" y="429" type="line"/>
      <point x="91" y="436"/>
      <point x="108" y="439"/>
      <point x="142" y="449" type="curve" smooth="yes"/>
    </contour>
    <contour>
      <point x="222" y="331" type="curve"/>
      <point x="222" y="106" type="line"/>
      <point x="249" y="68"/>
      <point x="281" y="51"/>
      <point x="323" y="51" type="curve" smooth="yes"/>
      <point x="396" y="51"/>
      <point x="441" y="117"/>
      <point x="441" y="221" type="curve" smooth="yes"/>
      <point x="441" y="321"/>
      <point x="395" y="381"/>
      <point x="318" y="381" type="curve" smooth="yes"/>
      <point x="277" y="381"/>
      <point x="244" y="364"/>
    </contour>
  </outline>
</glyph>
<glyph name="q" format="1">
  <advance width="611"/>
  <unicode hex="0071"/>
  <outline>
    <contour>
      <point x="396" y="75" type="line"/>
      <point x="300" y="-2" type="line" smooth="yes"/>
      <point x="288" y="-12"/>
      <point x="267" y="-17"/>
      <point x="240" y="-17" type="curve" smooth="yes"/>
      <point x="124" y="-17"/>
      <point x="52" y="71"/>
      <point x="52" y="212" type="curve" smooth="yes"/>
      <point x="52" y="311"/>
      <point x="82" y="362"/>
      <point x="169" y="411" type="curve" smooth="yes"/>
      <point x="249" y="456"/>
      <point x="288" y="471"/>
      <point x="323" y="471" type="curve" smooth="yes"/>
      <point x="353" y="471"/>
      <point x="396" y="458"/>
      <point x="439" y="437" type="curve" smooth="yes"/>
      <point x="461" y="426" type="line"/>
      <point x="513" y="468" type="line"/>
      <point x="534" y="454" type="line"/>
      <point x="522" y="395"/>
      <point x="518" y="362"/>
      <point x="518" y="324" type="curve" smooth="yes"/>
      <point x="518" y="-155" type="line" smooth="yes"/>
      <point x="518" y="-209"/>
      <point x="523" y="-217"/>
      <point x="554" y="-219" type="curve" smooth="yes"/>
      <point x="589" y="-221" type="line"/>
      <point x="589" y="-258" type="line"/>
      <point x="522" y="-256"/>
      <point x="474" y="-255"/>
      <point x="454" y="-255" type="curve" smooth="yes"/>
      <point x="325" y="-258" type="line"/>
      <point x="325" y="-221" type="line"/>
      <point x="360" y="-219" type="line" smooth="yes"/>
      <point x="391" y="-217"/>
      <point x="396" y="-209"/>
      <point x="396" y="-155" type="curve" smooth="yes"/>
    </contour>
    <contour>
      <point x="396" y="160" type="curve" smooth="yes"/>
      <point x="396" y="344" type="line"/>
      <point x="363" y="387"/>
      <point x="327" y="407"/>
      <point x="284" y="407" type="curve" smooth="yes"/>
      <point x="213" y="407"/>
      <point x="178" y="356"/>
      <point x="178" y="255" type="curve" smooth="yes"/>
      <point x="178" y="147"/>
      <point x="223" y="78"/>
      <point x="294" y="78" type="curve" smooth="yes"/>
      <point x="349" y="78"/>
      <point x="396" y="115"/>
    </contour>
  </outline>
</glyph>
<glyph name="t" format="1">
  <advance width="333"/>
  <unicode hex="0074"/>
  <outline>
    <contour>
      <point x="324" y="60" type="line"/>
      <point x="275" y="1" type="line" smooth="yes"/>
      <point x="266" y="-10"/>
      <point x="241" y="-17"/>
      <point x="210" y="-17" type="curve" smooth="yes"/>
      <point x="123" y="-17"/>
      <point x="86" y="21"/>
      <point x="86" y="110" type="curve" smooth="yes"/>
      <point x="86" y="369" type="line"/>
      <point x="22" y="365" type="line"/>
      <point x="22" y="387" type="line"/>
      <point x="88" y="430" type="line"/>
      <point x="88" y="490" type="line" smooth="yes"/>
      <point x="88" y="511"/>
      <point x="87" y="530"/>
      <point x="84" y="582" type="curve"/>
      <point x="135" y="601"/>
      <point x="166" y="613"/>
      <point x="206" y="632" type="curve"/>
      <point x="220" y="622" type="line"/>
      <point x="211" y="572"/>
      <point x="208" y="539"/>
      <point x="208" y="486" type="curve" smooth="yes"/>
      <point x="208" y="428" type="line"/>
      <point x="322" y="434" type="line"/>
      <point x="314" y="369" type="line"/>
      <point x="208" y="369" type="line"/>
      <point x="208" y="131" type="line" smooth="yes"/>
      <point x="208" y="82"/>
      <point x="223" y="66"/>
      <point x="270" y="66" type="curve" smooth="yes"/>
      <point x="286" y="66"/>
      <point x="296" y="69"/>
      <point x="316" y="79" type="curve"/>
    </contour>
  </outline>
</glyph>
<glyph name="v" format="1">
  <advance width="556"/>
  <unicode hex="0076"/>
  <outline>
    <contour>
      <point x="227" y="-3" type="line"/>
      <point x="84" y="357" type="line" smooth="yes"/>
      <point x="66" y="400"/>
      <point x="53" y="417"/>
      <point x="36" y="419" type="curve" smooth="yes"/>
      <point x="11" y="421" type="line"/>
      <point x="11" y="459" type="line"/>
      <point x="112" y="456"/>
      <point x="128" y="456"/>
      <point x="141" y="456" type="curve" smooth="yes"/>
      <point x="270" y="459" type="line"/>
      <point x="270" y="421" type="line"/>
      <point x="229" y="419" type="line" smooth="yes"/>
      <point x="214" y="418"/>
      <point x="206" y="412"/>
      <point x="206" y="402" type="curve" smooth="yes"/>
      <point x="206" y="391"/>
      <point x="210" y="376"/>
      <point x="220" y="351" type="curve" smooth="yes"/>
      <point x="308" y="130" type="line"/>
      <point x="325" y="167"/>
      <point x="334" y="188"/>
      <point x="343" y="210" type="curve" smooth="yes"/>
      <point x="404" y="361" type="line" smooth="yes"/>
      <point x="410" y="376"/>
      <point x="413" y="390"/>
      <point x="413" y="402" type="curve" smooth="yes"/>
      <point x="413" y="411"/>
      <point x="404" y="418"/>
      <point x="390" y="419" type="curve" smooth="yes"/>
      <point x="352" y="421" type="line"/>
      <point x="352" y="459" type="line"/>
      <point x="389" y="457"/>
      <point x="398" y="457"/>
      <point x="449" y="456" type="curve"/>
      <point x="545" y="459" type="line"/>
      <point x="545" y="421" type="line"/>
      <point x="515" y="416" type="line" smooth="yes"/>
      <point x="498" y="413"/>
      <point x="488" y="404"/>
      <point x="479" y="382" type="curve" smooth="yes"/>
      <point x="351" y="94" type="line" smooth="yes"/>
      <point x="339" y="67"/>
      <point x="329" y="42"/>
      <point x="313" y="-3" type="curve"/>
    </contour>
  </outline>
</glyph>
<glyph name="w" format="1">
  <advance width="833"/>
  <unicode hex="0077"/>
  <outline>
    <contour>
      <point x="194" y="-3" type="line"/>
      <point x="87" y="381" type="line" smooth="yes"/>
      <point x="79" y="408"/>
      <point x="69" y="417"/>
      <point x="46" y="419" type="curve" smooth="yes"/>
      <point x="13" y="421" type="line"/>
      <point x="13" y="459" type="line"/>
      <point x="119" y="456"/>
      <point x="135" y="456"/>
      <point x="149" y="456" type="curve" smooth="yes"/>
      <point x="284" y="459" type="line"/>
      <point x="284" y="421" type="line"/>
      <point x="237" y="419" type="line" smooth="yes"/>
      <point x="226" y="419"/>
      <point x="218" y="410"/>
      <point x="218" y="397" type="curve" smooth="yes"/>
      <point x="218" y="392"/>
      <point x="219" y="382"/>
      <point x="220" y="378" type="curve" smooth="yes"/>
      <point x="279" y="151" type="line"/>
      <point x="284" y="163"/>
      <point x="290" y="176"/>
      <point x="296" y="188" type="curve" smooth="yes"/>
      <point x="300" y="197"/>
      <point x="303" y="205"/>
      <point x="307" y="213" type="curve" smooth="yes"/>
      <point x="336" y="276" type="line"/>
      <point x="423" y="471" type="line"/>
      <point x="473" y="471" type="line"/>
      <point x="611" y="154" type="line"/>
      <point x="628" y="200"/>
      <point x="638" y="227"/>
      <point x="650" y="266" type="curve" smooth="yes"/>
      <point x="686" y="379" type="line" smooth="yes"/>
      <point x="687" y="383"/>
      <point x="689" y="394"/>
      <point x="689" y="398" type="curve" smooth="yes"/>
      <point x="689" y="410"/>
      <point x="677" y="418"/>
      <point x="660" y="419" type="curve" smooth="yes"/>
      <point x="618" y="421" type="line"/>
      <point x="618" y="459" type="line"/>
      <point x="702" y="456"/>
      <point x="702" y="456"/>
      <point x="719" y="456" type="curve" smooth="yes"/>
      <point x="736" y="456"/>
      <point x="736" y="456"/>
      <point x="820" y="459" type="curve"/>
      <point x="820" y="421" type="line"/>
      <point x="786" y="419" type="line" smooth="yes"/>
      <point x="772" y="418"/>
      <point x="762" y="405"/>
      <point x="750" y="372" type="curve" smooth="yes"/>
      <point x="658" y="112" type="line" smooth="yes"/>
      <point x="654" y="100"/>
      <point x="647" y="77"/>
      <point x="637" y="44" type="curve" smooth="yes"/>
      <point x="636" y="40"/>
      <point x="632" y="26"/>
      <point x="623" y="-3" type="curve"/>
      <point x="542" y="-3" type="line"/>
      <point x="410" y="304" type="line"/>
      <point x="334" y="154"/>
      <point x="323" y="130"/>
      <point x="273" y="-3" type="curve"/>
    </contour>
  </outline>
</glyph>
<glyph name="x" format="1">
  <advance width="500"/>
  <unicode hex="0078"/>
  <outline>
    <contour>
      <point x="200" y="210" type="line"/>
      <point x="120" y="346" type="line" smooth="yes"/>
      <point x="94" y="390"/>
      <point x="76" y="404"/>
      <point x="43" y="404" type="curve" smooth="yes"/>
      <point x="40" y="404"/>
      <point x="33" y="404"/>
      <point x="28" y="403" type="curve"/>
      <point x="20" y="439" type="line"/>
      <point x="57" y="446"/>
      <point x="131" y="462"/>
      <point x="166" y="471" type="curve"/>
      <point x="186" y="455"/>
      <point x="204" y="432"/>
      <point x="228" y="394" type="curve" smooth="yes"/>
      <point x="280" y="309" type="line"/>
      <point x="388" y="459" type="line"/>
      <point x="483" y="459" type="line"/>
      <point x="483" y="422" type="line"/>
      <point x="446" y="421"/>
      <point x="436" y="415"/>
      <point x="405" y="379" type="curve" smooth="yes"/>
      <point x="308" y="265" type="line"/>
      <point x="397" y="113" type="line"/>
      <point x="432" y="56"/>
      <point x="452" y="37"/>
      <point x="483" y="34" type="curve"/>
      <point x="483" y="-3" type="line"/>
      <point x="454" y="-1"/>
      <point x="446" y="-1"/>
      <point x="406" y="0" type="curve"/>
      <point x="328" y="-3" type="line"/>
      <point x="228" y="166" type="line"/>
      <point x="164" y="78" type="line" smooth="yes"/>
      <point x="152" y="61"/>
      <point x="141" y="45"/>
      <point x="112" y="0" type="curve"/>
      <point x="21" y="0" type="line"/>
      <point x="21" y="34" type="line"/>
      <point x="52" y="36"/>
      <point x="70" y="46"/>
      <point x="90" y="70" type="curve" smooth="yes"/>
    </contour>
  </outline>
</glyph>
<glyph name="braceright" format="1">
  <advance width="310"/>
  <unicode hex="007D"/>
  <outline>
    <contour>
      <point x="305" y="303" type="curve"/>
      <point x="305" y="301" type="line"/>
      <point x="229" y="281"/>
      <point x="214" y="262"/>
      <point x="214" y="190" type="curve" smooth="yes"/>
      <point x="214" y="16" type="line" smooth="yes"/>
      <point x="214" y="-39"/>
      <point x="198" y="-74"/>
      <point x="166" y="-94" type="curve" smooth="yes"/>
      <point x="138" y="-111"/>
      <point x="104" y="-117"/>
      <point x="22" y="-117" type="curve"/>
      <point x="22" y="-115" type="line"/>
      <point x="98" y="-94"/>
      <point x="117" y="-70"/>
      <point x="117" y="2" type="curve" smooth="yes"/>
      <point x="117" y="169" type="line" smooth="yes"/>
      <point x="117" y="257"/>
      <point x="138" y="284"/>
      <point x="219" y="302" type="curve"/>
      <point x="138" y="321"/>
      <point x="117" y="348"/>
      <point x="117" y="429" type="curve" smooth="yes"/>
      <point x="117" y="606" type="line" smooth="yes"/>
      <point x="117" y="678"/>
      <point x="98" y="702"/>
      <point x="22" y="723" type="curve"/>
      <point x="22" y="725" type="line"/>
      <point x="111" y="725"/>
      <point x="150" y="717"/>
      <point x="177" y="694" type="curve" smooth="yes"/>
      <point x="202" y="673"/>
      <point x="214" y="640"/>
      <point x="214" y="592" type="curve" smooth="yes"/>
      <point x="214" y="414" type="line" smooth="yes"/>
      <point x="214" y="342"/>
      <point x="229" y="323"/>
    </contour>
  </outline>
</glyph>
<glyph name="exclamdown" format="1">
  <advance width="278"/>
  <unicode hex="00A1"/>
  <outline>
    <contour>
      <point x="115" y="-227" type="line"/>
      <point x="64" y="-227" type="line"/>
      <point x="64" y="-193"/>
      <point x="66" y="-171"/>
      <point x="71" y="-131" type="curve" smooth="yes"/>
      <point x="121" y="241" type="line"/>
      <point x="159" y="262" type="line"/>
      <point x="164" y="254" type="line"/>
      <point x="211" y="-104" type="line" smooth="yes"/>
      <point x="212" y="-105"/>
      <point x="214" y="-136"/>
      <point x="214" y="-164" type="curve"/>
      <point x="215" y="-183" type="line"/>
    </contour>
    <contour>
      <point x="138" y="471" type="curve" smooth="yes"/>
      <point x="178" y="471"/>
      <point x="215" y="433"/>
      <point x="215" y="392" type="curve" smooth="yes"/>
      <point x="215" y="351"/>
      <point x="178" y="315"/>
      <point x="136" y="315" type="curve" smooth="yes"/>
      <point x="95" y="315"/>
      <point x="59" y="350"/>
      <point x="59" y="392" type="curve" smooth="yes"/>
      <point x="59" y="434"/>
      <point x="96" y="471"/>
    </contour>
  </outline>
</glyph>
<glyph name="cent" format="1">
  <advance width="500"/>
  <unicode hex="00A2"/>
  <outline>
    <contour>
      <point x="403" y="554" type="line"/>
      <point x="378" y="473" type="line"/>
      <point x="411" y="465"/>
      <point x="426" y="460"/>
      <point x="441" y="453" type="curve"/>
      <point x="446" y="444" type="line"/>
      <point x="437" y="404"/>
      <point x="431" y="351"/>
      <point x="428" y="296" type="curve"/>
      <point x="390" y="296" type="line"/>
      <point x="384" y="356" type="line" smooth="yes"/>
      <point x="383" y="369"/>
      <point x="368" y="385"/>
      <point x="353" y="389" type="curve"/>
      <point x="262" y="87" type="line"/>
      <point x="290" y="64"/>
      <point x="317" y="55"/>
      <point x="358" y="55" type="curve" smooth="yes"/>
      <point x="391" y="55"/>
      <point x="411" y="60"/>
      <point x="441" y="75" type="curve"/>
      <point x="450" y="64" type="line"/>
      <point x="429" y="17" type="line"/>
      <point x="425" y="13" type="line"/>
      <point x="379" y="-8"/>
      <point x="342" y="-17"/>
      <point x="299" y="-17" type="curve" smooth="yes"/>
      <point x="285" y="-17"/>
      <point x="272" y="-16"/>
      <point x="240" y="-12" type="curve" smooth="yes"/>
      <point x="230" y="-11" type="line"/>
      <point x="198" y="-106" type="line"/>
      <point x="156" y="-106" type="line"/>
      <point x="192" y="0" type="line"/>
      <point x="109" y="42"/>
      <point x="73" y="106"/>
      <point x="73" y="214" type="curve" smooth="yes"/>
      <point x="73" y="265"/>
      <point x="82" y="307"/>
      <point x="102" y="343" type="curve" smooth="yes"/>
      <point x="113" y="363"/>
      <point x="128" y="377"/>
      <point x="166" y="401" type="curve" smooth="yes"/>
      <point x="218" y="434" type="line" smooth="yes"/>
      <point x="260" y="460"/>
      <point x="303" y="475"/>
      <point x="336" y="476" type="curve"/>
      <point x="362" y="554" type="line"/>
    </contour>
    <contour>
      <point x="230" y="124" type="curve"/>
      <point x="313" y="400" type="line"/>
      <point x="305" y="401"/>
      <point x="297" y="401"/>
      <point x="292" y="401" type="curve" smooth="yes"/>
      <point x="228" y="401"/>
      <point x="196" y="355"/>
      <point x="196" y="263" type="curve" smooth="yes"/>
      <point x="196" y="209"/>
      <point x="205" y="174"/>
    </contour>
  </outline>
</glyph>
<glyph name="yen" format="1">
  <advance width="500"/>
  <unicode hex="00A5"/>
  <outline>
    <contour>
      <point x="215" y="206" type="line"/>
      <point x="66" y="206" type="line"/>
      <point x="66" y="246" type="line"/>
      <point x="215" y="246" type="line"/>
      <point x="215" y="286" type="line" smooth="yes"/>
      <point x="215" y="297"/>
      <point x="209" y="312"/>
      <point x="196" y="334" type="curve" smooth="yes"/>
      <point x="193" y="338"/>
      <point x="192" y="339"/>
      <point x="191" y="342" type="curve"/>
      <point x="66" y="342" type="line"/>
      <point x="66" y="382" type="line"/>
      <point x="174" y="382" type="line"/>
      <point x="111" y="522" type="line"/>
      <point x="70" y="603"/>
      <point x="52" y="623"/>
      <point x="17" y="622" type="curve"/>
      <point x="17" y="659" type="line"/>
      <point x="132" y="695" type="line"/>
      <point x="164" y="669"/>
      <point x="183" y="637"/>
      <point x="214" y="559" type="curve" smooth="yes"/>
      <point x="294" y="356" type="line"/>
      <point x="427" y="678" type="line"/>
      <point x="483" y="678" type="line"/>
      <point x="483" y="659" type="line"/>
      <point x="348" y="382" type="line"/>
      <point x="466" y="382" type="line"/>
      <point x="466" y="342" type="line"/>
      <point x="332" y="342" type="line"/>
      <point x="321" y="318"/>
      <point x="317" y="303"/>
      <point x="317" y="284" type="curve" smooth="yes"/>
      <point x="317" y="246" type="line"/>
      <point x="466" y="246" type="line"/>
      <point x="466" y="206" type="line"/>
      <point x="317" y="206" type="line"/>
      <point x="317" y="135" type="line" smooth="yes"/>
      <point x="317" y="45"/>
      <point x="317" y="44"/>
      <point x="352" y="40" type="curve" smooth="yes"/>
      <point x="378" y="37" type="line"/>
      <point x="378" y="-3" type="line"/>
      <point x="302" y="0"/>
      <point x="295" y="0"/>
      <point x="269" y="0" type="curve" smooth="yes"/>
      <point x="245" y="0"/>
      <point x="221" y="-1"/>
      <point x="154" y="-3" type="curve"/>
      <point x="154" y="37" type="line"/>
      <point x="180" y="40" type="line" smooth="yes"/>
      <point x="214" y="44"/>
      <point x="215" y="46"/>
      <point x="215" y="135" type="curve" smooth="yes"/>
    </contour>
  </outline>
</glyph>
<glyph name="brokenbar" format="1">
  <advance width="606"/>
  <unicode hex="00A6"/>
  <outline>
    <contour>
      <point x="260" y="720" type="line"/>
      <point x="346" y="720" type="line"/>
      <point x="346" y="432" type="line"/>
      <point x="260" y="432" type="line"/>
    </contour>
    <contour>
      <point x="260" y="0" type="line"/>
      <point x="260" y="288" type="line"/>
      <point x="346" y="288" type="line"/>
      <point x="346" y="0" type="line"/>
    </contour>
  </outline>
</glyph>
<glyph name="dieresis" format="1">
  <advance width="333"/>
  <unicode hex="00A8"/>
  <outline>
    <contour>
      <point x="275" y="671" type="curve" smooth="yes"/>
      <point x="311" y="671"/>
      <point x="341" y="640"/>
      <point x="341" y="604" type="curve" smooth="yes"/>
      <point x="341" y="567"/>
      <point x="311" y="537"/>
      <point x="274" y="537" type="curve" smooth="yes"/>
      <point x="237" y="537"/>
      <point x="207" y="567"/>
      <point x="207" y="605" type="curve" smooth="yes"/>
      <point x="207" y="641"/>
      <point x="237" y="671"/>
    </contour>
    <contour>
      <point x="60" y="671" type="curve" smooth="yes"/>
      <point x="96" y="671"/>
      <point x="126" y="640"/>
      <point x="126" y="604" type="curve" smooth="yes"/>
      <point x="126" y="567"/>
      <point x="96" y="537"/>
      <point x="59" y="537" type="curve" smooth="yes"/>
      <point x="22" y="537"/>
      <point x="-8" y="567"/>
      <point x="-8" y="604" type="curve" smooth="yes"/>
      <point x="-8" y="641"/>
      <point x="22" y="671"/>
    </contour>
  </outline>
</glyph>
<glyph name="copyright" format="1">
  <advance width="747"/>
  <unicode hex="00A9"/>
  <outline>
    <contour>
      <point x="519" y="507" type="curve"/>
      <point x="519" y="403" type="line"/>
      <point x="487" y="403" type="line"/>
      <point x="474" y="469"/>
      <point x="443" y="500"/>
      <point x="390" y="500" type="curve" smooth="yes"/>
      <point x="320" y="500"/>
      <point x="273" y="439"/>
      <point x="273" y="347" type="curve" smooth="yes"/>
      <point x="273" y="247"/>
      <point x="326" y="176"/>
      <point x="401" y="176" type="curve" smooth="yes"/>
      <point x="441" y="176"/>
      <point x="480" y="196"/>
      <point x="497" y="226" type="curve" smooth="yes"/>
      <point x="505" y="240" type="line"/>
      <point x="531" y="229" type="line"/>
      <point x="521" y="208"/>
      <point x="515" y="199"/>
      <point x="503" y="187" type="curve" smooth="yes"/>
      <point x="471" y="155"/>
      <point x="423" y="137"/>
      <point x="372" y="137" type="curve" smooth="yes"/>
      <point x="263" y="137"/>
      <point x="188" y="217"/>
      <point x="188" y="333" type="curve" smooth="yes"/>
      <point x="188" y="452"/>
      <point x="268" y="535"/>
      <point x="384" y="535" type="curve" smooth="yes"/>
      <point x="403" y="535"/>
      <point x="420" y="533"/>
      <point x="444" y="527" type="curve"/>
      <point x="449" y="526" type="line"/>
      <point x="451" y="525" type="line"/>
      <point x="453" y="525" type="line"/>
      <point x="456" y="524" type="line"/>
      <point x="460" y="523" type="line" smooth="yes"/>
      <point x="492" y="516"/>
      <point x="507" y="512"/>
    </contour>
    <contour>
      <point x="378" y="695" type="curve" smooth="yes"/>
      <point x="564" y="695"/>
      <point x="720" y="533"/>
      <point x="720" y="339" type="curve" smooth="yes"/>
      <point x="720" y="142"/>
      <point x="564" y="-17"/>
      <point x="372" y="-17" type="curve" smooth="yes"/>
      <point x="180" y="-17"/>
      <point x="26" y="142"/>
      <point x="26" y="341" type="curve" smooth="yes"/>
      <point x="26" y="538"/>
      <point x="182" y="695"/>
    </contour>
    <contour>
      <point x="377" y="639" type="curve" smooth="yes"/>
      <point x="289" y="639"/>
      <point x="217" y="607"/>
      <point x="159" y="543" type="curve" smooth="yes"/>
      <point x="110" y="488"/>
      <point x="82" y="415"/>
      <point x="82" y="342" type="curve" smooth="yes"/>
      <point x="82" y="174"/>
      <point x="211" y="39"/>
      <point x="372" y="39" type="curve" smooth="yes"/>
      <point x="533" y="39"/>
      <point x="664" y="174"/>
      <point x="664" y="340" type="curve" smooth="yes"/>
      <point x="664" y="503"/>
      <point x="534" y="639"/>
    </contour>
  </outline>
</glyph>
<glyph name="logicalnot" format="1">
  <advance width="606"/>
  <unicode hex="00AC"/>
  <outline>
    <contour>
      <point x="469" y="114" type="line"/>
      <point x="469" y="310" type="line"/>
      <point x="51" y="310" type="line"/>
      <point x="51" y="396" type="line"/>
      <point x="555" y="396" type="line"/>
      <point x="555" y="114" type="line"/>
    </contour>
  </outline>
</glyph>
<glyph name="registered" format="1">
  <advance width="747"/>
  <unicode hex="00AE"/>
  <outline>
    <contour>
      <point x="324" y="331" type="line"/>
      <point x="324" y="209" type="line" smooth="yes"/>
      <point x="324" y="186"/>
      <point x="330" y="179"/>
      <point x="350" y="179" type="curve" smooth="yes"/>
      <point x="367" y="179" type="line"/>
      <point x="367" y="158" type="line"/>
      <point x="211" y="158" type="line"/>
      <point x="211" y="178" type="line"/>
      <point x="225" y="178" type="line" smooth="yes"/>
      <point x="250" y="178"/>
      <point x="255" y="182"/>
      <point x="255" y="205" type="curve" smooth="yes"/>
      <point x="255" y="490" type="line" smooth="yes"/>
      <point x="255" y="516"/>
      <point x="252" y="519"/>
      <point x="227" y="519" type="curve" smooth="yes"/>
      <point x="212" y="519" type="line"/>
      <point x="212" y="540" type="line"/>
      <point x="364" y="540" type="line" smooth="yes"/>
      <point x="420" y="540"/>
      <point x="441" y="538"/>
      <point x="461" y="529" type="curve" smooth="yes"/>
      <point x="492" y="516"/>
      <point x="513" y="481"/>
      <point x="513" y="445" type="curve" smooth="yes"/>
      <point x="513" y="414"/>
      <point x="497" y="384"/>
      <point x="469" y="366" type="curve" smooth="yes"/>
      <point x="453" y="355"/>
      <point x="440" y="350"/>
      <point x="412" y="344" type="curve"/>
      <point x="448" y="336"/>
      <point x="462" y="320"/>
      <point x="493" y="255" type="curve" smooth="yes"/>
      <point x="527" y="183"/>
      <point x="530" y="179"/>
      <point x="557" y="178" type="curve"/>
      <point x="557" y="158" type="line"/>
      <point x="489" y="158" type="line" smooth="yes"/>
      <point x="466" y="158"/>
      <point x="454" y="172"/>
      <point x="430" y="230" type="curve" smooth="yes"/>
      <point x="428" y="235"/>
      <point x="425" y="241"/>
      <point x="422" y="248" type="curve" smooth="yes"/>
      <point x="418" y="257"/>
      <point x="415" y="263"/>
      <point x="414" y="266" type="curve" smooth="yes"/>
      <point x="389" y="326"/>
      <point x="383" y="331"/>
      <point x="339" y="331" type="curve" smooth="yes"/>
    </contour>
    <contour>
      <point x="324" y="356" type="line"/>
      <point x="343" y="356" type="line" smooth="yes"/>
      <point x="344" y="356"/>
      <point x="348" y="356"/>
      <point x="353" y="355" type="curve" smooth="yes"/>
      <point x="406" y="349"/>
      <point x="443" y="383"/>
      <point x="443" y="438" type="curve" smooth="yes"/>
      <point x="443" y="491"/>
      <point x="416" y="518"/>
      <point x="362" y="518" type="curve" smooth="yes"/>
      <point x="341" y="518" type="line" smooth="yes"/>
      <point x="328" y="518"/>
      <point x="324" y="510"/>
      <point x="324" y="479" type="curve" smooth="yes"/>
    </contour>
    <contour>
      <point x="378" y="695" type="curve" smooth="yes"/>
      <point x="564" y="695"/>
      <point x="720" y="533"/>
      <point x="720" y="339" type="curve" smooth="yes"/>
      <point x="720" y="142"/>
      <point x="564" y="-17"/>
      <point x="372" y="-17" type="curve" smooth="yes"/>
      <point x="180" y="-17"/>
      <point x="26" y="142"/>
      <point x="26" y="341" type="curve" smooth="yes"/>
      <point x="26" y="538"/>
      <point x="182" y="695"/>
    </contour>
    <contour>
      <point x="377" y="639" type="curve" smooth="yes"/>
      <point x="289" y="639"/>
      <point x="217" y="607"/>
      <point x="159" y="543" type="curve" smooth="yes"/>
      <point x="110" y="488"/>
      <point x="82" y="415"/>
      <point x="82" y="342" type="curve" smooth="yes"/>
      <point x="82" y="174"/>
      <point x="211" y="39"/>
      <point x="372" y="39" type="curve" smooth="yes"/>
      <point x="533" y="39"/>
      <point x="664" y="174"/>
      <point x="664" y="340" type="curve" smooth="yes"/>
      <point x="664" y="503"/>
      <point x="534" y="639"/>
    </contour>
  </outline>
</glyph>
<glyph name="macron" format="1">
  <advance width="333"/>
  <unicode hex="00AF"/>
  <outline>
    <contour>
      <point x="332" y="538" type="line"/>
      <point x="1" y="538" type="line"/>
      <point x="1" y="609" type="line"/>
      <point x="332" y="609" type="line"/>
    </contour>
  </outline>
</glyph>
<glyph name="twosuperior" format="1">
  <advance width="300"/>
  <unicode hex="00B2"/>
  <outline>
    <contour>
      <point x="12" y="259" type="line"/>
      <point x="12" y="294" type="line"/>
      <point x="113" y="393" type="line" smooth="yes"/>
      <point x="159" y="438"/>
      <point x="182" y="482"/>
      <point x="182" y="526" type="curve" smooth="yes"/>
      <point x="182" y="564"/>
      <point x="158" y="588"/>
      <point x="121" y="588" type="curve" smooth="yes"/>
      <point x="96" y="588"/>
      <point x="70" y="574"/>
      <point x="66" y="558" type="curve" smooth="yes"/>
      <point x="54" y="516" type="line"/>
      <point x="26" y="518" type="line"/>
      <point x="37" y="620" type="line"/>
      <point x="74" y="647"/>
      <point x="101" y="657"/>
      <point x="137" y="657" type="curve" smooth="yes"/>
      <point x="213" y="657"/>
      <point x="268" y="613"/>
      <point x="268" y="552" type="curve" smooth="yes"/>
      <point x="268" y="513"/>
      <point x="245" y="469"/>
      <point x="205" y="430" type="curve" smooth="yes"/>
      <point x="102" y="331" type="line"/>
      <point x="283" y="337" type="line"/>
      <point x="287" y="331" type="line"/>
      <point x="285" y="311"/>
      <point x="285" y="308"/>
      <point x="285" y="294" type="curve" smooth="yes"/>
      <point x="285" y="283"/>
      <point x="285" y="282"/>
      <point x="286" y="267" type="curve" smooth="yes"/>
      <point x="287" y="259" type="line"/>
      <point x="261" y="260"/>
      <point x="232" y="260"/>
      <point x="200" y="260" type="curve" smooth="yes"/>
      <point x="165" y="261"/>
      <point x="148" y="261"/>
      <point x="147" y="261" type="curve" smooth="yes"/>
      <point x="118" y="261" type="line"/>
    </contour>
  </outline>
</glyph>
<glyph name="threesuperior" format="1">
  <advance width="300"/>
  <unicode hex="00B3"/>
  <outline>
    <contour>
      <point x="9" y="359" type="line"/>
      <point x="35" y="365" type="line"/>
      <point x="60" y="311"/>
      <point x="85" y="291"/>
      <point x="126" y="291" type="curve" smooth="yes"/>
      <point x="168" y="291"/>
      <point x="197" y="322"/>
      <point x="197" y="366" type="curve" smooth="yes"/>
      <point x="197" y="409"/>
      <point x="169" y="436"/>
      <point x="125" y="436" type="curve" smooth="yes"/>
      <point x="111" y="436"/>
      <point x="100" y="434"/>
      <point x="87" y="430" type="curve"/>
      <point x="80" y="436" type="line"/>
      <point x="92" y="484" type="line"/>
      <point x="116" y="484" type="line" smooth="yes"/>
      <point x="155" y="484"/>
      <point x="181" y="507"/>
      <point x="181" y="542" type="curve" smooth="yes"/>
      <point x="181" y="573"/>
      <point x="159" y="592"/>
      <point x="123" y="592" type="curve" smooth="yes"/>
      <point x="87" y="592"/>
      <point x="67" y="575"/>
      <point x="55" y="533" type="curve"/>
      <point x="27" y="533" type="line"/>
      <point x="47" y="629" type="line"/>
      <point x="85" y="650"/>
      <point x="107" y="657"/>
      <point x="142" y="657" type="curve" smooth="yes"/>
      <point x="207" y="657"/>
      <point x="254" y="621"/>
      <point x="254" y="571" type="curve" smooth="yes"/>
      <point x="254" y="536"/>
      <point x="234" y="508"/>
      <point x="194" y="486" type="curve"/>
      <point x="248" y="479"/>
      <point x="278" y="447"/>
      <point x="278" y="397" type="curve" smooth="yes"/>
      <point x="278" y="316"/>
      <point x="199" y="251"/>
      <point x="103" y="251" type="curve" smooth="yes"/>
      <point x="71" y="251"/>
      <point x="52" y="255"/>
      <point x="25" y="266" type="curve"/>
    </contour>
  </outline>
</glyph>
<glyph name="acute" format="1">
  <advance width="333"/>
  <unicode hex="00B4"/>
  <outline>
    <contour>
      <point x="78" y="506" type="line"/>
      <point x="207" y="654" type="line" smooth="yes"/>
      <point x="230" y="680"/>
      <point x="248" y="691"/>
      <point x="272" y="691" type="curve" smooth="yes"/>
      <point x="298" y="691"/>
      <point x="316" y="674"/>
      <point x="316" y="647" type="curve" smooth="yes"/>
      <point x="316" y="625"/>
      <point x="306" y="611"/>
      <point x="273" y="592" type="curve"/>
      <point x="265" y="587" type="line"/>
      <point x="134" y="506" type="line"/>
    </contour>
  </outline>
</glyph>
<glyph name="paragraph" format="1">
  <advance width="641"/>
  <unicode hex="00B6"/>
  <outline>
    <contour>
      <point x="195" y="-120" type="line"/>
      <point x="244" y="-118" type="line" smooth="yes"/>
      <point x="275" y="-117"/>
      <point x="280" y="-108"/>
      <point x="280" y="-54" type="curve" smooth="yes"/>
      <point x="280" y="324" type="line"/>
      <point x="199" y="330"/>
      <point x="151" y="347"/>
      <point x="97" y="387" type="curve" smooth="yes"/>
      <point x="46" y="425"/>
      <point x="19" y="474"/>
      <point x="19" y="529" type="curve" smooth="yes"/>
      <point x="19" y="620"/>
      <point x="104" y="683"/>
      <point x="228" y="683" type="curve" smooth="yes"/>
      <point x="238" y="683"/>
      <point x="257" y="682"/>
      <point x="284" y="681" type="curve" smooth="yes"/>
      <point x="323" y="679"/>
      <point x="377" y="678"/>
      <point x="436" y="678" type="curve" smooth="yes"/>
      <point x="444" y="678"/>
      <point x="459" y="678"/>
      <point x="475" y="679" type="curve" smooth="yes"/>
      <point x="599" y="681" type="line"/>
      <point x="599" y="640" type="line"/>
      <point x="552" y="640" type="line" smooth="yes"/>
      <point x="524" y="640"/>
      <point x="514" y="620"/>
      <point x="514" y="563" type="curve" smooth="yes"/>
      <point x="514" y="-54" type="line" smooth="yes"/>
      <point x="514" y="-108"/>
      <point x="519" y="-117"/>
      <point x="550" y="-118" type="curve" smooth="yes"/>
      <point x="599" y="-120" type="line"/>
      <point x="599" y="-161" type="line"/>
      <point x="431" y="-158"/>
      <point x="431" y="-158"/>
      <point x="397" y="-158" type="curve" smooth="yes"/>
      <point x="363" y="-158"/>
      <point x="363" y="-158"/>
      <point x="195" y="-161" type="curve"/>
    </contour>
    <contour>
      <point x="426" y="634" type="line"/>
      <point x="368" y="634" type="line"/>
      <point x="368" y="-111" type="line"/>
      <point x="426" y="-111" type="line"/>
    </contour>
    <contour>
      <point x="280" y="371" type="curve"/>
      <point x="280" y="634" type="line"/>
      <point x="274" y="635"/>
      <point x="268" y="635"/>
      <point x="265" y="635" type="curve" smooth="yes"/>
      <point x="199" y="635"/>
      <point x="150" y="583"/>
      <point x="150" y="513" type="curve" smooth="yes"/>
      <point x="150" y="441"/>
      <point x="197" y="389"/>
    </contour>
  </outline>
</glyph>
<glyph name="cedilla" format="1">
  <advance width="333"/>
  <unicode hex="00B8"/>
  <outline>
    <contour>
      <point x="122" y="-103" type="line"/>
      <point x="165" y="-7" type="line"/>
      <point x="206" y="-7" type="line"/>
      <point x="178" y="-71" type="line"/>
      <point x="197" y="-66"/>
      <point x="209" y="-65"/>
      <point x="223" y="-65" type="curve" smooth="yes"/>
      <point x="270" y="-65"/>
      <point x="300" y="-93"/>
      <point x="300" y="-138" type="curve" smooth="yes"/>
      <point x="300" y="-191"/>
      <point x="248" y="-225"/>
      <point x="167" y="-225" type="curve" smooth="yes"/>
      <point x="138" y="-225"/>
      <point x="109" y="-219"/>
      <point x="73" y="-207" type="curve"/>
      <point x="89" y="-170" type="line"/>
      <point x="123" y="-177"/>
      <point x="137" y="-179"/>
      <point x="156" y="-179" type="curve" smooth="yes"/>
      <point x="189" y="-179"/>
      <point x="206" y="-166"/>
      <point x="206" y="-142" type="curve" smooth="yes"/>
      <point x="206" y="-120"/>
      <point x="192" y="-107"/>
      <point x="168" y="-107" type="curve" smooth="yes"/>
      <point x="161" y="-107"/>
      <point x="156" y="-108"/>
      <point x="132" y="-111" type="curve"/>
    </contour>
  </outline>
</glyph>
<glyph name="onesuperior" format="1">
  <advance width="300"/>
  <unicode hex="00B9"/>
  <outline>
    <contour>
      <point x="42" y="288" type="line"/>
      <point x="88" y="289" type="line" smooth="yes"/>
      <point x="109" y="290"/>
      <point x="119" y="298"/>
      <point x="119" y="314" type="curve" smooth="yes"/>
      <point x="119" y="575" type="line" smooth="yes"/>
      <point x="119" y="584"/>
      <point x="119" y="590"/>
      <point x="118" y="593" type="curve" smooth="yes"/>
      <point x="118" y="594"/>
      <point x="117" y="595"/>
      <point x="116" y="595" type="curve" smooth="yes"/>
      <point x="115" y="594" type="line"/>
      <point x="28" y="554" type="line"/>
      <point x="20" y="573"/>
      <point x="18" y="582"/>
      <point x="18" y="597" type="curve" smooth="yes"/>
      <point x="18" y="598" type="line"/>
      <point x="18" y="603" type="line"/>
      <point x="57" y="612"/>
      <point x="124" y="634"/>
      <point x="201" y="663" type="curve"/>
      <point x="211" y="655" type="line"/>
      <point x="206" y="575"/>
      <point x="205" y="557"/>
      <point x="205" y="504" type="curve" smooth="yes"/>
      <point x="205" y="314" type="line" smooth="yes"/>
      <point x="205" y="298"/>
      <point x="215" y="290"/>
      <point x="236" y="289" type="curve" smooth="yes"/>
      <point x="277" y="288" type="line"/>
      <point x="277" y="259" type="line"/>
      <point x="237" y="260"/>
      <point x="227" y="260"/>
      <point x="208" y="260" type="curve" smooth="yes"/>
      <point x="186" y="261"/>
      <point x="175" y="261"/>
      <point x="168" y="261" type="curve" smooth="yes"/>
      <point x="129" y="260" type="line"/>
      <point x="42" y="259" type="line"/>
    </contour>
  </outline>
</glyph>
<glyph name="onequarter" format="1">
  <advance width="750"/>
  <unicode hex="00BC"/>
  <outline>
    <contour>
      <point x="440" y="99" type="line"/>
      <point x="436" y="122" type="line"/>
      <point x="439" y="130"/>
      <point x="442" y="137"/>
      <point x="445" y="142" type="curve" smooth="yes"/>
      <point x="455" y="167"/>
      <point x="460" y="178"/>
      <point x="467" y="190" type="curve" smooth="yes"/>
      <point x="545" y="319" type="line" smooth="yes"/>
      <point x="559" y="342"/>
      <point x="574" y="362"/>
      <point x="595" y="387" type="curve"/>
      <point x="671" y="403" type="line"/>
      <point x="679" y="396" type="line"/>
      <point x="679" y="152" type="line"/>
      <point x="733" y="152" type="line"/>
      <point x="733" y="99" type="line"/>
      <point x="679" y="99" type="line"/>
      <point x="679" y="75" type="line" smooth="yes"/>
      <point x="679" y="47"/>
      <point x="691" y="33"/>
      <point x="716" y="30" type="curve" smooth="yes"/>
      <point x="735" y="28" type="line"/>
      <point x="735" y="-2" type="line"/>
      <point x="649" y="0"/>
      <point x="649" y="0"/>
      <point x="637" y="0" type="curve" smooth="yes"/>
      <point x="630" y="0"/>
      <point x="630" y="0"/>
      <point x="520" y="-2" type="curve"/>
      <point x="520" y="28" type="line"/>
      <point x="558" y="30" type="line" smooth="yes"/>
      <point x="582" y="31"/>
      <point x="595" y="48"/>
      <point x="595" y="75" type="curve" smooth="yes"/>
      <point x="595" y="99" type="line"/>
    </contour>
    <contour>
      <point x="489" y="152" type="line"/>
      <point x="595" y="152" type="line"/>
      <point x="595" y="331" type="line"/>
    </contour>
    <contour>
      <point x="45" y="291" type="line"/>
      <point x="87" y="293" type="line" smooth="yes"/>
      <point x="111" y="294"/>
      <point x="125" y="311"/>
      <point x="125" y="338" type="curve" smooth="yes"/>
      <point x="125" y="573" type="line" smooth="yes"/>
      <point x="125" y="590"/>
      <point x="123" y="596"/>
      <point x="119" y="596" type="curve" smooth="yes"/>
      <point x="118" y="596"/>
      <point x="116" y="595"/>
      <point x="113" y="594" type="curve" smooth="yes"/>
      <point x="28" y="556" type="line"/>
      <point x="21" y="580"/>
      <point x="19" y="592"/>
      <point x="19" y="604" type="curve"/>
      <point x="72" y="618"/>
      <point x="103" y="627"/>
      <point x="217" y="665" type="curve"/>
      <point x="225" y="660" type="line"/>
      <point x="223" y="639"/>
      <point x="222" y="630"/>
      <point x="221" y="617" type="curve" smooth="yes"/>
      <point x="219" y="592"/>
      <point x="218" y="584"/>
      <point x="218" y="570" type="curve" smooth="yes"/>
      <point x="218" y="338" type="line" smooth="yes"/>
      <point x="218" y="310"/>
      <point x="231" y="294"/>
      <point x="255" y="293" type="curve" smooth="yes"/>
      <point x="292" y="291" type="line"/>
      <point x="292" y="261" type="line"/>
      <point x="185" y="263"/>
      <point x="185" y="263"/>
      <point x="176" y="263" type="curve" smooth="yes"/>
      <point x="167" y="263"/>
      <point x="151" y="263"/>
      <point x="126" y="262" type="curve" smooth="yes"/>
      <point x="45" y="261" type="line"/>
    </contour>
    <contour>
      <point x="257" y="0" type="line"/>
      <point x="188" y="0" type="line"/>
      <point x="591" y="660" type="line"/>
      <point x="660" y="660" type="line"/>
    </contour>
  </outline>
</glyph>
<glyph name="onehalf" format="1">
  <advance width="750"/>
  <unicode hex="00BD"/>
  <outline>
    <contour>
      <point x="224" y="0" type="line"/>
      <point x="155" y="0" type="line"/>
      <point x="558" y="660" type="line"/>
      <point x="627" y="660" type="line"/>
    </contour>
    <contour>
      <point x="35" y="291" type="line"/>
      <point x="77" y="293" type="line" smooth="yes"/>
      <point x="101" y="294"/>
      <point x="115" y="311"/>
      <point x="115" y="338" type="curve" smooth="yes"/>
      <point x="115" y="573" type="line" smooth="yes"/>
      <point x="115" y="590"/>
      <point x="113" y="596"/>
      <point x="109" y="596" type="curve" smooth="yes"/>
      <point x="108" y="596"/>
      <point x="106" y="596"/>
      <point x="105" y="595" type="curve" smooth="yes"/>
      <point x="18" y="556" type="line"/>
      <point x="11" y="580"/>
      <point x="9" y="592"/>
      <point x="9" y="604" type="curve"/>
      <point x="62" y="618"/>
      <point x="93" y="627"/>
      <point x="207" y="665" type="curve"/>
      <point x="215" y="660" type="line"/>
      <point x="213" y="639"/>
      <point x="212" y="630"/>
      <point x="211" y="617" type="curve" smooth="yes"/>
      <point x="209" y="592"/>
      <point x="208" y="584"/>
      <point x="208" y="570" type="curve" smooth="yes"/>
      <point x="208" y="338" type="line" smooth="yes"/>
      <point x="208" y="311"/>
      <point x="221" y="294"/>
      <point x="245" y="293" type="curve" smooth="yes"/>
      <point x="282" y="291" type="line"/>
      <point x="282" y="261" type="line"/>
      <point x="175" y="263"/>
      <point x="175" y="263"/>
      <point x="166" y="263" type="curve" smooth="yes"/>
      <point x="157" y="263"/>
      <point x="141" y="263"/>
      <point x="116" y="262" type="curve" smooth="yes"/>
      <point x="35" y="261" type="line"/>
    </contour>
    <contour>
      <point x="455" y="-2" type="line"/>
      <point x="455" y="35" type="line"/>
      <point x="563" y="136" type="line" smooth="yes"/>
      <point x="610" y="180"/>
      <point x="633" y="222"/>
      <point x="633" y="264" type="curve" smooth="yes"/>
      <point x="633" y="304"/>
      <point x="606" y="329"/>
      <point x="564" y="329" type="curve" smooth="yes"/>
      <point x="532" y="329"/>
      <point x="517" y="318"/>
      <point x="508" y="288" type="curve" smooth="yes"/>
      <point x="498" y="255" type="line"/>
      <point x="470" y="259" type="line"/>
      <point x="482" y="360" type="line"/>
      <point x="520" y="387"/>
      <point x="549" y="397"/>
      <point x="586" y="397" type="curve" smooth="yes"/>
      <point x="667" y="397"/>
      <point x="725" y="353"/>
      <point x="725" y="292" type="curve" smooth="yes"/>
      <point x="725" y="251"/>
      <point x="701" y="205"/>
      <point x="658" y="165" type="curve" smooth="yes"/>
      <point x="562" y="75" type="line"/>
      <point x="562" y="67" type="line"/>
      <point x="740" y="76" type="line"/>
      <point x="745" y="71" type="line"/>
      <point x="743" y="53"/>
      <point x="743" y="45"/>
      <point x="743" y="32" type="curve" smooth="yes"/>
      <point x="743" y="20"/>
      <point x="743" y="13"/>
      <point x="745" y="-2" type="curve"/>
      <point x="633" y="0" type="line"/>
      <point x="601" y="0" type="line"/>
      <point x="583" y="0" type="line"/>
      <point x="494" y="-2" type="line"/>
    </contour>
  </outline>
</glyph>
<glyph name="threequarters" format="1">
  <advance width="750"/>
  <unicode hex="00BE"/>
  <outline>
    <contour>
      <point x="229" y="0" type="line"/>
      <point x="160" y="0" type="line"/>
      <point x="563" y="660" type="line"/>
      <point x="632" y="660" type="line"/>
    </contour>
    <contour>
      <point x="15" y="365" type="curve"/>
      <point x="37" y="370" type="line"/>
      <point x="62" y="319"/>
      <point x="90" y="298"/>
      <point x="133" y="298" type="curve" smooth="yes"/>
      <point x="180" y="298"/>
      <point x="217" y="332"/>
      <point x="217" y="376" type="curve" smooth="yes"/>
      <point x="217" y="419"/>
      <point x="184" y="449"/>
      <point x="137" y="449" type="curve" smooth="yes"/>
      <point x="123" y="449"/>
      <point x="113" y="448"/>
      <point x="96" y="444" type="curve"/>
      <point x="91" y="447" type="line"/>
      <point x="104" y="491" type="line"/>
      <point x="126" y="491" type="line" smooth="yes"/>
      <point x="171" y="491"/>
      <point x="200" y="516"/>
      <point x="200" y="554" type="curve" smooth="yes"/>
      <point x="200" y="587"/>
      <point x="176" y="606"/>
      <point x="135" y="606" type="curve" smooth="yes"/>
      <point x="97" y="606"/>
      <point x="73" y="588"/>
      <point x="61" y="548" type="curve"/>
      <point x="35" y="548" type="line"/>
      <point x="55" y="640" type="line"/>
      <point x="93" y="660"/>
      <point x="119" y="667"/>
      <point x="155" y="667" type="curve" smooth="yes"/>
      <point x="223" y="667"/>
      <point x="272" y="631"/>
      <point x="272" y="582" type="curve" smooth="yes"/>
      <point x="272" y="546"/>
      <point x="248" y="518"/>
      <point x="198" y="494" type="curve"/>
      <point x="266" y="488"/>
      <point x="298" y="459"/>
      <point x="298" y="405" type="curve" smooth="yes"/>
      <point x="298" y="325"/>
      <point x="215" y="261"/>
      <point x="111" y="261" type="curve" smooth="yes"/>
      <point x="80" y="261"/>
      <point x="57" y="265"/>
      <point x="31" y="275" type="curve"/>
      <point x="23" y="323"/>
      <point x="21" y="334"/>
    </contour>
    <contour>
      <point x="440" y="99" type="line"/>
      <point x="436" y="122" type="line"/>
      <point x="439" y="130"/>
      <point x="442" y="137"/>
      <point x="445" y="142" type="curve" smooth="yes"/>
      <point x="455" y="167"/>
      <point x="460" y="178"/>
      <point x="467" y="190" type="curve" smooth="yes"/>
      <point x="545" y="319" type="line" smooth="yes"/>
      <point x="559" y="342"/>
      <point x="574" y="362"/>
      <point x="595" y="387" type="curve"/>
      <point x="671" y="403" type="line"/>
      <point x="679" y="396" type="line"/>
      <point x="679" y="152" type="line"/>
      <point x="733" y="152" type="line"/>
      <point x="733" y="99" type="line"/>
      <point x="679" y="99" type="line"/>
      <point x="679" y="75" type="line" smooth="yes"/>
      <point x="679" y="47"/>
      <point x="691" y="33"/>
      <point x="716" y="30" type="curve" smooth="yes"/>
      <point x="735" y="28" type="line"/>
      <point x="735" y="-2" type="line"/>
      <point x="649" y="0"/>
      <point x="649" y="0"/>
      <point x="637" y="0" type="curve" smooth="yes"/>
      <point x="630" y="0"/>
      <point x="630" y="0"/>
      <point x="520" y="-2" type="curve"/>
      <point x="520" y="28" type="line"/>
      <point x="558" y="30" type="line" smooth="yes"/>
      <point x="582" y="31"/>
      <point x="595" y="48"/>
      <point x="595" y="75" type="curve" smooth="yes"/>
      <point x="595" y="99" type="line"/>
    </contour>
    <contour>
      <point x="489" y="152" type="line"/>
      <point x="595" y="152" type="line"/>
      <point x="595" y="331" type="line"/>
    </contour>
  </outline>
</glyph>
<glyph name="Atilde" format="1">
  <advance width="778"/>
  <unicode hex="00C3"/>
  <outline>
    <contour>
      <point x="469" y="206" type="line"/>
      <point x="218" y="206" type="line"/>
      <point x="176" y="94" type="line" smooth="yes"/>
      <point x="173" y="86"/>
      <point x="171" y="76"/>
      <point x="171" y="69" type="curve" smooth="yes"/>
      <point x="171" y="52"/>
      <point x="183" y="38"/>
      <point x="200" y="37" type="curve" smooth="yes"/>
      <point x="250" y="34" type="line"/>
      <point x="250" y="-3" type="line"/>
      <point x="223" y="-2"/>
      <point x="202" y="-2"/>
      <point x="193" y="-1" type="curve" smooth="yes"/>
      <point x="165" y="0"/>
      <point x="146" y="0"/>
      <point x="137" y="0" type="curve" smooth="yes"/>
      <point x="128" y="0"/>
      <point x="109" y="0"/>
      <point x="81" y="-1" type="curve" smooth="yes"/>
      <point x="73" y="-2"/>
      <point x="50" y="-2"/>
      <point x="24" y="-3" type="curve"/>
      <point x="24" y="34" type="line"/>
      <point x="54" y="37" type="line" smooth="yes"/>
      <point x="76" y="39"/>
      <point x="93" y="58"/>
      <point x="110" y="97" type="curve" smooth="yes"/>
      <point x="291" y="535" type="line" smooth="yes"/>
      <point x="296" y="546"/>
      <point x="306" y="572"/>
      <point x="320" y="611" type="curve" smooth="yes"/>
      <point x="348" y="686" type="line"/>
      <point x="419" y="686" type="line"/>
      <point x="678" y="81" type="line" smooth="yes"/>
      <point x="691" y="52"/>
      <point x="705" y="41"/>
      <point x="733" y="37" type="curve" smooth="yes"/>
      <point x="757" y="34" type="line"/>
      <point x="757" y="-3" type="line"/>
      <point x="610" y="0"/>
      <point x="610" y="0"/>
      <point x="599" y="0" type="curve" smooth="yes"/>
      <point x="587" y="0"/>
      <point x="587" y="0"/>
      <point x="447" y="-3" type="curve"/>
      <point x="447" y="34" type="line"/>
      <point x="500" y="37" type="line" smooth="yes"/>
      <point x="511" y="38"/>
      <point x="520" y="49"/>
      <point x="520" y="64" type="curve" smooth="yes"/>
      <point x="520" y="72"/>
      <point x="518" y="82"/>
      <point x="514" y="92" type="curve" smooth="yes"/>
    </contour>
    <contour>
      <point x="342" y="516" type="line"/>
      <point x="242" y="262" type="line"/>
      <point x="446" y="262" type="line"/>
    </contour>
    <contour>
      <point x="529" y="885" type="curve"/>
      <point x="572" y="885" type="line"/>
      <point x="548" y="798"/>
      <point x="512" y="759"/>
      <point x="454" y="759" type="curve" smooth="yes"/>
      <point x="431" y="759"/>
      <point x="410" y="765"/>
      <point x="370" y="784" type="curve" smooth="yes"/>
      <point x="333" y="802"/>
      <point x="312" y="808"/>
      <point x="293" y="808" type="curve" smooth="yes"/>
      <point x="273" y="808"/>
      <point x="257" y="792"/>
      <point x="247" y="760" type="curve"/>
      <point x="207" y="760" type="line"/>
      <point x="215" y="834"/>
      <point x="263" y="885"/>
      <point x="323" y="885" type="curve" smooth="yes"/>
      <point x="346" y="885"/>
      <point x="365" y="879"/>
      <point x="403" y="861" type="curve" smooth="yes"/>
      <point x="441" y="843"/>
      <point x="459" y="837"/>
      <point x="478" y="837" type="curve" smooth="yes"/>
      <point x="502" y="837"/>
      <point x="511" y="846"/>
    </contour>
  </outline>
</glyph>
<glyph name="Ccedilla" format="1">
  <advance width="722"/>
  <unicode hex="00C7"/>
  <outline>
    <contour>
      <point x="397" y="-15" type="curve"/>
      <point x="373" y="-71" type="line"/>
      <point x="393" y="-66"/>
      <point x="404" y="-65"/>
      <point x="419" y="-65" type="curve" smooth="yes"/>
      <point x="465" y="-65"/>
      <point x="495" y="-93"/>
      <point x="495" y="-138" type="curve" smooth="yes"/>
      <point x="495" y="-164"/>
      <point x="485" y="-183"/>
      <point x="464" y="-198" type="curve" smooth="yes"/>
      <point x="443" y="-213"/>
      <point x="399" y="-225"/>
      <point x="362" y="-225" type="curve" smooth="yes"/>
      <point x="333" y="-225"/>
      <point x="303" y="-219"/>
      <point x="268" y="-207" type="curve"/>
      <point x="284" y="-170" type="line"/>
      <point x="318" y="-177"/>
      <point x="332" y="-179"/>
      <point x="351" y="-179" type="curve" smooth="yes"/>
      <point x="384" y="-179"/>
      <point x="401" y="-166"/>
      <point x="401" y="-142" type="curve" smooth="yes"/>
      <point x="401" y="-120"/>
      <point x="387" y="-107"/>
      <point x="363" y="-107" type="curve" smooth="yes"/>
      <point x="354" y="-107"/>
      <point x="347" y="-108"/>
      <point x="327" y="-111" type="curve"/>
      <point x="317" y="-103" type="line"/>
      <point x="358" y="-10" type="line"/>
      <point x="294" y="1"/>
      <point x="251" y="15"/>
      <point x="210" y="38" type="curve" smooth="yes"/>
      <point x="104" y="99"/>
      <point x="44" y="211"/>
      <point x="44" y="347" type="curve" smooth="yes"/>
      <point x="44" y="561"/>
      <point x="202" y="695"/>
      <point x="455" y="695" type="curve" smooth="yes"/>
      <point x="542" y="695"/>
      <point x="598" y="684"/>
      <point x="689" y="648" type="curve"/>
      <point x="695" y="637" type="line"/>
      <point x="686" y="599"/>
      <point x="683" y="580"/>
      <point x="672" y="484" type="curve"/>
      <point x="633" y="484" type="line"/>
      <point x="628" y="570" type="line"/>
      <point x="574" y="620"/>
      <point x="526" y="639"/>
      <point x="450" y="639" type="curve" smooth="yes"/>
      <point x="291" y="639"/>
      <point x="194" y="533"/>
      <point x="194" y="361" type="curve" smooth="yes"/>
      <point x="194" y="172"/>
      <point x="310" y="48"/>
      <point x="485" y="48" type="curve" smooth="yes"/>
      <point x="550" y="48"/>
      <point x="615" y="65"/>
      <point x="680" y="99" type="curve"/>
      <point x="692" y="87" type="line"/>
      <point x="670" y="38" type="line"/>
      <point x="597" y="-2"/>
      <point x="537" y="-17"/>
      <point x="446" y="-17" type="curve" smooth="yes"/>
      <point x="429" y="-17"/>
      <point x="417" y="-17"/>
    </contour>
  </outline>
</glyph>
<glyph name="multiply" format="1">
  <advance width="606"/>
  <unicode hex="00D7"/>
  <outline>
    <contour>
      <point x="241" y="253" type="line"/>
      <point x="73" y="422" type="line"/>
      <point x="134" y="483" type="line"/>
      <point x="302" y="314" type="line"/>
      <point x="471" y="483" type="line"/>
      <point x="532" y="422" type="line"/>
      <point x="363" y="253" type="line"/>
      <point x="534" y="82" type="line"/>
      <point x="473" y="21" type="line"/>
      <point x="302" y="192" type="line"/>
      <point x="133" y="21" type="line"/>
      <point x="72" y="82" type="line"/>
    </contour>
  </outline>
</glyph>
<glyph name="Oslash" format="1">
  <advance width="833"/>
  <unicode hex="00D8"/>
  <outline>
    <contour>
      <point x="160" y="62" type="curve"/>
      <point x="70" y="-20" type="line"/>
      <point x="32" y="20" type="line"/>
      <point x="123" y="103" type="line"/>
      <point x="67" y="169"/>
      <point x="47" y="228"/>
      <point x="47" y="326" type="curve" smooth="yes"/>
      <point x="47" y="561"/>
      <point x="186" y="695"/>
      <point x="428" y="695" type="curve" smooth="yes"/>
      <point x="477" y="695"/>
      <point x="521" y="689"/>
      <point x="564" y="677" type="curve" smooth="yes"/>
      <point x="613" y="663"/>
      <point x="637" y="651"/>
      <point x="682" y="617" type="curve"/>
      <point x="771" y="698" type="line"/>
      <point x="808" y="659" type="line"/>
      <point x="719" y="577" type="line"/>
      <point x="770" y="504"/>
      <point x="787" y="448"/>
      <point x="787" y="353" type="curve" smooth="yes"/>
      <point x="787" y="117"/>
      <point x="649" y="-17"/>
      <point x="405" y="-17" type="curve" smooth="yes"/>
      <point x="352" y="-17"/>
      <point x="305" y="-10"/>
      <point x="259" y="4" type="curve" smooth="yes"/>
      <point x="214" y="18"/>
      <point x="195" y="30"/>
    </contour>
    <contour>
      <point x="222" y="192" type="curve"/>
      <point x="592" y="534" type="line"/>
      <point x="548" y="611"/>
      <point x="502" y="639"/>
      <point x="424" y="639" type="curve" smooth="yes"/>
      <point x="273" y="639"/>
      <point x="197" y="542"/>
      <point x="197" y="349" type="curve" smooth="yes"/>
      <point x="197" y="282"/>
      <point x="205" y="233"/>
    </contour>
    <contour>
      <point x="615" y="481" type="curve"/>
      <point x="242" y="138" type="line"/>
      <point x="293" y="65"/>
      <point x="337" y="39"/>
      <point x="410" y="39" type="curve" smooth="yes"/>
      <point x="563" y="39"/>
      <point x="637" y="135"/>
      <point x="637" y="333" type="curve" smooth="yes"/>
      <point x="637" y="398"/>
      <point x="630" y="444"/>
    </contour>
  </outline>
</glyph>
<glyph name="Yacute" format="1">
  <advance width="667"/>
  <unicode hex="00DD"/>
  <outline>
    <contour>
      <point x="395" y="356" type="line"/>
      <point x="583" y="678" type="line"/>
      <point x="660" y="678" type="line"/>
      <point x="660" y="659" type="line"/>
      <point x="484" y="398" type="line" smooth="yes"/>
      <point x="466" y="371"/>
      <point x="450" y="341"/>
      <point x="431" y="298" type="curve"/>
      <point x="431" y="135" type="line" smooth="yes"/>
      <point x="431" y="46"/>
      <point x="432" y="44"/>
      <point x="479" y="40" type="curve" smooth="yes"/>
      <point x="516" y="37" type="line"/>
      <point x="516" y="-3" type="line"/>
      <point x="395" y="0"/>
      <point x="394" y="0"/>
      <point x="360" y="0" type="curve" smooth="yes"/>
      <point x="326" y="0"/>
      <point x="326" y="0"/>
      <point x="205" y="-3" type="curve"/>
      <point x="205" y="37" type="line"/>
      <point x="242" y="40" type="line" smooth="yes"/>
      <point x="289" y="44"/>
      <point x="290" y="46"/>
      <point x="290" y="135" type="curve" smooth="yes"/>
      <point x="290" y="274" type="line"/>
      <point x="274" y="310"/>
      <point x="262" y="332"/>
      <point x="246" y="359" type="curve" smooth="yes"/>
      <point x="145" y="522" type="line"/>
      <point x="86" y="607"/>
      <point x="66" y="622"/>
      <point x="15" y="622" type="curve"/>
      <point x="15" y="659" type="line"/>
      <point x="174" y="695" type="line"/>
      <point x="220" y="668"/>
      <point x="247" y="635"/>
      <point x="288" y="559" type="curve" smooth="yes"/>
    </contour>
    <contour>
      <point x="288" y="730" type="line"/>
      <point x="417" y="878" type="line" smooth="yes"/>
      <point x="440" y="904"/>
      <point x="458" y="915"/>
      <point x="482" y="915" type="curve" smooth="yes"/>
      <point x="508" y="915"/>
      <point x="526" y="898"/>
      <point x="526" y="871" type="curve" smooth="yes"/>
      <point x="526" y="849"/>
      <point x="516" y="835"/>
      <point x="483" y="816" type="curve"/>
      <point x="475" y="811" type="line"/>
      <point x="344" y="730" type="line"/>
    </contour>
  </outline>
</glyph>
<glyph name="Thorn" format="1">
  <advance width="611"/>
  <unicode hex="00DE"/>
  <outline>
    <contour>
      <point x="265" y="487" type="curve"/>
      <point x="265" y="135" type="line" smooth="yes"/>
      <point x="265" y="44"/>
      <point x="266" y="43"/>
      <point x="313" y="40" type="curve" smooth="yes"/>
      <point x="360" y="37" type="line"/>
      <point x="360" y="-3" type="line"/>
      <point x="226" y="0"/>
      <point x="226" y="0"/>
      <point x="195" y="0" type="curve" smooth="yes"/>
      <point x="160" y="0"/>
      <point x="160" y="0"/>
      <point x="39" y="-3" type="curve"/>
      <point x="39" y="37" type="line"/>
      <point x="76" y="40" type="line" smooth="yes"/>
      <point x="123" y="44"/>
      <point x="124" y="46"/>
      <point x="124" y="135" type="curve" smooth="yes"/>
      <point x="124" y="543" type="line" smooth="yes"/>
      <point x="124" y="631"/>
      <point x="121" y="637"/>
      <point x="76" y="641" type="curve" smooth="yes"/>
      <point x="39" y="644" type="line"/>
      <point x="39" y="681" type="line"/>
      <point x="159" y="678"/>
      <point x="160" y="678"/>
      <point x="194" y="678" type="curve" smooth="yes"/>
      <point x="228" y="678"/>
      <point x="228" y="678"/>
      <point x="350" y="681" type="curve"/>
      <point x="350" y="644" type="line"/>
      <point x="313" y="641" type="line" smooth="yes"/>
      <point x="271" y="637"/>
      <point x="266" y="630"/>
      <point x="265" y="572" type="curve"/>
      <point x="265" y="564" type="line"/>
      <point x="265" y="549" type="line"/>
      <point x="285" y="547"/>
      <point x="298" y="546"/>
      <point x="314" y="546" type="curve" smooth="yes"/>
      <point x="326" y="546" type="line"/>
      <point x="337" y="546" type="line" smooth="yes"/>
      <point x="422" y="546"/>
      <point x="471" y="539"/>
      <point x="506" y="521" type="curve" smooth="yes"/>
      <point x="552" y="498"/>
      <point x="574" y="457"/>
      <point x="574" y="396" type="curve" smooth="yes"/>
      <point x="574" y="278"/>
      <point x="484" y="184"/>
      <point x="372" y="184" type="curve" smooth="yes"/>
      <point x="359" y="184"/>
      <point x="342" y="186"/>
      <point x="325" y="189" type="curve" smooth="yes"/>
      <point x="321" y="189"/>
      <point x="321" y="189"/>
      <point x="319" y="190" type="curve" smooth="yes"/>
      <point x="311" y="191" type="line"/>
      <point x="294" y="226" type="line"/>
      <point x="304" y="236" type="line"/>
      <point x="319" y="231"/>
      <point x="335" y="229"/>
      <point x="354" y="229" type="curve" smooth="yes"/>
      <point x="405" y="229"/>
      <point x="430" y="270"/>
      <point x="430" y="352" type="curve" smooth="yes"/>
      <point x="430" y="404"/>
      <point x="420" y="447"/>
      <point x="402" y="470" type="curve" smooth="yes"/>
      <point x="387" y="489"/>
      <point x="369" y="496"/>
      <point x="335" y="496" type="curve" smooth="yes"/>
      <point x="303" y="496"/>
      <point x="280" y="493"/>
    </contour>
  </outline>
</glyph>
<glyph name="atilde" format="1">
  <advance width="500"/>
  <unicode hex="00E3"/>
  <outline>
    <contour>
      <point x="299" y="67" type="line"/>
      <point x="206" y="-5" type="line" smooth="yes"/>
      <point x="196" y="-13"/>
      <point x="179" y="-17"/>
      <point x="157" y="-17" type="curve" smooth="yes"/>
      <point x="81" y="-17"/>
      <point x="40" y="26"/>
      <point x="40" y="107" type="curve" smooth="yes"/>
      <point x="40" y="192"/>
      <point x="85" y="231"/>
      <point x="211" y="257" type="curve" smooth="yes"/>
      <point x="299" y="275" type="line"/>
      <point x="296" y="357"/>
      <point x="264" y="393"/>
      <point x="197" y="393" type="curve" smooth="yes"/>
      <point x="170" y="393"/>
      <point x="142" y="386"/>
      <point x="139" y="379" type="curve" smooth="yes"/>
      <point x="117" y="329" type="line"/>
      <point x="87" y="336" type="line"/>
      <point x="87" y="405" type="line"/>
      <point x="140" y="437" type="line" smooth="yes"/>
      <point x="177" y="460"/>
      <point x="218" y="471"/>
      <point x="260" y="471" type="curve" smooth="yes"/>
      <point x="361" y="471"/>
      <point x="421" y="418"/>
      <point x="421" y="329" type="curve" smooth="yes"/>
      <point x="421" y="322"/>
      <point x="421" y="313"/>
      <point x="420" y="300" type="curve" smooth="yes"/>
      <point x="419" y="262"/>
      <point x="418" y="230"/>
      <point x="418" y="203" type="curve" smooth="yes"/>
      <point x="418" y="179"/>
      <point x="419" y="151"/>
      <point x="420" y="119" type="curve"/>
      <point x="420" y="98" type="line"/>
      <point x="421" y="51"/>
      <point x="426" y="41"/>
      <point x="448" y="37" type="curve"/>
      <point x="478" y="34" type="line"/>
      <point x="478" y="-3" type="line"/>
      <point x="418" y="-1"/>
      <point x="402" y="0"/>
      <point x="390" y="0" type="curve" smooth="yes"/>
      <point x="378" y="0"/>
      <point x="361" y="-1"/>
      <point x="299" y="-3" type="curve"/>
      <point x="294" y="5" type="line"/>
    </contour>
    <contour>
      <point x="299" y="115" type="curve"/>
      <point x="299" y="233" type="line"/>
      <point x="254" y="221" type="line" smooth="yes"/>
      <point x="183" y="202"/>
      <point x="162" y="182"/>
      <point x="162" y="133" type="curve" smooth="yes"/>
      <point x="162" y="94"/>
      <point x="181" y="70"/>
      <point x="213" y="70" type="curve" smooth="yes"/>
      <point x="243" y="70"/>
      <point x="280" y="89"/>
    </contour>
    <contour>
      <point x="390" y="661" type="curve"/>
      <point x="433" y="661" type="line"/>
      <point x="409" y="574"/>
      <point x="373" y="535"/>
      <point x="315" y="535" type="curve" smooth="yes"/>
      <point x="292" y="535"/>
      <point x="271" y="541"/>
      <point x="231" y="560" type="curve" smooth="yes"/>
      <point x="194" y="578"/>
      <point x="173" y="584"/>
      <point x="154" y="584" type="curve" smooth="yes"/>
      <point x="134" y="584"/>
      <point x="118" y="568"/>
      <point x="108" y="536" type="curve"/>
      <point x="68" y="536" type="line"/>
      <point x="76" y="610"/>
      <point x="124" y="661"/>
      <point x="184" y="661" type="curve" smooth="yes"/>
      <point x="207" y="661"/>
      <point x="226" y="655"/>
      <point x="264" y="637" type="curve" smooth="yes"/>
      <point x="302" y="619"/>
      <point x="320" y="613"/>
      <point x="339" y="613" type="curve" smooth="yes"/>
      <point x="363" y="613"/>
      <point x="372" y="622"/>
    </contour>
  </outline>
</glyph>
<glyph name="adieresis" format="1">
  <advance width="500"/>
  <unicode hex="00E4"/>
  <outline>
    <contour>
      <point x="299" y="67" type="line"/>
      <point x="206" y="-5" type="line" smooth="yes"/>
      <point x="196" y="-13"/>
      <point x="179" y="-17"/>
      <point x="157" y="-17" type="curve" smooth="yes"/>
      <point x="81" y="-17"/>
      <point x="40" y="26"/>
      <point x="40" y="107" type="curve" smooth="yes"/>
      <point x="40" y="192"/>
      <point x="85" y="231"/>
      <point x="211" y="257" type="curve" smooth="yes"/>
      <point x="299" y="275" type="line"/>
      <point x="296" y="357"/>
      <point x="264" y="393"/>
      <point x="197" y="393" type="curve" smooth="yes"/>
      <point x="170" y="393"/>
      <point x="142" y="386"/>
      <point x="139" y="379" type="curve" smooth="yes"/>
      <point x="117" y="329" type="line"/>
      <point x="87" y="336" type="line"/>
      <point x="87" y="405" type="line"/>
      <point x="140" y="437" type="line" smooth="yes"/>
      <point x="177" y="460"/>
      <point x="218" y="471"/>
      <point x="260" y="471" type="curve" smooth="yes"/>
      <point x="361" y="471"/>
      <point x="421" y="418"/>
      <point x="421" y="329" type="curve" smooth="yes"/>
      <point x="421" y="322"/>
      <point x="421" y="313"/>
      <point x="420" y="300" type="curve" smooth="yes"/>
      <point x="419" y="262"/>
      <point x="418" y="230"/>
      <point x="418" y="203" type="curve" smooth="yes"/>
      <point x="418" y="179"/>
      <point x="419" y="151"/>
      <point x="420" y="119" type="curve"/>
      <point x="420" y="98" type="line"/>
      <point x="421" y="51"/>
      <point x="426" y="41"/>
      <point x="448" y="37" type="curve"/>
      <point x="478" y="34" type="line"/>
      <point x="478" y="-3" type="line"/>
      <point x="418" y="-1"/>
      <point x="402" y="0"/>
      <point x="390" y="0" type="curve" smooth="yes"/>
      <point x="378" y="0"/>
      <point x="361" y="-1"/>
      <point x="299" y="-3" type="curve"/>
      <point x="294" y="5" type="line"/>
    </contour>
    <contour>
      <point x="299" y="115" type="curve"/>
      <point x="299" y="233" type="line"/>
      <point x="254" y="221" type="line" smooth="yes"/>
      <point x="183" y="202"/>
      <point x="162" y="182"/>
      <point x="162" y="133" type="curve" smooth="yes"/>
      <point x="162" y="94"/>
      <point x="181" y="70"/>
      <point x="213" y="70" type="curve" smooth="yes"/>
      <point x="243" y="70"/>
      <point x="280" y="89"/>
    </contour>
    <contour>
      <point x="358" y="671" type="curve" smooth="yes"/>
      <point x="394" y="671"/>
      <point x="424" y="640"/>
      <point x="424" y="604" type="curve" smooth="yes"/>
      <point x="424" y="567"/>
      <point x="394" y="537"/>
      <point x="357" y="537" type="curve" smooth="yes"/>
      <point x="320" y="537"/>
      <point x="290" y="567"/>
      <point x="290" y="605" type="curve" smooth="yes"/>
      <point x="290" y="641"/>
      <point x="320" y="671"/>
    </contour>
    <contour>
      <point x="143" y="671" type="curve" smooth="yes"/>
      <point x="179" y="671"/>
      <point x="209" y="640"/>
      <point x="209" y="604" type="curve" smooth="yes"/>
      <point x="209" y="567"/>
      <point x="179" y="537"/>
      <point x="142" y="537" type="curve" smooth="yes"/>
      <point x="105" y="537"/>
      <point x="75" y="567"/>
      <point x="75" y="604" type="curve" smooth="yes"/>
      <point x="75" y="641"/>
      <point x="105" y="671"/>
    </contour>
  </outline>
</glyph>
<glyph name="aring" format="1">
  <advance width="500"/>
  <unicode hex="00E5"/>
  <outline>
    <contour>
      <point x="299" y="67" type="line"/>
      <point x="206" y="-5" type="line" smooth="yes"/>
      <point x="196" y="-13"/>
      <point x="179" y="-17"/>
      <point x="157" y="-17" type="curve" smooth="yes"/>
      <point x="81" y="-17"/>
      <point x="40" y="26"/>
      <point x="40" y="107" type="curve" smooth="yes"/>
      <point x="40" y="192"/>
      <point x="85" y="231"/>
      <point x="211" y="257" type="curve" smooth="yes"/>
      <point x="299" y="275" type="line"/>
      <point x="296" y="357"/>
      <point x="264" y="393"/>
      <point x="197" y="393" type="curve" smooth="yes"/>
      <point x="170" y="393"/>
      <point x="142" y="386"/>
      <point x="139" y="379" type="curve" smooth="yes"/>
      <point x="117" y="329" type="line"/>
      <point x="87" y="336" type="line"/>
      <point x="87" y="405" type="line"/>
      <point x="140" y="437" type="line" smooth="yes"/>
      <point x="177" y="460"/>
      <point x="218" y="471"/>
      <point x="260" y="471" type="curve" smooth="yes"/>
      <point x="361" y="471"/>
      <point x="421" y="418"/>
      <point x="421" y="329" type="curve" smooth="yes"/>
      <point x="421" y="322"/>
      <point x="421" y="313"/>
      <point x="420" y="300" type="curve" smooth="yes"/>
      <point x="419" y="262"/>
      <point x="418" y="230"/>
      <point x="418" y="203" type="curve" smooth="yes"/>
      <point x="418" y="179"/>
      <point x="419" y="151"/>
      <point x="420" y="119" type="curve"/>
      <point x="420" y="98" type="line"/>
      <point x="421" y="51"/>
      <point x="426" y="41"/>
      <point x="448" y="37" type="curve"/>
      <point x="478" y="34" type="line"/>
      <point x="478" y="-3" type="line"/>
      <point x="418" y="-1"/>
      <point x="402" y="0"/>
      <point x="390" y="0" type="curve" smooth="yes"/>
      <point x="378" y="0"/>
      <point x="361" y="-1"/>
      <point x="299" y="-3" type="curve"/>
      <point x="294" y="5" type="line"/>
    </contour>
    <contour>
      <point x="299" y="115" type="curve"/>
      <point x="299" y="233" type="line"/>
      <point x="254" y="221" type="line" smooth="yes"/>
      <point x="183" y="202"/>
      <point x="162" y="182"/>
      <point x="162" y="133" type="curve" smooth="yes"/>
      <point x="162" y="94"/>
      <point x="181" y="70"/>
      <point x="213" y="70" type="curve" smooth="yes"/>
      <point x="243" y="70"/>
      <point x="280" y="89"/>
    </contour>
    <contour>
      <point x="256" y="700" type="curve" smooth="yes"/>
      <point x="309" y="700"/>
      <point x="354" y="654"/>
      <point x="354" y="600" type="curve" smooth="yes"/>
      <point x="354" y="545"/>
      <point x="309" y="500"/>
      <point x="254" y="500" type="curve" smooth="yes"/>
      <point x="199" y="500"/>
      <point x="154" y="545"/>
      <point x="154" y="601" type="curve" smooth="yes"/>
      <point x="154" y="656"/>
      <point x="199" y="700"/>
    </contour>
    <contour>
      <point x="255" y="650" type="curve" smooth="yes"/>
      <point x="226" y="650"/>
      <point x="204" y="628"/>
      <point x="204" y="600" type="curve" smooth="yes"/>
      <point x="204" y="572"/>
      <point x="226" y="550"/>
      <point x="254" y="550" type="curve" smooth="yes"/>
      <point x="282" y="550"/>
      <point x="304" y="572"/>
      <point x="304" y="600" type="curve" smooth="yes"/>
      <point x="304" y="627"/>
      <point x="282" y="650"/>
    </contour>
  </outline>
</glyph>
<glyph name="igrave" format="1">
  <advance width="333"/>
  <unicode hex="00EC"/>
  <outline>
    <contour>
      <point x="217" y="471" type="line"/>
      <point x="227" y="465" type="line"/>
      <point x="227" y="100" type="line" smooth="yes"/>
      <point x="227" y="46"/>
      <point x="232" y="38"/>
      <point x="263" y="36" type="curve" smooth="yes"/>
      <point x="298" y="34" type="line"/>
      <point x="298" y="-3" type="line"/>
      <point x="231" y="-1"/>
      <point x="183" y="0"/>
      <point x="163" y="0" type="curve" smooth="yes"/>
      <point x="34" y="-3" type="line"/>
      <point x="34" y="34" type="line"/>
      <point x="69" y="36" type="line" smooth="yes"/>
      <point x="100" y="38"/>
      <point x="105" y="46"/>
      <point x="105" y="100" type="curve" smooth="yes"/>
      <point x="105" y="319" type="line" smooth="yes"/>
      <point x="105" y="378"/>
      <point x="102" y="387"/>
      <point x="79" y="389" type="curve" smooth="yes"/>
      <point x="34" y="392" type="line"/>
      <point x="34" y="428" type="line"/>
      <point x="41" y="429"/>
      <point x="46" y="430"/>
      <point x="49" y="430" type="curve" smooth="yes"/>
      <point x="91" y="435"/>
      <point x="115" y="439"/>
      <point x="147" y="449" type="curve" smooth="yes"/>
    </contour>
    <contour>
      <point x="200" y="506" type="line"/>
      <point x="69" y="587" type="line" smooth="yes"/>
      <point x="65" y="589"/>
      <point x="62" y="591"/>
      <point x="58" y="594" type="curve" smooth="yes"/>
      <point x="28" y="611"/>
      <point x="18" y="625"/>
      <point x="18" y="647" type="curve" smooth="yes"/>
      <point x="18" y="674"/>
      <point x="35" y="691"/>
      <point x="62" y="691" type="curve" smooth="yes"/>
      <point x="85" y="691"/>
      <point x="104" y="680"/>
      <point x="127" y="654" type="curve" smooth="yes"/>
      <point x="256" y="506" type="line"/>
    </contour>
  </outline>
</glyph>
<glyph name="iacute" format="1">
  <advance width="333"/>
  <unicode hex="00ED"/>
  <outline>
    <contour>
      <point x="217" y="471" type="line"/>
      <point x="227" y="465" type="line"/>
      <point x="227" y="100" type="line" smooth="yes"/>
      <point x="227" y="46"/>
      <point x="232" y="38"/>
      <point x="263" y="36" type="curve" smooth="yes"/>
      <point x="298" y="34" type="line"/>
      <point x="298" y="-3" type="line"/>
      <point x="231" y="-1"/>
      <point x="183" y="0"/>
      <point x="163" y="0" type="curve" smooth="yes"/>
      <point x="34" y="-3" type="line"/>
      <point x="34" y="34" type="line"/>
      <point x="69" y="36" type="line" smooth="yes"/>
      <point x="100" y="38"/>
      <point x="105" y="46"/>
      <point x="105" y="100" type="curve" smooth="yes"/>
      <point x="105" y="319" type="line" smooth="yes"/>
      <point x="105" y="378"/>
      <point x="102" y="387"/>
      <point x="79" y="389" type="curve" smooth="yes"/>
      <point x="34" y="392" type="line"/>
      <point x="34" y="428" type="line"/>
      <point x="41" y="429"/>
      <point x="46" y="430"/>
      <point x="49" y="430" type="curve" smooth="yes"/>
      <point x="91" y="435"/>
      <point x="115" y="439"/>
      <point x="147" y="449" type="curve" smooth="yes"/>
    </contour>
    <contour>
      <point x="78" y="506" type="line"/>
      <point x="207" y="654" type="line" smooth="yes"/>
      <point x="230" y="680"/>
      <point x="248" y="691"/>
      <point x="272" y="691" type="curve" smooth="yes"/>
      <point x="298" y="691"/>
      <point x="316" y="674"/>
      <point x="316" y="647" type="curve" smooth="yes"/>
      <point x="316" y="625"/>
      <point x="306" y="611"/>
      <point x="273" y="592" type="curve"/>
      <point x="265" y="587" type="line"/>
      <point x="134" y="506" type="line"/>
    </contour>
  </outline>
</glyph>
<glyph name="idieresis" format="1">
  <advance width="333"/>
  <unicode hex="00EF"/>
  <outline>
    <contour>
      <point x="217" y="471" type="line"/>
      <point x="227" y="465" type="line"/>
      <point x="227" y="100" type="line" smooth="yes"/>
      <point x="227" y="46"/>
      <point x="232" y="38"/>
      <point x="263" y="36" type="curve" smooth="yes"/>
      <point x="298" y="34" type="line"/>
      <point x="298" y="-3" type="line"/>
      <point x="231" y="-1"/>
      <point x="183" y="0"/>
      <point x="163" y="0" type="curve" smooth="yes"/>
      <point x="34" y="-3" type="line"/>
      <point x="34" y="34" type="line"/>
      <point x="69" y="36" type="line" smooth="yes"/>
      <point x="100" y="38"/>
      <point x="105" y="46"/>
      <point x="105" y="100" type="curve" smooth="yes"/>
      <point x="105" y="319" type="line" smooth="yes"/>
      <point x="105" y="378"/>
      <point x="102" y="387"/>
      <point x="79" y="389" type="curve" smooth="yes"/>
      <point x="34" y="392" type="line"/>
      <point x="34" y="428" type="line"/>
      <point x="41" y="429"/>
      <point x="46" y="430"/>
      <point x="49" y="430" type="curve" smooth="yes"/>
      <point x="91" y="435"/>
      <point x="115" y="439"/>
      <point x="147" y="449" type="curve" smooth="yes"/>
    </contour>
    <contour>
      <point x="275" y="691" type="curve" smooth="yes"/>
      <point x="311" y="691"/>
      <point x="341" y="660"/>
      <point x="341" y="624" type="curve" smooth="yes"/>
      <point x="341" y="587"/>
      <point x="311" y="557"/>
      <point x="274" y="557" type="curve" smooth="yes"/>
      <point x="237" y="557"/>
      <point x="207" y="587"/>
      <point x="207" y="625" type="curve" smooth="yes"/>
      <point x="207" y="661"/>
      <point x="237" y="691"/>
    </contour>
    <contour>
      <point x="60" y="691" type="curve" smooth="yes"/>
      <point x="96" y="691"/>
      <point x="126" y="660"/>
      <point x="126" y="624" type="curve" smooth="yes"/>
      <point x="126" y="587"/>
      <point x="96" y="557"/>
      <point x="59" y="557" type="curve" smooth="yes"/>
      <point x="22" y="557"/>
      <point x="-8" y="587"/>
      <point x="-8" y="624" type="curve" smooth="yes"/>
      <point x="-8" y="661"/>
      <point x="22" y="691"/>
    </contour>
  </outline>
</glyph>
<glyph name="ntilde" format="1">
  <advance width="611"/>
  <unicode hex="00F1"/>
  <outline>
    <contour>
      <point x="24" y="392" type="line"/>
      <point x="24" y="428" type="line"/>
      <point x="79" y="431"/>
      <point x="107" y="437"/>
      <point x="211" y="471" type="curve"/>
      <point x="217" y="465" type="line"/>
      <point x="217" y="390" type="line"/>
      <point x="297" y="452" type="line" smooth="yes"/>
      <point x="313" y="465"/>
      <point x="337" y="471"/>
      <point x="367" y="471" type="curve" smooth="yes"/>
      <point x="416" y="471"/>
      <point x="457" y="456"/>
      <point x="483" y="429" type="curve" smooth="yes"/>
      <point x="509" y="401"/>
      <point x="518" y="363"/>
      <point x="518" y="286" type="curve" smooth="yes"/>
      <point x="518" y="100" type="line" smooth="yes"/>
      <point x="518" y="46"/>
      <point x="523" y="38"/>
      <point x="554" y="36" type="curve" smooth="yes"/>
      <point x="587" y="34" type="line"/>
      <point x="587" y="-3" type="line"/>
      <point x="500" y="0"/>
      <point x="500" y="0"/>
      <point x="486" y="0" type="curve" smooth="yes"/>
      <point x="470" y="0"/>
      <point x="453" y="-1"/>
      <point x="396" y="-3" type="curve"/>
      <point x="396" y="270" type="line" smooth="yes"/>
      <point x="396" y="350"/>
      <point x="368" y="385"/>
      <point x="302" y="385" type="curve" smooth="yes"/>
      <point x="258" y="385"/>
      <point x="217" y="352"/>
      <point x="217" y="317" type="curve" smooth="yes"/>
      <point x="217" y="100" type="line" smooth="yes"/>
      <point x="217" y="46"/>
      <point x="222" y="38"/>
      <point x="253" y="36" type="curve" smooth="yes"/>
      <point x="288" y="34" type="line"/>
      <point x="288" y="-3" type="line"/>
      <point x="221" y="-1"/>
      <point x="173" y="0"/>
      <point x="153" y="0" type="curve" smooth="yes"/>
      <point x="24" y="-3" type="line"/>
      <point x="24" y="34" type="line"/>
      <point x="59" y="36" type="line" smooth="yes"/>
      <point x="90" y="38"/>
      <point x="95" y="46"/>
      <point x="95" y="100" type="curve" smooth="yes"/>
      <point x="95" y="319" type="line" smooth="yes"/>
      <point x="95" y="378"/>
      <point x="92" y="387"/>
      <point x="69" y="389" type="curve" smooth="yes"/>
    </contour>
    <contour>
      <point x="445" y="661" type="curve"/>
      <point x="488" y="661" type="line"/>
      <point x="464" y="574"/>
      <point x="428" y="535"/>
      <point x="370" y="535" type="curve" smooth="yes"/>
      <point x="347" y="535"/>
      <point x="326" y="541"/>
      <point x="286" y="560" type="curve" smooth="yes"/>
      <point x="249" y="578"/>
      <point x="228" y="584"/>
      <point x="209" y="584" type="curve" smooth="yes"/>
      <point x="189" y="584"/>
      <point x="173" y="568"/>
      <point x="163" y="536" type="curve"/>
      <point x="123" y="536" type="line"/>
      <point x="131" y="610"/>
      <point x="179" y="661"/>
      <point x="239" y="661" type="curve" smooth="yes"/>
      <point x="262" y="661"/>
      <point x="281" y="655"/>
      <point x="319" y="637" type="curve" smooth="yes"/>
      <point x="357" y="619"/>
      <point x="375" y="613"/>
      <point x="394" y="613" type="curve" smooth="yes"/>
      <point x="418" y="613"/>
      <point x="427" y="622"/>
    </contour>
  </outline>
</glyph>
<glyph name="oacute" format="1">
  <advance width="556"/>
  <unicode hex="00F3"/>
  <outline>
    <contour>
      <point x="287" y="471" type="curve" smooth="yes"/>
      <point x="435" y="471"/>
      <point x="517" y="388"/>
      <point x="517" y="236" type="curve" smooth="yes"/>
      <point x="517" y="74"/>
      <point x="427" y="-17"/>
      <point x="267" y="-17" type="curve" smooth="yes"/>
      <point x="122" y="-17"/>
      <point x="40" y="70"/>
      <point x="40" y="224" type="curve" smooth="yes"/>
      <point x="40" y="383"/>
      <point x="128" y="471"/>
    </contour>
    <contour>
      <point x="275" y="423" type="curve" smooth="yes"/>
      <point x="206" y="423"/>
      <point x="176" y="369"/>
      <point x="176" y="248" type="curve" smooth="yes"/>
      <point x="176" y="104"/>
      <point x="213" y="31"/>
      <point x="285" y="31" type="curve" smooth="yes"/>
      <point x="353" y="31"/>
      <point x="381" y="83"/>
      <point x="381" y="205" type="curve" smooth="yes"/>
      <point x="381" y="352"/>
      <point x="347" y="423"/>
    </contour>
    <contour>
      <point x="190" y="506" type="line"/>
      <point x="319" y="654" type="line" smooth="yes"/>
      <point x="342" y="680"/>
      <point x="360" y="691"/>
      <point x="384" y="691" type="curve" smooth="yes"/>
      <point x="410" y="691"/>
      <point x="428" y="674"/>
      <point x="428" y="647" type="curve" smooth="yes"/>
      <point x="428" y="625"/>
      <point x="418" y="611"/>
      <point x="385" y="592" type="curve"/>
      <point x="377" y="587" type="line"/>
      <point x="246" y="506" type="line"/>
    </contour>
  </outline>
</glyph>
<glyph name="otilde" format="1">
  <advance width="556"/>
  <unicode hex="00F5"/>
  <outline>
    <contour>
      <point x="287" y="471" type="curve" smooth="yes"/>
      <point x="435" y="471"/>
      <point x="517" y="388"/>
      <point x="517" y="236" type="curve" smooth="yes"/>
      <point x="517" y="74"/>
      <point x="427" y="-17"/>
      <point x="267" y="-17" type="curve" smooth="yes"/>
      <point x="122" y="-17"/>
      <point x="40" y="70"/>
      <point x="40" y="224" type="curve" smooth="yes"/>
      <point x="40" y="383"/>
      <point x="128" y="471"/>
    </contour>
    <contour>
      <point x="275" y="423" type="curve" smooth="yes"/>
      <point x="206" y="423"/>
      <point x="176" y="369"/>
      <point x="176" y="248" type="curve" smooth="yes"/>
      <point x="176" y="104"/>
      <point x="213" y="31"/>
      <point x="285" y="31" type="curve" smooth="yes"/>
      <point x="353" y="31"/>
      <point x="381" y="83"/>
      <point x="381" y="205" type="curve" smooth="yes"/>
      <point x="381" y="352"/>
      <point x="347" y="423"/>
    </contour>
    <contour>
      <point x="418" y="661" type="curve"/>
      <point x="461" y="661" type="line"/>
      <point x="437" y="574"/>
      <point x="401" y="535"/>
      <point x="343" y="535" type="curve" smooth="yes"/>
      <point x="320" y="535"/>
      <point x="299" y="541"/>
      <point x="259" y="560" type="curve" smooth="yes"/>
      <point x="222" y="578"/>
      <point x="201" y="584"/>
      <point x="182" y="584" type="curve" smooth="yes"/>
      <point x="162" y="584"/>
      <point x="146" y="568"/>
      <point x="136" y="536" type="curve"/>
      <point x="96" y="536" type="line"/>
      <point x="104" y="610"/>
      <point x="152" y="661"/>
      <point x="212" y="661" type="curve" smooth="yes"/>
      <point x="235" y="661"/>
      <point x="254" y="655"/>
      <point x="292" y="637" type="curve" smooth="yes"/>
      <point x="330" y="619"/>
      <point x="348" y="613"/>
      <point x="367" y="613" type="curve" smooth="yes"/>
      <point x="391" y="613"/>
      <point x="400" y="622"/>
    </contour>
  </outline>
</glyph>
<glyph name="odieresis" format="1">
  <advance width="556"/>
  <unicode hex="00F6"/>
  <outline>
    <contour>
      <point x="287" y="471" type="curve" smooth="yes"/>
      <point x="435" y="471"/>
      <point x="517" y="388"/>
      <point x="517" y="236" type="curve" smooth="yes"/>
      <point x="517" y="74"/>
      <point x="427" y="-17"/>
      <point x="267" y="-17" type="curve" smooth="yes"/>
      <point x="122" y="-17"/>
      <point x="40" y="70"/>
      <point x="40" y="224" type="curve" smooth="yes"/>
      <point x="40" y="383"/>
      <point x="128" y="471"/>
    </contour>
    <contour>
      <point x="275" y="423" type="curve" smooth="yes"/>
      <point x="206" y="423"/>
      <point x="176" y="369"/>
      <point x="176" y="248" type="curve" smooth="yes"/>
      <point x="176" y="104"/>
      <point x="213" y="31"/>
      <point x="285" y="31" type="curve" smooth="yes"/>
      <point x="353" y="31"/>
      <point x="381" y="83"/>
      <point x="381" y="205" type="curve" smooth="yes"/>
      <point x="381" y="352"/>
      <point x="347" y="423"/>
    </contour>
    <contour>
      <point x="386" y="671" type="curve" smooth="yes"/>
      <point x="422" y="671"/>
      <point x="452" y="640"/>
      <point x="452" y="604" type="curve" smooth="yes"/>
      <point x="452" y="567"/>
      <point x="422" y="537"/>
      <point x="385" y="537" type="curve" smooth="yes"/>
      <point x="348" y="537"/>
      <point x="318" y="567"/>
      <point x="318" y="605" type="curve" smooth="yes"/>
      <point x="318" y="641"/>
      <point x="348" y="671"/>
    </contour>
    <contour>
      <point x="171" y="671" type="curve" smooth="yes"/>
      <point x="207" y="671"/>
      <point x="237" y="640"/>
      <point x="237" y="604" type="curve" smooth="yes"/>
      <point x="237" y="567"/>
      <point x="207" y="537"/>
      <point x="170" y="537" type="curve" smooth="yes"/>
      <point x="133" y="537"/>
      <point x="103" y="567"/>
      <point x="103" y="604" type="curve" smooth="yes"/>
      <point x="103" y="641"/>
      <point x="133" y="671"/>
    </contour>
  </outline>
</glyph>
<glyph name="divide" format="1">
  <advance width="606"/>
  <unicode hex="00F7"/>
  <outline>
    <contour>
      <point x="51" y="212" type="line"/>
      <point x="51" y="298" type="line"/>
      <point x="555" y="298" type="line"/>
      <point x="555" y="212" type="line"/>
    </contour>
    <contour>
      <point x="303" y="510" type="curve" smooth="yes"/>
      <point x="340" y="510"/>
      <point x="370" y="480"/>
      <point x="370" y="442" type="curve" smooth="yes"/>
      <point x="370" y="406"/>
      <point x="340" y="376"/>
      <point x="302" y="376" type="curve" smooth="yes"/>
      <point x="266" y="376"/>
      <point x="236" y="407"/>
      <point x="236" y="443" type="curve" smooth="yes"/>
      <point x="236" y="480"/>
      <point x="266" y="510"/>
    </contour>
    <contour>
      <point x="303" y="134" type="curve" smooth="yes"/>
      <point x="340" y="134"/>
      <point x="370" y="104"/>
      <point x="370" y="66" type="curve" smooth="yes"/>
      <point x="370" y="30"/>
      <point x="340" y="0"/>
      <point x="302" y="0" type="curve" smooth="yes"/>
      <point x="266" y="0"/>
      <point x="236" y="31"/>
      <point x="236" y="67" type="curve" smooth="yes"/>
      <point x="236" y="104"/>
      <point x="266" y="134"/>
    </contour>
  </outline>
</glyph>
<glyph name="thorn" format="1">
  <advance width="611"/>
  <unicode hex="00FE"/>
  <outline>
    <contour>
      <point x="210" y="720" type="line"/>
      <point x="218" y="714" type="line"/>
      <point x="218" y="383" type="line"/>
      <point x="279" y="432" type="line" smooth="yes"/>
      <point x="314" y="460"/>
      <point x="343" y="471"/>
      <point x="382" y="471" type="curve" smooth="yes"/>
      <point x="486" y="471"/>
      <point x="563" y="392"/>
      <point x="563" y="286" type="curve" smooth="yes"/>
      <point x="563" y="196"/>
      <point x="527" y="118"/>
      <point x="461" y="68" type="curve" smooth="yes"/>
      <point x="444" y="55" type="line"/>
      <point x="376" y="1"/>
      <point x="341" y="-17"/>
      <point x="307" y="-17" type="curve" smooth="yes"/>
      <point x="283" y="-17"/>
      <point x="267" y="-14"/>
      <point x="218" y="0" type="curve"/>
      <point x="218" y="-155" type="line" smooth="yes"/>
      <point x="218" y="-209"/>
      <point x="223" y="-218"/>
      <point x="254" y="-219" type="curve" smooth="yes"/>
      <point x="299" y="-221" type="line"/>
      <point x="299" y="-258" type="line"/>
      <point x="169" y="-255"/>
      <point x="167" y="-255"/>
      <point x="154" y="-255" type="curve" smooth="yes"/>
      <point x="25" y="-258" type="line"/>
      <point x="25" y="-221" type="line"/>
      <point x="60" y="-219" type="line" smooth="yes"/>
      <point x="91" y="-217"/>
      <point x="96" y="-209"/>
      <point x="96" y="-155" type="curve" smooth="yes"/>
      <point x="96" y="568" type="line" smooth="yes"/>
      <point x="96" y="627"/>
      <point x="92" y="637"/>
      <point x="70" y="638" type="curve" smooth="yes"/>
      <point x="17" y="641" type="line"/>
      <point x="17" y="677" type="line"/>
      <point x="75" y="683"/>
      <point x="109" y="689"/>
      <point x="138" y="698" type="curve" smooth="yes"/>
    </contour>
    <contour>
      <point x="218" y="331" type="curve"/>
      <point x="218" y="106" type="line"/>
      <point x="245" y="68"/>
      <point x="277" y="51"/>
      <point x="319" y="51" type="curve" smooth="yes"/>
      <point x="392" y="51"/>
      <point x="437" y="117"/>
      <point x="437" y="221" type="curve" smooth="yes"/>
      <point x="437" y="321"/>
      <point x="391" y="381"/>
      <point x="314" y="381" type="curve" smooth="yes"/>
      <point x="273" y="381"/>
      <point x="240" y="364"/>
    </contour>
  </outline>
</glyph>
<glyph name="aogonek" format="1">
  <advance width="500"/>
  <unicode hex="0105"/>
  <outline>
    <contour>
      <point x="478" y="34" type="line"/>
      <point x="478" y="-3" type="line"/>
      <point x="475" y="-2"/>
      <point x="473" y="-2"/>
      <point x="471" y="-2" type="curve" smooth="yes"/>
      <point x="445" y="0"/>
      <point x="406" y="-69"/>
      <point x="406" y="-115" type="curve" smooth="yes"/>
      <point x="406" y="-159"/>
      <point x="431" y="-187"/>
      <point x="470" y="-187" type="curve" smooth="yes"/>
      <point x="492" y="-187"/>
      <point x="508" y="-183"/>
      <point x="538" y="-172" type="curve"/>
      <point x="544" y="-198" type="line"/>
      <point x="514" y="-219"/>
      <point x="477" y="-229"/>
      <point x="433" y="-229" type="curve" smooth="yes"/>
      <point x="368" y="-229"/>
      <point x="330" y="-191"/>
      <point x="330" y="-127" type="curve" smooth="yes"/>
      <point x="330" y="-83"/>
      <point x="348" y="-45"/>
      <point x="381" y="-21" type="curve" smooth="yes"/>
      <point x="391" y="-14"/>
      <point x="398" y="-11"/>
      <point x="422" y="-1" type="curve"/>
      <point x="393" y="0"/>
      <point x="393" y="0"/>
      <point x="389" y="0" type="curve" smooth="yes"/>
      <point x="379" y="0"/>
      <point x="379" y="0"/>
      <point x="299" y="-3" type="curve"/>
      <point x="294" y="5" type="line"/>
      <point x="299" y="67" type="line"/>
      <point x="206" y="-5" type="line" smooth="yes"/>
      <point x="196" y="-13"/>
      <point x="179" y="-17"/>
      <point x="157" y="-17" type="curve" smooth="yes"/>
      <point x="81" y="-17"/>
      <point x="40" y="26"/>
      <point x="40" y="107" type="curve" smooth="yes"/>
      <point x="40" y="192"/>
      <point x="85" y="231"/>
      <point x="211" y="257" type="curve" smooth="yes"/>
      <point x="299" y="275" type="line"/>
      <point x="296" y="357"/>
      <point x="264" y="393"/>
      <point x="197" y="393" type="curve" smooth="yes"/>
      <point x="170" y="393"/>
      <point x="142" y="386"/>
      <point x="139" y="379" type="curve" smooth="yes"/>
      <point x="117" y="329" type="line"/>
      <point x="87" y="336" type="line"/>
      <point x="87" y="405" type="line"/>
      <point x="140" y="437" type="line" smooth="yes"/>
      <point x="177" y="460"/>
      <point x="218" y="471"/>
      <point x="260" y="471" type="curve" smooth="yes"/>
      <point x="361" y="471"/>
      <point x="421" y="418"/>
      <point x="421" y="329" type="curve" smooth="yes"/>
      <point x="421" y="322"/>
      <point x="421" y="313"/>
      <point x="420" y="300" type="curve" smooth="yes"/>
      <point x="419" y="262"/>
      <point x="418" y="230"/>
      <point x="418" y="203" type="curve" smooth="yes"/>
      <point x="418" y="179"/>
      <point x="419" y="151"/>
      <point x="420" y="119" type="curve"/>
      <point x="420" y="98" type="line"/>
      <point x="421" y="51"/>
      <point x="426" y="41"/>
      <point x="448" y="37" type="curve"/>
    </contour>
    <contour>
      <point x="299" y="115" type="curve"/>
      <point x="299" y="233" type="line"/>
      <point x="254" y="221" type="line" smooth="yes"/>
      <point x="183" y="202"/>
      <point x="162" y="182"/>
      <point x="162" y="133" type="curve" smooth="yes"/>
      <point x="162" y="94"/>
      <point x="181" y="70"/>
      <point x="213" y="70" type="curve" smooth="yes"/>
      <point x="243" y="70"/>
      <point x="280" y="89"/>
    </contour>
  </outline>
</glyph>
<glyph name="Cacute" format="1">
  <advance width="722"/>
  <unicode hex="0106"/>
  <outline>
    <contour>
      <point x="692" y="87" type="line"/>
      <point x="670" y="38" type="line"/>
      <point x="596" y="-3"/>
      <point x="537" y="-17"/>
      <point x="445" y="-17" type="curve" smooth="yes"/>
      <point x="198" y="-17"/>
      <point x="44" y="123"/>
      <point x="44" y="347" type="curve" smooth="yes"/>
      <point x="44" y="561"/>
      <point x="202" y="695"/>
      <point x="455" y="695" type="curve" smooth="yes"/>
      <point x="542" y="695"/>
      <point x="598" y="684"/>
      <point x="689" y="648" type="curve"/>
      <point x="695" y="637" type="line"/>
      <point x="686" y="599"/>
      <point x="683" y="580"/>
      <point x="672" y="484" type="curve"/>
      <point x="633" y="484" type="line"/>
      <point x="628" y="570" type="line"/>
      <point x="574" y="620"/>
      <point x="525" y="639"/>
      <point x="450" y="639" type="curve" smooth="yes"/>
      <point x="292" y="639"/>
      <point x="194" y="533"/>
      <point x="194" y="361" type="curve" smooth="yes"/>
      <point x="194" y="172"/>
      <point x="310" y="48"/>
      <point x="485" y="48" type="curve" smooth="yes"/>
      <point x="550" y="48"/>
      <point x="615" y="65"/>
      <point x="680" y="99" type="curve"/>
    </contour>
    <contour>
      <point x="353" y="730" type="line"/>
      <point x="482" y="878" type="line" smooth="yes"/>
      <point x="505" y="904"/>
      <point x="523" y="915"/>
      <point x="547" y="915" type="curve" smooth="yes"/>
      <point x="573" y="915"/>
      <point x="591" y="898"/>
      <point x="591" y="871" type="curve" smooth="yes"/>
      <point x="591" y="849"/>
      <point x="581" y="835"/>
      <point x="548" y="816" type="curve"/>
      <point x="540" y="811" type="line"/>
      <point x="409" y="730" type="line"/>
    </contour>
  </outline>
</glyph>
<glyph name="ccaron" format="1">
  <advance width="444"/>
  <unicode hex="010D"/>
  <outline>
    <contour>
      <point x="390" y="297" type="curve"/>
      <point x="354" y="297" type="line"/>
      <point x="347" y="357" type="line" smooth="yes"/>
      <point x="344" y="380"/>
      <point x="304" y="400"/>
      <point x="259" y="400" type="curve" smooth="yes"/>
      <point x="195" y="400"/>
      <point x="161" y="351"/>
      <point x="161" y="260" type="curve" smooth="yes"/>
      <point x="161" y="133"/>
      <point x="222" y="54"/>
      <point x="320" y="54" type="curve" smooth="yes"/>
      <point x="349" y="54"/>
      <point x="371" y="59"/>
      <point x="405" y="73" type="curve"/>
      <point x="414" y="63" type="line"/>
      <point x="393" y="17" type="line"/>
      <point x="346" y="-8"/>
      <point x="309" y="-17"/>
      <point x="259" y="-17" type="curve" smooth="yes"/>
      <point x="116" y="-17"/>
      <point x="37" y="70"/>
      <point x="37" y="229" type="curve" smooth="yes"/>
      <point x="37" y="316"/>
      <point x="69" y="366"/>
      <point x="158" y="419" type="curve" smooth="yes"/>
      <point x="210" y="450" type="line" smooth="yes"/>
      <point x="234" y="464"/>
      <point x="262" y="471"/>
      <point x="300" y="471" type="curve" smooth="yes"/>
      <point x="336" y="471"/>
      <point x="357" y="467"/>
      <point x="403" y="451" type="curve"/>
      <point x="410" y="438" type="line"/>
      <point x="401" y="394"/>
      <point x="396" y="361"/>
    </contour>
    <contour>
      <point x="308" y="510" type="line"/>
      <point x="215" y="510" type="line"/>
      <point x="94" y="685" type="line"/>
      <point x="149" y="685" type="line"/>
      <point x="262" y="587" type="line"/>
      <point x="374" y="685" type="line"/>
      <point x="431" y="685" type="line"/>
    </contour>
  </outline>
</glyph>
<glyph name="dcroat" format="1">
  <advance width="611"/>
  <unicode hex="0111"/>
  <outline>
    <contour>
      <point x="508" y="580" type="line"/>
      <point x="591" y="580" type="line"/>
      <point x="591" y="538" type="line"/>
      <point x="508" y="538" type="line"/>
      <point x="508" y="100" type="line" smooth="yes"/>
      <point x="508" y="46"/>
      <point x="513" y="38"/>
      <point x="544" y="36" type="curve" smooth="yes"/>
      <point x="577" y="34" type="line"/>
      <point x="577" y="-3" type="line"/>
      <point x="556" y="-2"/>
      <point x="537" y="-2"/>
      <point x="530" y="-2" type="curve" smooth="yes"/>
      <point x="502" y="-1"/>
      <point x="484" y="0"/>
      <point x="476" y="0" type="curve" smooth="yes"/>
      <point x="465" y="0"/>
      <point x="446" y="-1"/>
      <point x="386" y="-3" type="curve"/>
      <point x="381" y="5" type="line"/>
      <point x="386" y="80" type="line"/>
      <point x="282" y="-5" type="line" smooth="yes"/>
      <point x="272" y="-13"/>
      <point x="256" y="-17"/>
      <point x="233" y="-17" type="curve" smooth="yes"/>
      <point x="116" y="-17"/>
      <point x="42" y="74"/>
      <point x="42" y="217" type="curve" smooth="yes"/>
      <point x="42" y="303"/>
      <point x="69" y="360"/>
      <point x="126" y="398" type="curve" smooth="yes"/>
      <point x="198" y="445" type="line" smooth="yes"/>
      <point x="224" y="462"/>
      <point x="254" y="471"/>
      <point x="285" y="471" type="curve" smooth="yes"/>
      <point x="311" y="471"/>
      <point x="338" y="465"/>
      <point x="366" y="454" type="curve" smooth="yes"/>
      <point x="386" y="446" type="line"/>
      <point x="386" y="538" type="line"/>
      <point x="260" y="538" type="line"/>
      <point x="260" y="580" type="line"/>
      <point x="386" y="580" type="line"/>
      <point x="385" y="629"/>
      <point x="382" y="636"/>
      <point x="360" y="638" type="curve" smooth="yes"/>
      <point x="307" y="641" type="line"/>
      <point x="307" y="677" type="line"/>
      <point x="365" y="683"/>
      <point x="399" y="689"/>
      <point x="428" y="698" type="curve" smooth="yes"/>
      <point x="500" y="720" type="line"/>
      <point x="508" y="714" type="line"/>
    </contour>
    <contour>
      <point x="386" y="160" type="curve" smooth="yes"/>
      <point x="386" y="344" type="line"/>
      <point x="353" y="387"/>
      <point x="317" y="407"/>
      <point x="273" y="407" type="curve" smooth="yes"/>
      <point x="203" y="407"/>
      <point x="168" y="356"/>
      <point x="168" y="255" type="curve" smooth="yes"/>
      <point x="168" y="147"/>
      <point x="213" y="78"/>
      <point x="284" y="78" type="curve" smooth="yes"/>
      <point x="339" y="78"/>
      <point x="386" y="115"/>
    </contour>
  </outline>
</glyph>
<glyph name="Eogonek" format="1">
  <advance width="611"/>
  <unicode hex="0118"/>
  <outline>
    <contour>
      <point x="265" y="325" type="curve"/>
      <point x="265" y="58" type="line"/>
      <point x="316" y="56"/>
      <point x="355" y="55"/>
      <point x="396" y="55" type="curve" smooth="yes"/>
      <point x="452" y="55"/>
      <point x="481" y="59"/>
      <point x="512" y="69" type="curve" smooth="yes"/>
      <point x="514" y="70"/>
      <point x="515" y="71"/>
      <point x="515" y="72" type="curve" smooth="yes"/>
      <point x="538" y="166" type="line"/>
      <point x="577" y="166" type="line"/>
      <point x="566" y="8" type="line"/>
      <point x="561" y="0" type="line"/>
      <point x="557" y="0" type="line"/>
      <point x="549" y="-1" type="line"/>
      <point x="527" y="-2"/>
      <point x="509" y="-18"/>
      <point x="492" y="-53" type="curve" smooth="yes"/>
      <point x="481" y="-74"/>
      <point x="475" y="-95"/>
      <point x="475" y="-115" type="curve" smooth="yes"/>
      <point x="475" y="-159"/>
      <point x="500" y="-187"/>
      <point x="539" y="-187" type="curve" smooth="yes"/>
      <point x="561" y="-187"/>
      <point x="577" y="-183"/>
      <point x="607" y="-172" type="curve"/>
      <point x="613" y="-198" type="line"/>
      <point x="583" y="-219"/>
      <point x="546" y="-229"/>
      <point x="502" y="-229" type="curve" smooth="yes"/>
      <point x="437" y="-229"/>
      <point x="399" y="-191"/>
      <point x="399" y="-127" type="curve" smooth="yes"/>
      <point x="399" y="-67"/>
      <point x="426" y="-27"/>
      <point x="484" y="-4" type="curve"/>
      <point x="414" y="-4" type="line" smooth="yes"/>
      <point x="357" y="-4"/>
      <point x="352" y="-4"/>
      <point x="228" y="0" type="curve"/>
      <point x="194" y="0" type="line" smooth="yes"/>
      <point x="171" y="0"/>
      <point x="171" y="0"/>
      <point x="72" y="-3" type="curve"/>
      <point x="72" y="20" type="line"/>
      <point x="104" y="38" type="line" smooth="yes"/>
      <point x="119" y="46"/>
      <point x="124" y="61"/>
      <point x="124" y="95" type="curve" smooth="yes"/>
      <point x="124" y="543" type="line" smooth="yes"/>
      <point x="124" y="631"/>
      <point x="121" y="637"/>
      <point x="76" y="641" type="curve" smooth="yes"/>
      <point x="39" y="644" type="line"/>
      <point x="39" y="681" type="line"/>
      <point x="149" y="679"/>
      <point x="192" y="678"/>
      <point x="227" y="678" type="curve" smooth="yes"/>
      <point x="256" y="678"/>
      <point x="284" y="678"/>
      <point x="357" y="680" type="curve" smooth="yes"/>
      <point x="412" y="681"/>
      <point x="442" y="682"/>
      <point x="465" y="682" type="curve" smooth="yes"/>
      <point x="504" y="682"/>
      <point x="523" y="681"/>
      <point x="560" y="678" type="curve"/>
      <point x="566" y="671" type="line"/>
      <point x="552" y="529" type="line"/>
      <point x="516" y="529" type="line"/>
      <point x="508" y="604" type="line" smooth="yes"/>
      <point x="507" y="615"/>
      <point x="464" y="624"/>
      <point x="410" y="624" type="curve" smooth="yes"/>
      <point x="355" y="624"/>
      <point x="321" y="623"/>
      <point x="265" y="620" type="curve"/>
      <point x="265" y="380" type="line"/>
      <point x="285" y="378"/>
      <point x="299" y="378"/>
      <point x="332" y="378" type="curve" smooth="yes"/>
      <point x="398" y="378" type="line" smooth="yes"/>
      <point x="440" y="378"/>
      <point x="453" y="383"/>
      <point x="455" y="399" type="curve" smooth="yes"/>
      <point x="461" y="456" type="line"/>
      <point x="501" y="456" type="line"/>
      <point x="498" y="361"/>
      <point x="498" y="360"/>
      <point x="498" y="349" type="curve" smooth="yes"/>
      <point x="501" y="241" type="line"/>
      <point x="461" y="241" type="line"/>
      <point x="455" y="291" type="line" smooth="yes"/>
      <point x="452" y="317"/>
      <point x="436" y="328"/>
      <point x="398" y="328" type="curve" smooth="yes"/>
      <point x="332" y="328" type="line" smooth="yes"/>
      <point x="310" y="328"/>
      <point x="293" y="327"/>
    </contour>
  </outline>
</glyph>
<glyph name="gcircumflex" format="1">
  <advance width="556"/>
  <unicode hex="011D"/>
  <outline>
    <contour>
      <point x="233" y="746" type="line"/>
      <point x="326" y="746" type="line"/>
      <point x="449" y="571" type="line"/>
      <point x="392" y="571" type="line"/>
      <point x="280" y="669" type="line"/>
      <point x="167" y="571" type="line"/>
      <point x="112" y="571" type="line"/>
    </contour>
    <contour>
      <point x="529" y="368" type="line"/>
      <point x="452" y="372" type="line"/>
      <point x="456" y="353"/>
      <point x="457" y="341"/>
      <point x="457" y="325" type="curve" smooth="yes"/>
      <point x="457" y="275"/>
      <point x="444" y="240"/>
      <point x="413" y="209" type="curve" smooth="yes"/>
      <point x="372" y="168"/>
      <point x="308" y="145"/>
      <point x="239" y="145" type="curve" smooth="yes"/>
      <point x="227" y="145"/>
      <point x="217" y="146"/>
      <point x="199" y="147" type="curve"/>
      <point x="179" y="135"/>
      <point x="170" y="123"/>
      <point x="170" y="108" type="curve" smooth="yes"/>
      <point x="170" y="88"/>
      <point x="186" y="78"/>
      <point x="217" y="78" type="curve" smooth="yes"/>
      <point x="228" y="78"/>
      <point x="264" y="79"/>
      <point x="363" y="82" type="curve"/>
      <point x="387" y="82" type="line" smooth="yes"/>
      <point x="488" y="82"/>
      <point x="535" y="42"/>
      <point x="535" y="-42" type="curve" smooth="yes"/>
      <point x="535" y="-175"/>
      <point x="417" y="-266"/>
      <point x="242" y="-266" type="curve" smooth="yes"/>
      <point x="110" y="-266"/>
      <point x="26" y="-211"/>
      <point x="26" y="-124" type="curve" smooth="yes"/>
      <point x="26" y="-97"/>
      <point x="37" y="-71"/>
      <point x="52" y="-62" type="curve" smooth="yes"/>
      <point x="133" y="-14" type="line"/>
      <point x="83" y="-1"/>
      <point x="65" y="17"/>
      <point x="65" y="53" type="curve" smooth="yes"/>
      <point x="65" y="73"/>
      <point x="72" y="94"/>
      <point x="82" y="101" type="curve" smooth="yes"/>
      <point x="153" y="155" type="line"/>
      <point x="118" y="167"/>
      <point x="103" y="176"/>
      <point x="84" y="196" type="curve" smooth="yes"/>
      <point x="60" y="222"/>
      <point x="47" y="255"/>
      <point x="47" y="292" type="curve" smooth="yes"/>
      <point x="47" y="397"/>
      <point x="136" y="471"/>
      <point x="264" y="471" type="curve" smooth="yes"/>
      <point x="328" y="471"/>
      <point x="375" y="458"/>
      <point x="416" y="428" type="curve"/>
      <point x="432" y="427"/>
      <point x="444" y="427"/>
      <point x="452" y="427" type="curve" smooth="yes"/>
      <point x="474" y="427"/>
      <point x="493" y="428"/>
      <point x="534" y="432" type="curve"/>
    </contour>
    <contour>
      <point x="252" y="421" type="curve" smooth="yes"/>
      <point x="198" y="421"/>
      <point x="170" y="383"/>
      <point x="170" y="311" type="curve" smooth="yes"/>
      <point x="170" y="236"/>
      <point x="202" y="191"/>
      <point x="254" y="191" type="curve" smooth="yes"/>
      <point x="307" y="191"/>
      <point x="334" y="228"/>
      <point x="334" y="299" type="curve" smooth="yes"/>
      <point x="334" y="378"/>
      <point x="305" y="421"/>
    </contour>
    <contour>
      <point x="272" y="-15" type="curve" smooth="yes"/>
      <point x="223" y="-15"/>
      <point x="187" y="-19"/>
      <point x="171" y="-26" type="curve" smooth="yes"/>
      <point x="141" y="-41"/>
      <point x="120" y="-75"/>
      <point x="120" y="-112" type="curve" smooth="yes"/>
      <point x="120" y="-174"/>
      <point x="179" y="-216"/>
      <point x="268" y="-216" type="curve" smooth="yes"/>
      <point x="357" y="-216"/>
      <point x="424" y="-164"/>
      <point x="424" y="-95" type="curve" smooth="yes"/>
      <point x="424" y="-31"/>
      <point x="394" y="-15"/>
    </contour>
  </outline>
</glyph>
<glyph name="Itilde" format="1">
  <advance width="389"/>
  <unicode hex="0128"/>
  <outline>
    <contour>
      <point x="334" y="907" type="curve"/>
      <point x="377" y="907" type="line"/>
      <point x="353" y="820"/>
      <point x="317" y="781"/>
      <point x="259" y="781" type="curve" smooth="yes"/>
      <point x="236" y="781"/>
      <point x="215" y="787"/>
      <point x="175" y="806" type="curve" smooth="yes"/>
      <point x="138" y="824"/>
      <point x="117" y="830"/>
      <point x="98" y="830" type="curve" smooth="yes"/>
      <point x="78" y="830"/>
      <point x="62" y="814"/>
      <point x="52" y="782" type="curve"/>
      <point x="12" y="782" type="line"/>
      <point x="20" y="856"/>
      <point x="68" y="907"/>
      <point x="128" y="907" type="curve" smooth="yes"/>
      <point x="151" y="907"/>
      <point x="170" y="901"/>
      <point x="208" y="883" type="curve" smooth="yes"/>
      <point x="246" y="865"/>
      <point x="264" y="859"/>
      <point x="283" y="859" type="curve" smooth="yes"/>
      <point x="307" y="859"/>
      <point x="316" y="868"/>
    </contour>
    <contour>
      <point x="265" y="543" type="curve" smooth="yes"/>
      <point x="265" y="135" type="line" smooth="yes"/>
      <point x="265" y="46"/>
      <point x="266" y="44"/>
      <point x="313" y="40" type="curve" smooth="yes"/>
      <point x="350" y="37" type="line"/>
      <point x="350" y="-3" type="line"/>
      <point x="229" y="0"/>
      <point x="228" y="0"/>
      <point x="194" y="0" type="curve" smooth="yes"/>
      <point x="160" y="0"/>
      <point x="160" y="0"/>
      <point x="39" y="-3" type="curve"/>
      <point x="39" y="37" type="line"/>
      <point x="76" y="40" type="line" smooth="yes"/>
      <point x="123" y="44"/>
      <point x="124" y="46"/>
      <point x="124" y="135" type="curve" smooth="yes"/>
      <point x="124" y="543" type="line" smooth="yes"/>
      <point x="124" y="632"/>
      <point x="123" y="634"/>
      <point x="76" y="638" type="curve" smooth="yes"/>
      <point x="39" y="641" type="line"/>
      <point x="39" y="681" type="line"/>
      <point x="159" y="678"/>
      <point x="160" y="678"/>
      <point x="194" y="678" type="curve" smooth="yes"/>
      <point x="228" y="678"/>
      <point x="228" y="678"/>
      <point x="350" y="681" type="curve"/>
      <point x="350" y="641" type="line"/>
      <point x="313" y="638" type="line" smooth="yes"/>
      <point x="266" y="634"/>
      <point x="265" y="632"/>
    </contour>
  </outline>
</glyph>
<glyph name="itilde" format="1">
  <advance width="333"/>
  <unicode hex="0129"/>
  <outline>
    <contour>
      <point x="306" y="697" type="curve"/>
      <point x="348" y="697" type="line"/>
      <point x="324" y="610"/>
      <point x="288" y="571"/>
      <point x="230" y="571" type="curve" smooth="yes"/>
      <point x="208" y="571"/>
      <point x="186" y="577"/>
      <point x="146" y="596" type="curve" smooth="yes"/>
      <point x="110" y="614"/>
      <point x="88" y="620"/>
      <point x="70" y="620" type="curve" smooth="yes"/>
      <point x="50" y="620"/>
      <point x="34" y="604"/>
      <point x="24" y="572" type="curve"/>
      <point x="-16" y="572" type="line"/>
      <point x="-8" y="646"/>
      <point x="40" y="697"/>
      <point x="100" y="697" type="curve" smooth="yes"/>
      <point x="122" y="697"/>
      <point x="142" y="691"/>
      <point x="180" y="673" type="curve" smooth="yes"/>
      <point x="218" y="655"/>
      <point x="236" y="649"/>
      <point x="254" y="649" type="curve" smooth="yes"/>
      <point x="278" y="649"/>
      <point x="288" y="658"/>
    </contour>
    <contour>
      <point x="217" y="471" type="line"/>
      <point x="227" y="465" type="line"/>
      <point x="227" y="100" type="line" smooth="yes"/>
      <point x="227" y="46"/>
      <point x="232" y="38"/>
      <point x="263" y="36" type="curve" smooth="yes"/>
      <point x="298" y="34" type="line"/>
      <point x="298" y="-3" type="line"/>
      <point x="231" y="-1"/>
      <point x="183" y="0"/>
      <point x="163" y="0" type="curve" smooth="yes"/>
      <point x="34" y="-3" type="line"/>
      <point x="34" y="34" type="line"/>
      <point x="69" y="36" type="line" smooth="yes"/>
      <point x="100" y="38"/>
      <point x="105" y="46"/>
      <point x="105" y="100" type="curve" smooth="yes"/>
      <point x="105" y="319" type="line" smooth="yes"/>
      <point x="105" y="378"/>
      <point x="102" y="387"/>
      <point x="79" y="389" type="curve" smooth="yes"/>
      <point x="34" y="392" type="line"/>
      <point x="34" y="428" type="line"/>
      <point x="41" y="429"/>
      <point x="46" y="430"/>
      <point x="49" y="430" type="curve" smooth="yes"/>
      <point x="91" y="435"/>
      <point x="115" y="439"/>
      <point x="147" y="449" type="curve" smooth="yes"/>
    </contour>
  </outline>
</glyph>
<glyph name="imacron" format="1">
  <advance width="333"/>
  <unicode hex="012B"/>
  <outline>
    <contour>
      <point x="217" y="471" type="line"/>
      <point x="227" y="465" type="line"/>
      <point x="227" y="100" type="line" smooth="yes"/>
      <point x="227" y="46"/>
      <point x="232" y="38"/>
      <point x="263" y="36" type="curve" smooth="yes"/>
      <point x="298" y="34" type="line"/>
      <point x="298" y="-3" type="line"/>
      <point x="231" y="-1"/>
      <point x="183" y="0"/>
      <point x="163" y="0" type="curve" smooth="yes"/>
      <point x="34" y="-3" type="line"/>
      <point x="34" y="34" type="line"/>
      <point x="69" y="36" type="line" smooth="yes"/>
      <point x="100" y="38"/>
      <point x="105" y="46"/>
      <point x="105" y="100" type="curve" smooth="yes"/>
      <point x="105" y="319" type="line" smooth="yes"/>
      <point x="105" y="378"/>
      <point x="102" y="387"/>
      <point x="79" y="389" type="curve" smooth="yes"/>
      <point x="34" y="392" type="line"/>
      <point x="34" y="428" type="line"/>
      <point x="41" y="429"/>
      <point x="46" y="430"/>
      <point x="49" y="430" type="curve" smooth="yes"/>
      <point x="91" y="435"/>
      <point x="115" y="439"/>
      <point x="147" y="449" type="curve" smooth="yes"/>
    </contour>
    <contour>
      <point x="332" y="538" type="line"/>
      <point x="1" y="538" type="line"/>
      <point x="1" y="609" type="line"/>
      <point x="332" y="609" type="line"/>
    </contour>
  </outline>
</glyph>
<glyph name="ibreve" format="1">
  <advance width="333"/>
  <unicode hex="012D"/>
  <outline>
    <contour>
      <point x="14" y="734" type="curve"/>
      <point x="58" y="734" type="line"/>
      <point x="70" y="675"/>
      <point x="104" y="647"/>
      <point x="162" y="647" type="curve" smooth="yes"/>
      <point x="200" y="647"/>
      <point x="230" y="659"/>
      <point x="250" y="683" type="curve"/>
      <point x="264" y="698"/>
      <point x="274" y="719"/>
      <point x="274" y="732" type="curve" smooth="yes"/>
      <point x="274" y="734" type="line"/>
      <point x="318" y="734" type="line"/>
      <point x="314" y="686"/>
      <point x="308" y="662"/>
      <point x="292" y="635" type="curve"/>
      <point x="264" y="593"/>
      <point x="222" y="571"/>
      <point x="166" y="571" type="curve" smooth="yes"/>
      <point x="106" y="571"/>
      <point x="58" y="597"/>
      <point x="34" y="645" type="curve" smooth="yes"/>
      <point x="20" y="671"/>
      <point x="16" y="691"/>
    </contour>
    <contour>
      <point x="217" y="471" type="line"/>
      <point x="227" y="465" type="line"/>
      <point x="227" y="100" type="line" smooth="yes"/>
      <point x="227" y="46"/>
      <point x="232" y="38"/>
      <point x="263" y="36" type="curve" smooth="yes"/>
      <point x="298" y="34" type="line"/>
      <point x="298" y="-3" type="line"/>
      <point x="231" y="-1"/>
      <point x="183" y="0"/>
      <point x="163" y="0" type="curve" smooth="yes"/>
      <point x="34" y="-3" type="line"/>
      <point x="34" y="34" type="line"/>
      <point x="69" y="36" type="line" smooth="yes"/>
      <point x="100" y="38"/>
      <point x="105" y="46"/>
      <point x="105" y="100" type="curve" smooth="yes"/>
      <point x="105" y="319" type="line" smooth="yes"/>
      <point x="105" y="378"/>
      <point x="102" y="387"/>
      <point x="79" y="389" type="curve" smooth="yes"/>
      <point x="34" y="392" type="line"/>
      <point x="34" y="428" type="line"/>
      <point x="41" y="429"/>
      <point x="46" y="430"/>
      <point x="49" y="430" type="curve" smooth="yes"/>
      <point x="91" y="435"/>
      <point x="115" y="439"/>
      <point x="147" y="449" type="curve" smooth="yes"/>
    </contour>
  </outline>
</glyph>
<glyph name="IJ" format="1">
  <advance width="730"/>
  <unicode hex="0132"/>
  <outline>
    <contour>
      <point x="344" y="-208" type="curve"/>
      <point x="344" y="-119" type="line"/>
      <point x="355" y="-113" type="line"/>
      <point x="359" y="-116"/>
      <point x="360" y="-116"/>
      <point x="366" y="-121" type="curve" smooth="yes"/>
      <point x="392" y="-141"/>
      <point x="407" y="-148"/>
      <point x="424" y="-148" type="curve" smooth="yes"/>
      <point x="464" y="-148"/>
      <point x="479" y="-113"/>
      <point x="479" y="-18" type="curve" smooth="yes"/>
      <point x="479" y="543" type="line" smooth="yes"/>
      <point x="479" y="632"/>
      <point x="478" y="634"/>
      <point x="431" y="638" type="curve" smooth="yes"/>
      <point x="394" y="641" type="line"/>
      <point x="394" y="681" type="line"/>
      <point x="514" y="678"/>
      <point x="515" y="678"/>
      <point x="549" y="678" type="curve" smooth="yes"/>
      <point x="583" y="678"/>
      <point x="583" y="678"/>
      <point x="705" y="681" type="curve"/>
      <point x="705" y="641" type="line"/>
      <point x="668" y="638" type="line" smooth="yes"/>
      <point x="621" y="634"/>
      <point x="620" y="632"/>
      <point x="620" y="543" type="curve" smooth="yes"/>
      <point x="620" y="137" type="line" smooth="yes"/>
      <point x="620" y="32"/>
      <point x="614" y="-7"/>
      <point x="592" y="-55" type="curve" smooth="yes"/>
      <point x="550" y="-144"/>
      <point x="455" y="-213"/>
      <point x="374" y="-213" type="curve" smooth="yes"/>
      <point x="366" y="-213"/>
      <point x="357" y="-212"/>
    </contour>
    <contour>
      <point x="265" y="543" type="curve" smooth="yes"/>
      <point x="265" y="135" type="line" smooth="yes"/>
      <point x="265" y="46"/>
      <point x="266" y="44"/>
      <point x="313" y="40" type="curve" smooth="yes"/>
      <point x="350" y="37" type="line"/>
      <point x="350" y="-3" type="line"/>
      <point x="229" y="0"/>
      <point x="228" y="0"/>
      <point x="194" y="0" type="curve" smooth="yes"/>
      <point x="160" y="0"/>
      <point x="160" y="0"/>
      <point x="39" y="-3" type="curve"/>
      <point x="39" y="37" type="line"/>
      <point x="76" y="40" type="line" smooth="yes"/>
      <point x="123" y="44"/>
      <point x="124" y="46"/>
      <point x="124" y="135" type="curve" smooth="yes"/>
      <point x="124" y="543" type="line" smooth="yes"/>
      <point x="124" y="632"/>
      <point x="123" y="634"/>
      <point x="76" y="638" type="curve" smooth="yes"/>
      <point x="39" y="641" type="line"/>
      <point x="39" y="681" type="line"/>
      <point x="159" y="678"/>
      <point x="160" y="678"/>
      <point x="194" y="678" type="curve" smooth="yes"/>
      <point x="228" y="678"/>
      <point x="228" y="678"/>
      <point x="350" y="681" type="curve"/>
      <point x="350" y="641" type="line"/>
      <point x="313" y="638" type="line" smooth="yes"/>
      <point x="266" y="634"/>
      <point x="265" y="632"/>
    </contour>
  </outline>
</glyph>
